G04 #@! TF.GenerationSoftware,KiCad,Pcbnew,(5.0.2)-1*
G04 #@! TF.CreationDate,2018-12-26T22:17:43-06:00*
G04 #@! TF.ProjectId,AVR6502Tester,41565236-3530-4325-9465-737465722e6b,rev?*
G04 #@! TF.SameCoordinates,Original*
G04 #@! TF.FileFunction,Legend,Bot*
G04 #@! TF.FilePolarity,Positive*
%FSLAX46Y46*%
G04 Gerber Fmt 4.6, Leading zero omitted, Abs format (unit mm)*
G04 Created by KiCad (PCBNEW (5.0.2)-1) date 12/26/2018 10:17:43 PM*
%MOMM*%
%LPD*%
G01*
G04 APERTURE LIST*
%ADD10C,0.120000*%
%ADD11C,0.066040*%
%ADD12C,0.127000*%
%ADD13C,0.150000*%
%ADD14C,0.381000*%
%ADD15C,0.200660*%
%ADD16C,0.304800*%
G04 APERTURE END LIST*
D10*
G04 #@! TO.C,LC7*
X94794000Y-69349252D02*
X94794000Y-68826748D01*
X96214000Y-69349252D02*
X96214000Y-68826748D01*
D11*
G04 #@! TO.C,LJ1*
X97584260Y-19504660D02*
X97584260Y-22004020D01*
X97584260Y-22004020D02*
X96184720Y-22004020D01*
X96184720Y-19504660D02*
X96184720Y-22004020D01*
X97584260Y-19504660D02*
X96184720Y-19504660D01*
X104983280Y-19504660D02*
X104983280Y-22004020D01*
X104983280Y-22004020D02*
X103583740Y-22004020D01*
X103583740Y-19504660D02*
X103583740Y-22004020D01*
X104983280Y-19504660D02*
X103583740Y-19504660D01*
X103682800Y-12506960D02*
X103682800Y-14831060D01*
X103682800Y-14831060D02*
X97485200Y-14831060D01*
X97485200Y-12506960D02*
X97485200Y-14831060D01*
X103682800Y-12506960D02*
X97485200Y-12506960D01*
X102908100Y-14831060D02*
X102908100Y-15608300D01*
X102908100Y-15608300D02*
X98259900Y-15608300D01*
X98259900Y-14831060D02*
X98259900Y-15608300D01*
X102908100Y-14831060D02*
X98259900Y-14831060D01*
D12*
X96685100Y-12506960D02*
X104482900Y-12506960D01*
X96685100Y-21503640D02*
X104482900Y-21503640D01*
X96685100Y-12506960D02*
X96685100Y-21503640D01*
X104482900Y-12506960D02*
X104482900Y-21503640D01*
X97086420Y-17005300D02*
X97584260Y-13007340D01*
X97584260Y-13007340D02*
X98585020Y-13007340D01*
X98585020Y-13007340D02*
X99085400Y-17005300D01*
X104081580Y-17505680D02*
X103583740Y-13007340D01*
X103583740Y-13007340D02*
X102582980Y-13007340D01*
X102582980Y-13007340D02*
X102082600Y-17505680D01*
X99334320Y-13007340D02*
X99834700Y-18003520D01*
X99834700Y-18003520D02*
X101333300Y-18003520D01*
X101333300Y-18003520D02*
X101833680Y-13007340D01*
D10*
G04 #@! TO.C,C6*
X71874748Y-88190000D02*
X72397252Y-88190000D01*
X71874748Y-89610000D02*
X72397252Y-89610000D01*
G04 #@! TO.C,R4*
X77223252Y-89968000D02*
X76700748Y-89968000D01*
X77223252Y-91388000D02*
X76700748Y-91388000D01*
D13*
G04 #@! TO.C,IC1*
X63405000Y-73565000D02*
X63980000Y-73565000D01*
X63405000Y-83915000D02*
X64080000Y-83915000D01*
X73755000Y-83915000D02*
X73080000Y-83915000D01*
X73755000Y-73565000D02*
X73080000Y-73565000D01*
X63405000Y-73565000D02*
X63405000Y-74240000D01*
X73755000Y-73565000D02*
X73755000Y-74240000D01*
X73755000Y-83915000D02*
X73755000Y-83240000D01*
X63405000Y-83915000D02*
X63405000Y-83240000D01*
X63980000Y-73565000D02*
X63980000Y-72290000D01*
D10*
G04 #@! TO.C,Y1*
X78501000Y-75261000D02*
X78501000Y-81511000D01*
X83551000Y-75261000D02*
X83551000Y-81511000D01*
X83551000Y-75261000D02*
G75*
G03X78501000Y-75261000I-2525000J0D01*
G01*
X83551000Y-81511000D02*
G75*
G02X78501000Y-81511000I-2525000J0D01*
G01*
G04 #@! TO.C,D4*
X72080000Y-51070000D02*
X72080000Y-53930000D01*
X72080000Y-53930000D02*
X70160000Y-53930000D01*
X70160000Y-53930000D02*
X70160000Y-51070000D01*
G04 #@! TO.C,C1*
X81024252Y-71576000D02*
X80501748Y-71576000D01*
X81024252Y-70156000D02*
X80501748Y-70156000D01*
G04 #@! TO.C,C2*
X81033252Y-85396000D02*
X80510748Y-85396000D01*
X81033252Y-86816000D02*
X80510748Y-86816000D01*
G04 #@! TO.C,C3*
X62491252Y-69925000D02*
X61968748Y-69925000D01*
X62491252Y-68505000D02*
X61968748Y-68505000D01*
G04 #@! TO.C,C4*
X55320000Y-70858748D02*
X55320000Y-71381252D01*
X53900000Y-70858748D02*
X53900000Y-71381252D01*
G04 #@! TO.C,C5*
X50090000Y-70858748D02*
X50090000Y-71381252D01*
X51510000Y-70858748D02*
X51510000Y-71381252D01*
G04 #@! TO.C,C7*
X57710000Y-70858748D02*
X57710000Y-71381252D01*
X59130000Y-70858748D02*
X59130000Y-71381252D01*
G04 #@! TO.C,C8*
X67258000Y-25661252D02*
X67258000Y-25138748D01*
X65838000Y-25661252D02*
X65838000Y-25138748D01*
G04 #@! TO.C,D1*
X51110000Y-34880000D02*
X51110000Y-32020000D01*
X53030000Y-34880000D02*
X51110000Y-34880000D01*
X53030000Y-32020000D02*
X53030000Y-34880000D01*
G04 #@! TO.C,D2*
X72080000Y-32020000D02*
X72080000Y-34880000D01*
X72080000Y-34880000D02*
X70160000Y-34880000D01*
X70160000Y-34880000D02*
X70160000Y-32020000D01*
G04 #@! TO.C,D3*
X51110000Y-53930000D02*
X51110000Y-51070000D01*
X53030000Y-53930000D02*
X51110000Y-53930000D01*
X53030000Y-51070000D02*
X53030000Y-53930000D01*
D12*
G04 #@! TO.C,J1*
X62979300Y-17622520D02*
X63479680Y-12626340D01*
X61480700Y-17622520D02*
X62979300Y-17622520D01*
X60980320Y-12626340D02*
X61480700Y-17622520D01*
X64228980Y-12626340D02*
X63728600Y-17124680D01*
X65229740Y-12626340D02*
X64228980Y-12626340D01*
X65727580Y-17124680D02*
X65229740Y-12626340D01*
X60231020Y-12626340D02*
X60731400Y-16624300D01*
X59230260Y-12626340D02*
X60231020Y-12626340D01*
X58732420Y-16624300D02*
X59230260Y-12626340D01*
X66128900Y-12125960D02*
X66128900Y-21122640D01*
X58331100Y-12125960D02*
X58331100Y-21122640D01*
X58331100Y-21122640D02*
X66128900Y-21122640D01*
X58331100Y-12125960D02*
X66128900Y-12125960D01*
D11*
X64554100Y-14450060D02*
X59905900Y-14450060D01*
X59905900Y-14450060D02*
X59905900Y-15227300D01*
X64554100Y-15227300D02*
X59905900Y-15227300D01*
X64554100Y-14450060D02*
X64554100Y-15227300D01*
X65328800Y-12125960D02*
X59131200Y-12125960D01*
X59131200Y-12125960D02*
X59131200Y-14450060D01*
X65328800Y-14450060D02*
X59131200Y-14450060D01*
X65328800Y-12125960D02*
X65328800Y-14450060D01*
X66629280Y-19123660D02*
X65229740Y-19123660D01*
X65229740Y-19123660D02*
X65229740Y-21623020D01*
X66629280Y-21623020D02*
X65229740Y-21623020D01*
X66629280Y-19123660D02*
X66629280Y-21623020D01*
X59230260Y-19123660D02*
X57830720Y-19123660D01*
X57830720Y-19123660D02*
X57830720Y-21623020D01*
X59230260Y-21623020D02*
X57830720Y-21623020D01*
X59230260Y-19123660D02*
X59230260Y-21623020D01*
D10*
G04 #@! TO.C,LC1*
X113291252Y-44525000D02*
X112768748Y-44525000D01*
X113291252Y-43105000D02*
X112768748Y-43105000D01*
G04 #@! TO.C,LC2*
X113046252Y-57710000D02*
X112523748Y-57710000D01*
X113046252Y-59130000D02*
X112523748Y-59130000D01*
G04 #@! TO.C,LC3*
X105671252Y-40588000D02*
X105148748Y-40588000D01*
X105671252Y-39168000D02*
X105148748Y-39168000D01*
G04 #@! TO.C,LC4*
X97230000Y-40901252D02*
X97230000Y-40378748D01*
X95810000Y-40901252D02*
X95810000Y-40378748D01*
G04 #@! TO.C,LC5*
X92000000Y-40901252D02*
X92000000Y-40378748D01*
X93420000Y-40901252D02*
X93420000Y-40378748D01*
G04 #@! TO.C,LC6*
X99433748Y-63575000D02*
X99956252Y-63575000D01*
X99433748Y-62155000D02*
X99956252Y-62155000D01*
G04 #@! TO.C,LC8*
X105358000Y-26677252D02*
X105358000Y-26154748D01*
X103938000Y-26677252D02*
X103938000Y-26154748D01*
D13*
G04 #@! TO.C,LIC1*
X96365000Y-46260000D02*
X96365000Y-44985000D01*
X95790000Y-56610000D02*
X95790000Y-55935000D01*
X106140000Y-56610000D02*
X106140000Y-55935000D01*
X106140000Y-46260000D02*
X106140000Y-46935000D01*
X95790000Y-46260000D02*
X95790000Y-46935000D01*
X106140000Y-46260000D02*
X105465000Y-46260000D01*
X106140000Y-56610000D02*
X105465000Y-56610000D01*
X95790000Y-56610000D02*
X96465000Y-56610000D01*
X95790000Y-46260000D02*
X96365000Y-46260000D01*
D10*
G04 #@! TO.C,LP1*
X104461000Y-76822000D02*
X104461000Y-75999530D01*
X104461000Y-74114470D02*
X104461000Y-73292000D01*
X104461000Y-75384470D02*
X104461000Y-74729530D01*
X106936000Y-76822000D02*
X104461000Y-76822000D01*
X108391000Y-73292000D02*
X104461000Y-73292000D01*
X106936000Y-76822000D02*
X106936000Y-76255471D01*
X106936000Y-75128529D02*
X106936000Y-74985471D01*
X106989471Y-74932000D02*
X107132529Y-74932000D01*
X108259471Y-74932000D02*
X108391000Y-74932000D01*
X108391000Y-74932000D02*
X108391000Y-74729530D01*
X108391000Y-74114470D02*
X108391000Y-73292000D01*
X107696000Y-76822000D02*
X108456000Y-76822000D01*
X108456000Y-76822000D02*
X108456000Y-75692000D01*
G04 #@! TO.C,LR1*
X97080000Y-26677252D02*
X97080000Y-26154748D01*
X98500000Y-26677252D02*
X98500000Y-26154748D01*
G04 #@! TO.C,LR2*
X101802000Y-26677252D02*
X101802000Y-26154748D01*
X100382000Y-26677252D02*
X100382000Y-26154748D01*
G04 #@! TO.C,LR3*
X94794000Y-62721748D02*
X94794000Y-63244252D01*
X96214000Y-62721748D02*
X96214000Y-63244252D01*
G04 #@! TO.C,LR4*
X102310000Y-68953748D02*
X102310000Y-69476252D01*
X100890000Y-68953748D02*
X100890000Y-69476252D01*
D14*
G04 #@! TO.C,LS1*
X110949740Y-62941200D02*
X104950260Y-62941200D01*
X110949740Y-69138800D02*
X110949740Y-62941200D01*
X104950260Y-69138800D02*
X110949740Y-69138800D01*
X104950260Y-62941200D02*
X104950260Y-69138800D01*
X104851200Y-63240920D02*
X104851200Y-68839080D01*
X111048800Y-63240920D02*
X111048800Y-68839080D01*
D15*
X106299000Y-69639180D02*
X106299000Y-69138800D01*
X105600500Y-69639180D02*
X106299000Y-69639180D01*
X105600500Y-69138800D02*
X105600500Y-69639180D01*
X110299500Y-69639180D02*
X110299500Y-69138800D01*
X109601000Y-69639180D02*
X110299500Y-69639180D01*
X109601000Y-69138800D02*
X109601000Y-69639180D01*
X109601000Y-62941200D02*
X109601000Y-62440820D01*
X109601000Y-62440820D02*
X110299500Y-62440820D01*
X110299500Y-62440820D02*
X110299500Y-62941200D01*
X106299000Y-62440820D02*
X106299000Y-62941200D01*
X105600500Y-62440820D02*
X106299000Y-62440820D01*
X105600500Y-62941200D02*
X105600500Y-62440820D01*
X109451140Y-66040000D02*
G75*
G03X109451140Y-66040000I-1501140J0D01*
G01*
D10*
G04 #@! TO.C,LY1*
X115555000Y-54460000D02*
G75*
G02X110505000Y-54460000I-2525000J0D01*
G01*
X115555000Y-48210000D02*
G75*
G03X110505000Y-48210000I-2525000J0D01*
G01*
X115555000Y-48210000D02*
X115555000Y-54460000D01*
X110505000Y-48210000D02*
X110505000Y-54460000D01*
G04 #@! TO.C,P1*
X61720000Y-92570000D02*
X61720000Y-91440000D01*
X60960000Y-92570000D02*
X61720000Y-92570000D01*
X61655000Y-89862470D02*
X61655000Y-89040000D01*
X61655000Y-90680000D02*
X61655000Y-90477530D01*
X61523471Y-90680000D02*
X61655000Y-90680000D01*
X60253471Y-90680000D02*
X60396529Y-90680000D01*
X60200000Y-90876529D02*
X60200000Y-90733471D01*
X60200000Y-92570000D02*
X60200000Y-92003471D01*
X61655000Y-89040000D02*
X57725000Y-89040000D01*
X60200000Y-92570000D02*
X57725000Y-92570000D01*
X57725000Y-91132470D02*
X57725000Y-90477530D01*
X57725000Y-89862470D02*
X57725000Y-89040000D01*
X57725000Y-92570000D02*
X57725000Y-91747530D01*
G04 #@! TO.C,R1*
X60654000Y-25661252D02*
X60654000Y-25138748D01*
X59234000Y-25661252D02*
X59234000Y-25138748D01*
G04 #@! TO.C,R2*
X62282000Y-25661252D02*
X62282000Y-25138748D01*
X63702000Y-25661252D02*
X63702000Y-25138748D01*
G04 #@! TO.C,R3*
X65285252Y-89102000D02*
X64762748Y-89102000D01*
X65285252Y-87682000D02*
X64762748Y-87682000D01*
G04 #@! TO.C,R6*
X52443748Y-86920000D02*
X52966252Y-86920000D01*
X52443748Y-88340000D02*
X52966252Y-88340000D01*
D15*
G04 #@! TO.C,S0*
X56111140Y-80010000D02*
G75*
G03X56111140Y-80010000I-1501140J0D01*
G01*
X56959500Y-83108800D02*
X56959500Y-83609180D01*
X56959500Y-83609180D02*
X56261000Y-83609180D01*
X56261000Y-83609180D02*
X56261000Y-83108800D01*
X52260500Y-83609180D02*
X52260500Y-83108800D01*
X52959000Y-83609180D02*
X52260500Y-83609180D01*
X52959000Y-83108800D02*
X52959000Y-83609180D01*
X52959000Y-76911200D02*
X52959000Y-76410820D01*
X52959000Y-76410820D02*
X52260500Y-76410820D01*
X52260500Y-76410820D02*
X52260500Y-76911200D01*
X56959500Y-76911200D02*
X56959500Y-76410820D01*
X56959500Y-76410820D02*
X56261000Y-76410820D01*
X56261000Y-76410820D02*
X56261000Y-76911200D01*
D14*
X51511200Y-82809080D02*
X51511200Y-77210920D01*
X57708800Y-82809080D02*
X57708800Y-77210920D01*
X57609740Y-83108800D02*
X57609740Y-76911200D01*
X57609740Y-76911200D02*
X51610260Y-76911200D01*
X51610260Y-76911200D02*
X51610260Y-83108800D01*
X51610260Y-83108800D02*
X57609740Y-83108800D01*
D10*
G04 #@! TO.C,XR1*
X64060000Y-32758748D02*
X64060000Y-33281252D01*
X65480000Y-32758748D02*
X65480000Y-33281252D01*
G04 #@! TO.C,XR2*
X83110000Y-32758748D02*
X83110000Y-33281252D01*
X84530000Y-32758748D02*
X84530000Y-33281252D01*
G04 #@! TO.C,XR3*
X64060000Y-51808748D02*
X64060000Y-52331252D01*
X65480000Y-51808748D02*
X65480000Y-52331252D01*
G04 #@! TO.C,XR4*
X84530000Y-51808748D02*
X84530000Y-52331252D01*
X83110000Y-51808748D02*
X83110000Y-52331252D01*
G04 #@! TO.C,R5*
X76700748Y-88086000D02*
X77223252Y-88086000D01*
X76700748Y-86666000D02*
X77223252Y-86666000D01*
G04 #@! TO.C,LC7*
D13*
X97606380Y-68421333D02*
X97606380Y-67945142D01*
X96606380Y-67945142D01*
X97511142Y-69326095D02*
X97558761Y-69278476D01*
X97606380Y-69135619D01*
X97606380Y-69040380D01*
X97558761Y-68897523D01*
X97463523Y-68802285D01*
X97368285Y-68754666D01*
X97177809Y-68707047D01*
X97034952Y-68707047D01*
X96844476Y-68754666D01*
X96749238Y-68802285D01*
X96654000Y-68897523D01*
X96606380Y-69040380D01*
X96606380Y-69135619D01*
X96654000Y-69278476D01*
X96701619Y-69326095D01*
X96606380Y-69659428D02*
X96606380Y-70326095D01*
X97606380Y-69897523D01*
G04 #@! TO.C,C6*
X72302666Y-90907142D02*
X72350285Y-90954761D01*
X72493142Y-91002380D01*
X72588380Y-91002380D01*
X72731238Y-90954761D01*
X72826476Y-90859523D01*
X72874095Y-90764285D01*
X72921714Y-90573809D01*
X72921714Y-90430952D01*
X72874095Y-90240476D01*
X72826476Y-90145238D01*
X72731238Y-90050000D01*
X72588380Y-90002380D01*
X72493142Y-90002380D01*
X72350285Y-90050000D01*
X72302666Y-90097619D01*
X71445523Y-90002380D02*
X71636000Y-90002380D01*
X71731238Y-90050000D01*
X71778857Y-90097619D01*
X71874095Y-90240476D01*
X71921714Y-90430952D01*
X71921714Y-90811904D01*
X71874095Y-90907142D01*
X71826476Y-90954761D01*
X71731238Y-91002380D01*
X71540761Y-91002380D01*
X71445523Y-90954761D01*
X71397904Y-90907142D01*
X71350285Y-90811904D01*
X71350285Y-90573809D01*
X71397904Y-90478571D01*
X71445523Y-90430952D01*
X71540761Y-90383333D01*
X71731238Y-90383333D01*
X71826476Y-90430952D01*
X71874095Y-90478571D01*
X71921714Y-90573809D01*
G04 #@! TO.C,R4*
X77128666Y-89480380D02*
X77462000Y-89004190D01*
X77700095Y-89480380D02*
X77700095Y-88480380D01*
X77319142Y-88480380D01*
X77223904Y-88528000D01*
X77176285Y-88575619D01*
X77128666Y-88670857D01*
X77128666Y-88813714D01*
X77176285Y-88908952D01*
X77223904Y-88956571D01*
X77319142Y-89004190D01*
X77700095Y-89004190D01*
X76271523Y-88813714D02*
X76271523Y-89480380D01*
X76509619Y-88432761D02*
X76747714Y-89147047D01*
X76128666Y-89147047D01*
G04 #@! TO.C,IC1*
X69032380Y-77763809D02*
X68032380Y-77763809D01*
X68937142Y-78811428D02*
X68984761Y-78763809D01*
X69032380Y-78620952D01*
X69032380Y-78525714D01*
X68984761Y-78382857D01*
X68889523Y-78287619D01*
X68794285Y-78240000D01*
X68603809Y-78192380D01*
X68460952Y-78192380D01*
X68270476Y-78240000D01*
X68175238Y-78287619D01*
X68080000Y-78382857D01*
X68032380Y-78525714D01*
X68032380Y-78620952D01*
X68080000Y-78763809D01*
X68127619Y-78811428D01*
X69032380Y-79763809D02*
X69032380Y-79192380D01*
X69032380Y-79478095D02*
X68032380Y-79478095D01*
X68175238Y-79382857D01*
X68270476Y-79287619D01*
X68318095Y-79192380D01*
G04 #@! TO.C,Y1*
X77477190Y-77909809D02*
X77953380Y-77909809D01*
X76953380Y-77576476D02*
X77477190Y-77909809D01*
X76953380Y-78243142D01*
X77953380Y-79100285D02*
X77953380Y-78528857D01*
X77953380Y-78814571D02*
X76953380Y-78814571D01*
X77096238Y-78719333D01*
X77191476Y-78624095D01*
X77239095Y-78528857D01*
G04 #@! TO.C,D4*
X73222380Y-51331904D02*
X72222380Y-51331904D01*
X72222380Y-51570000D01*
X72270000Y-51712857D01*
X72365238Y-51808095D01*
X72460476Y-51855714D01*
X72650952Y-51903333D01*
X72793809Y-51903333D01*
X72984285Y-51855714D01*
X73079523Y-51808095D01*
X73174761Y-51712857D01*
X73222380Y-51570000D01*
X73222380Y-51331904D01*
X72555714Y-52760476D02*
X73222380Y-52760476D01*
X72174761Y-52522380D02*
X72889047Y-52284285D01*
X72889047Y-52903333D01*
G04 #@! TO.C,C1*
X80929666Y-69573142D02*
X80977285Y-69620761D01*
X81120142Y-69668380D01*
X81215380Y-69668380D01*
X81358238Y-69620761D01*
X81453476Y-69525523D01*
X81501095Y-69430285D01*
X81548714Y-69239809D01*
X81548714Y-69096952D01*
X81501095Y-68906476D01*
X81453476Y-68811238D01*
X81358238Y-68716000D01*
X81215380Y-68668380D01*
X81120142Y-68668380D01*
X80977285Y-68716000D01*
X80929666Y-68763619D01*
X79977285Y-69668380D02*
X80548714Y-69668380D01*
X80263000Y-69668380D02*
X80263000Y-68668380D01*
X80358238Y-68811238D01*
X80453476Y-68906476D01*
X80548714Y-68954095D01*
G04 #@! TO.C,C2*
X80938666Y-84813142D02*
X80986285Y-84860761D01*
X81129142Y-84908380D01*
X81224380Y-84908380D01*
X81367238Y-84860761D01*
X81462476Y-84765523D01*
X81510095Y-84670285D01*
X81557714Y-84479809D01*
X81557714Y-84336952D01*
X81510095Y-84146476D01*
X81462476Y-84051238D01*
X81367238Y-83956000D01*
X81224380Y-83908380D01*
X81129142Y-83908380D01*
X80986285Y-83956000D01*
X80938666Y-84003619D01*
X80557714Y-84003619D02*
X80510095Y-83956000D01*
X80414857Y-83908380D01*
X80176761Y-83908380D01*
X80081523Y-83956000D01*
X80033904Y-84003619D01*
X79986285Y-84098857D01*
X79986285Y-84194095D01*
X80033904Y-84336952D01*
X80605333Y-84908380D01*
X79986285Y-84908380D01*
G04 #@! TO.C,C3*
X62396666Y-67922142D02*
X62444285Y-67969761D01*
X62587142Y-68017380D01*
X62682380Y-68017380D01*
X62825238Y-67969761D01*
X62920476Y-67874523D01*
X62968095Y-67779285D01*
X63015714Y-67588809D01*
X63015714Y-67445952D01*
X62968095Y-67255476D01*
X62920476Y-67160238D01*
X62825238Y-67065000D01*
X62682380Y-67017380D01*
X62587142Y-67017380D01*
X62444285Y-67065000D01*
X62396666Y-67112619D01*
X62063333Y-67017380D02*
X61444285Y-67017380D01*
X61777619Y-67398333D01*
X61634761Y-67398333D01*
X61539523Y-67445952D01*
X61491904Y-67493571D01*
X61444285Y-67588809D01*
X61444285Y-67826904D01*
X61491904Y-67922142D01*
X61539523Y-67969761D01*
X61634761Y-68017380D01*
X61920476Y-68017380D01*
X62015714Y-67969761D01*
X62063333Y-67922142D01*
G04 #@! TO.C,C4*
X55030666Y-74525142D02*
X55078285Y-74572761D01*
X55221142Y-74620380D01*
X55316380Y-74620380D01*
X55459238Y-74572761D01*
X55554476Y-74477523D01*
X55602095Y-74382285D01*
X55649714Y-74191809D01*
X55649714Y-74048952D01*
X55602095Y-73858476D01*
X55554476Y-73763238D01*
X55459238Y-73668000D01*
X55316380Y-73620380D01*
X55221142Y-73620380D01*
X55078285Y-73668000D01*
X55030666Y-73715619D01*
X54173523Y-73953714D02*
X54173523Y-74620380D01*
X54411619Y-73572761D02*
X54649714Y-74287047D01*
X54030666Y-74287047D01*
G04 #@! TO.C,C5*
X50966666Y-74525142D02*
X51014285Y-74572761D01*
X51157142Y-74620380D01*
X51252380Y-74620380D01*
X51395238Y-74572761D01*
X51490476Y-74477523D01*
X51538095Y-74382285D01*
X51585714Y-74191809D01*
X51585714Y-74048952D01*
X51538095Y-73858476D01*
X51490476Y-73763238D01*
X51395238Y-73668000D01*
X51252380Y-73620380D01*
X51157142Y-73620380D01*
X51014285Y-73668000D01*
X50966666Y-73715619D01*
X50061904Y-73620380D02*
X50538095Y-73620380D01*
X50585714Y-74096571D01*
X50538095Y-74048952D01*
X50442857Y-74001333D01*
X50204761Y-74001333D01*
X50109523Y-74048952D01*
X50061904Y-74096571D01*
X50014285Y-74191809D01*
X50014285Y-74429904D01*
X50061904Y-74525142D01*
X50109523Y-74572761D01*
X50204761Y-74620380D01*
X50442857Y-74620380D01*
X50538095Y-74572761D01*
X50585714Y-74525142D01*
G04 #@! TO.C,C7*
X58586666Y-74525142D02*
X58634285Y-74572761D01*
X58777142Y-74620380D01*
X58872380Y-74620380D01*
X59015238Y-74572761D01*
X59110476Y-74477523D01*
X59158095Y-74382285D01*
X59205714Y-74191809D01*
X59205714Y-74048952D01*
X59158095Y-73858476D01*
X59110476Y-73763238D01*
X59015238Y-73668000D01*
X58872380Y-73620380D01*
X58777142Y-73620380D01*
X58634285Y-73668000D01*
X58586666Y-73715619D01*
X58253333Y-73620380D02*
X57586666Y-73620380D01*
X58015238Y-74620380D01*
G04 #@! TO.C,C8*
X68555142Y-25233333D02*
X68602761Y-25185714D01*
X68650380Y-25042857D01*
X68650380Y-24947619D01*
X68602761Y-24804761D01*
X68507523Y-24709523D01*
X68412285Y-24661904D01*
X68221809Y-24614285D01*
X68078952Y-24614285D01*
X67888476Y-24661904D01*
X67793238Y-24709523D01*
X67698000Y-24804761D01*
X67650380Y-24947619D01*
X67650380Y-25042857D01*
X67698000Y-25185714D01*
X67745619Y-25233333D01*
X68078952Y-25804761D02*
X68031333Y-25709523D01*
X67983714Y-25661904D01*
X67888476Y-25614285D01*
X67840857Y-25614285D01*
X67745619Y-25661904D01*
X67698000Y-25709523D01*
X67650380Y-25804761D01*
X67650380Y-25995238D01*
X67698000Y-26090476D01*
X67745619Y-26138095D01*
X67840857Y-26185714D01*
X67888476Y-26185714D01*
X67983714Y-26138095D01*
X68031333Y-26090476D01*
X68078952Y-25995238D01*
X68078952Y-25804761D01*
X68126571Y-25709523D01*
X68174190Y-25661904D01*
X68269428Y-25614285D01*
X68459904Y-25614285D01*
X68555142Y-25661904D01*
X68602761Y-25709523D01*
X68650380Y-25804761D01*
X68650380Y-25995238D01*
X68602761Y-26090476D01*
X68555142Y-26138095D01*
X68459904Y-26185714D01*
X68269428Y-26185714D01*
X68174190Y-26138095D01*
X68126571Y-26090476D01*
X68078952Y-25995238D01*
G04 #@! TO.C,D1*
X54172380Y-32281904D02*
X53172380Y-32281904D01*
X53172380Y-32520000D01*
X53220000Y-32662857D01*
X53315238Y-32758095D01*
X53410476Y-32805714D01*
X53600952Y-32853333D01*
X53743809Y-32853333D01*
X53934285Y-32805714D01*
X54029523Y-32758095D01*
X54124761Y-32662857D01*
X54172380Y-32520000D01*
X54172380Y-32281904D01*
X54172380Y-33805714D02*
X54172380Y-33234285D01*
X54172380Y-33520000D02*
X53172380Y-33520000D01*
X53315238Y-33424761D01*
X53410476Y-33329523D01*
X53458095Y-33234285D01*
G04 #@! TO.C,D2*
X73222380Y-32281904D02*
X72222380Y-32281904D01*
X72222380Y-32520000D01*
X72270000Y-32662857D01*
X72365238Y-32758095D01*
X72460476Y-32805714D01*
X72650952Y-32853333D01*
X72793809Y-32853333D01*
X72984285Y-32805714D01*
X73079523Y-32758095D01*
X73174761Y-32662857D01*
X73222380Y-32520000D01*
X73222380Y-32281904D01*
X72317619Y-33234285D02*
X72270000Y-33281904D01*
X72222380Y-33377142D01*
X72222380Y-33615238D01*
X72270000Y-33710476D01*
X72317619Y-33758095D01*
X72412857Y-33805714D01*
X72508095Y-33805714D01*
X72650952Y-33758095D01*
X73222380Y-33186666D01*
X73222380Y-33805714D01*
G04 #@! TO.C,D3*
X54172380Y-51331904D02*
X53172380Y-51331904D01*
X53172380Y-51570000D01*
X53220000Y-51712857D01*
X53315238Y-51808095D01*
X53410476Y-51855714D01*
X53600952Y-51903333D01*
X53743809Y-51903333D01*
X53934285Y-51855714D01*
X54029523Y-51808095D01*
X54124761Y-51712857D01*
X54172380Y-51570000D01*
X54172380Y-51331904D01*
X53172380Y-52236666D02*
X53172380Y-52855714D01*
X53553333Y-52522380D01*
X53553333Y-52665238D01*
X53600952Y-52760476D01*
X53648571Y-52808095D01*
X53743809Y-52855714D01*
X53981904Y-52855714D01*
X54077142Y-52808095D01*
X54124761Y-52760476D01*
X54172380Y-52665238D01*
X54172380Y-52379523D01*
X54124761Y-52284285D01*
X54077142Y-52236666D01*
G04 #@! TO.C,LC1*
X113696666Y-42617380D02*
X114172857Y-42617380D01*
X114172857Y-41617380D01*
X112791904Y-42522142D02*
X112839523Y-42569761D01*
X112982380Y-42617380D01*
X113077619Y-42617380D01*
X113220476Y-42569761D01*
X113315714Y-42474523D01*
X113363333Y-42379285D01*
X113410952Y-42188809D01*
X113410952Y-42045952D01*
X113363333Y-41855476D01*
X113315714Y-41760238D01*
X113220476Y-41665000D01*
X113077619Y-41617380D01*
X112982380Y-41617380D01*
X112839523Y-41665000D01*
X112791904Y-41712619D01*
X111839523Y-42617380D02*
X112410952Y-42617380D01*
X112125238Y-42617380D02*
X112125238Y-41617380D01*
X112220476Y-41760238D01*
X112315714Y-41855476D01*
X112410952Y-41903095D01*
G04 #@! TO.C,LC2*
X113451666Y-57222380D02*
X113927857Y-57222380D01*
X113927857Y-56222380D01*
X112546904Y-57127142D02*
X112594523Y-57174761D01*
X112737380Y-57222380D01*
X112832619Y-57222380D01*
X112975476Y-57174761D01*
X113070714Y-57079523D01*
X113118333Y-56984285D01*
X113165952Y-56793809D01*
X113165952Y-56650952D01*
X113118333Y-56460476D01*
X113070714Y-56365238D01*
X112975476Y-56270000D01*
X112832619Y-56222380D01*
X112737380Y-56222380D01*
X112594523Y-56270000D01*
X112546904Y-56317619D01*
X112165952Y-56317619D02*
X112118333Y-56270000D01*
X112023095Y-56222380D01*
X111785000Y-56222380D01*
X111689761Y-56270000D01*
X111642142Y-56317619D01*
X111594523Y-56412857D01*
X111594523Y-56508095D01*
X111642142Y-56650952D01*
X112213571Y-57222380D01*
X111594523Y-57222380D01*
G04 #@! TO.C,LC3*
X106076666Y-38680380D02*
X106552857Y-38680380D01*
X106552857Y-37680380D01*
X105171904Y-38585142D02*
X105219523Y-38632761D01*
X105362380Y-38680380D01*
X105457619Y-38680380D01*
X105600476Y-38632761D01*
X105695714Y-38537523D01*
X105743333Y-38442285D01*
X105790952Y-38251809D01*
X105790952Y-38108952D01*
X105743333Y-37918476D01*
X105695714Y-37823238D01*
X105600476Y-37728000D01*
X105457619Y-37680380D01*
X105362380Y-37680380D01*
X105219523Y-37728000D01*
X105171904Y-37775619D01*
X104838571Y-37680380D02*
X104219523Y-37680380D01*
X104552857Y-38061333D01*
X104410000Y-38061333D01*
X104314761Y-38108952D01*
X104267142Y-38156571D01*
X104219523Y-38251809D01*
X104219523Y-38489904D01*
X104267142Y-38585142D01*
X104314761Y-38632761D01*
X104410000Y-38680380D01*
X104695714Y-38680380D01*
X104790952Y-38632761D01*
X104838571Y-38585142D01*
G04 #@! TO.C,LC4*
X98622380Y-39973333D02*
X98622380Y-39497142D01*
X97622380Y-39497142D01*
X98527142Y-40878095D02*
X98574761Y-40830476D01*
X98622380Y-40687619D01*
X98622380Y-40592380D01*
X98574761Y-40449523D01*
X98479523Y-40354285D01*
X98384285Y-40306666D01*
X98193809Y-40259047D01*
X98050952Y-40259047D01*
X97860476Y-40306666D01*
X97765238Y-40354285D01*
X97670000Y-40449523D01*
X97622380Y-40592380D01*
X97622380Y-40687619D01*
X97670000Y-40830476D01*
X97717619Y-40878095D01*
X97955714Y-41735238D02*
X98622380Y-41735238D01*
X97574761Y-41497142D02*
X98289047Y-41259047D01*
X98289047Y-41878095D01*
G04 #@! TO.C,LC5*
X94812380Y-39973333D02*
X94812380Y-39497142D01*
X93812380Y-39497142D01*
X94717142Y-40878095D02*
X94764761Y-40830476D01*
X94812380Y-40687619D01*
X94812380Y-40592380D01*
X94764761Y-40449523D01*
X94669523Y-40354285D01*
X94574285Y-40306666D01*
X94383809Y-40259047D01*
X94240952Y-40259047D01*
X94050476Y-40306666D01*
X93955238Y-40354285D01*
X93860000Y-40449523D01*
X93812380Y-40592380D01*
X93812380Y-40687619D01*
X93860000Y-40830476D01*
X93907619Y-40878095D01*
X93812380Y-41782857D02*
X93812380Y-41306666D01*
X94288571Y-41259047D01*
X94240952Y-41306666D01*
X94193333Y-41401904D01*
X94193333Y-41640000D01*
X94240952Y-41735238D01*
X94288571Y-41782857D01*
X94383809Y-41830476D01*
X94621904Y-41830476D01*
X94717142Y-41782857D01*
X94764761Y-41735238D01*
X94812380Y-41640000D01*
X94812380Y-41401904D01*
X94764761Y-41306666D01*
X94717142Y-41259047D01*
G04 #@! TO.C,LC6*
X100361666Y-64967380D02*
X100837857Y-64967380D01*
X100837857Y-63967380D01*
X99456904Y-64872142D02*
X99504523Y-64919761D01*
X99647380Y-64967380D01*
X99742619Y-64967380D01*
X99885476Y-64919761D01*
X99980714Y-64824523D01*
X100028333Y-64729285D01*
X100075952Y-64538809D01*
X100075952Y-64395952D01*
X100028333Y-64205476D01*
X99980714Y-64110238D01*
X99885476Y-64015000D01*
X99742619Y-63967380D01*
X99647380Y-63967380D01*
X99504523Y-64015000D01*
X99456904Y-64062619D01*
X98599761Y-63967380D02*
X98790238Y-63967380D01*
X98885476Y-64015000D01*
X98933095Y-64062619D01*
X99028333Y-64205476D01*
X99075952Y-64395952D01*
X99075952Y-64776904D01*
X99028333Y-64872142D01*
X98980714Y-64919761D01*
X98885476Y-64967380D01*
X98695000Y-64967380D01*
X98599761Y-64919761D01*
X98552142Y-64872142D01*
X98504523Y-64776904D01*
X98504523Y-64538809D01*
X98552142Y-64443571D01*
X98599761Y-64395952D01*
X98695000Y-64348333D01*
X98885476Y-64348333D01*
X98980714Y-64395952D01*
X99028333Y-64443571D01*
X99075952Y-64538809D01*
G04 #@! TO.C,LC8*
X106750380Y-25749333D02*
X106750380Y-25273142D01*
X105750380Y-25273142D01*
X106655142Y-26654095D02*
X106702761Y-26606476D01*
X106750380Y-26463619D01*
X106750380Y-26368380D01*
X106702761Y-26225523D01*
X106607523Y-26130285D01*
X106512285Y-26082666D01*
X106321809Y-26035047D01*
X106178952Y-26035047D01*
X105988476Y-26082666D01*
X105893238Y-26130285D01*
X105798000Y-26225523D01*
X105750380Y-26368380D01*
X105750380Y-26463619D01*
X105798000Y-26606476D01*
X105845619Y-26654095D01*
X106178952Y-27225523D02*
X106131333Y-27130285D01*
X106083714Y-27082666D01*
X105988476Y-27035047D01*
X105940857Y-27035047D01*
X105845619Y-27082666D01*
X105798000Y-27130285D01*
X105750380Y-27225523D01*
X105750380Y-27416000D01*
X105798000Y-27511238D01*
X105845619Y-27558857D01*
X105940857Y-27606476D01*
X105988476Y-27606476D01*
X106083714Y-27558857D01*
X106131333Y-27511238D01*
X106178952Y-27416000D01*
X106178952Y-27225523D01*
X106226571Y-27130285D01*
X106274190Y-27082666D01*
X106369428Y-27035047D01*
X106559904Y-27035047D01*
X106655142Y-27082666D01*
X106702761Y-27130285D01*
X106750380Y-27225523D01*
X106750380Y-27416000D01*
X106702761Y-27511238D01*
X106655142Y-27558857D01*
X106559904Y-27606476D01*
X106369428Y-27606476D01*
X106274190Y-27558857D01*
X106226571Y-27511238D01*
X106178952Y-27416000D01*
G04 #@! TO.C,LED1*
X60070952Y-31186428D02*
X59309047Y-31186428D01*
X59690000Y-31567380D02*
X59690000Y-30805476D01*
G04 #@! TO.C,LED2*
X79120952Y-31186428D02*
X78359047Y-31186428D01*
X78740000Y-31567380D02*
X78740000Y-30805476D01*
G04 #@! TO.C,LED3*
X60070952Y-50236428D02*
X59309047Y-50236428D01*
X59690000Y-50617380D02*
X59690000Y-49855476D01*
G04 #@! TO.C,LED4*
X79120952Y-50236428D02*
X78359047Y-50236428D01*
X78740000Y-50617380D02*
X78740000Y-49855476D01*
G04 #@! TO.C,LIC1*
X101544380Y-50530238D02*
X101544380Y-50054047D01*
X100544380Y-50054047D01*
X101544380Y-50863571D02*
X100544380Y-50863571D01*
X101449142Y-51911190D02*
X101496761Y-51863571D01*
X101544380Y-51720714D01*
X101544380Y-51625476D01*
X101496761Y-51482619D01*
X101401523Y-51387380D01*
X101306285Y-51339761D01*
X101115809Y-51292142D01*
X100972952Y-51292142D01*
X100782476Y-51339761D01*
X100687238Y-51387380D01*
X100592000Y-51482619D01*
X100544380Y-51625476D01*
X100544380Y-51720714D01*
X100592000Y-51863571D01*
X100639619Y-51911190D01*
X101544380Y-52863571D02*
X101544380Y-52292142D01*
X101544380Y-52577857D02*
X100544380Y-52577857D01*
X100687238Y-52482619D01*
X100782476Y-52387380D01*
X100830095Y-52292142D01*
G04 #@! TO.C,LP1*
X109843380Y-74390333D02*
X109843380Y-73914142D01*
X108843380Y-73914142D01*
X109843380Y-74723666D02*
X108843380Y-74723666D01*
X108843380Y-75104619D01*
X108891000Y-75199857D01*
X108938619Y-75247476D01*
X109033857Y-75295095D01*
X109176714Y-75295095D01*
X109271952Y-75247476D01*
X109319571Y-75199857D01*
X109367190Y-75104619D01*
X109367190Y-74723666D01*
X109843380Y-76247476D02*
X109843380Y-75676047D01*
X109843380Y-75961761D02*
X108843380Y-75961761D01*
X108986238Y-75866523D01*
X109081476Y-75771285D01*
X109129095Y-75676047D01*
G04 #@! TO.C,LR1*
X96337380Y-25749333D02*
X96337380Y-25273142D01*
X95337380Y-25273142D01*
X96337380Y-26654095D02*
X95861190Y-26320761D01*
X96337380Y-26082666D02*
X95337380Y-26082666D01*
X95337380Y-26463619D01*
X95385000Y-26558857D01*
X95432619Y-26606476D01*
X95527857Y-26654095D01*
X95670714Y-26654095D01*
X95765952Y-26606476D01*
X95813571Y-26558857D01*
X95861190Y-26463619D01*
X95861190Y-26082666D01*
X96337380Y-27606476D02*
X96337380Y-27035047D01*
X96337380Y-27320761D02*
X95337380Y-27320761D01*
X95480238Y-27225523D01*
X95575476Y-27130285D01*
X95623095Y-27035047D01*
G04 #@! TO.C,LR2*
X99639380Y-25749333D02*
X99639380Y-25273142D01*
X98639380Y-25273142D01*
X99639380Y-26654095D02*
X99163190Y-26320761D01*
X99639380Y-26082666D02*
X98639380Y-26082666D01*
X98639380Y-26463619D01*
X98687000Y-26558857D01*
X98734619Y-26606476D01*
X98829857Y-26654095D01*
X98972714Y-26654095D01*
X99067952Y-26606476D01*
X99115571Y-26558857D01*
X99163190Y-26463619D01*
X99163190Y-26082666D01*
X98734619Y-27035047D02*
X98687000Y-27082666D01*
X98639380Y-27177904D01*
X98639380Y-27416000D01*
X98687000Y-27511238D01*
X98734619Y-27558857D01*
X98829857Y-27606476D01*
X98925095Y-27606476D01*
X99067952Y-27558857D01*
X99639380Y-26987428D01*
X99639380Y-27606476D01*
G04 #@! TO.C,LR3*
X94306380Y-62316333D02*
X94306380Y-61840142D01*
X93306380Y-61840142D01*
X94306380Y-63221095D02*
X93830190Y-62887761D01*
X94306380Y-62649666D02*
X93306380Y-62649666D01*
X93306380Y-63030619D01*
X93354000Y-63125857D01*
X93401619Y-63173476D01*
X93496857Y-63221095D01*
X93639714Y-63221095D01*
X93734952Y-63173476D01*
X93782571Y-63125857D01*
X93830190Y-63030619D01*
X93830190Y-62649666D01*
X93306380Y-63554428D02*
X93306380Y-64173476D01*
X93687333Y-63840142D01*
X93687333Y-63983000D01*
X93734952Y-64078238D01*
X93782571Y-64125857D01*
X93877809Y-64173476D01*
X94115904Y-64173476D01*
X94211142Y-64125857D01*
X94258761Y-64078238D01*
X94306380Y-63983000D01*
X94306380Y-63697285D01*
X94258761Y-63602047D01*
X94211142Y-63554428D01*
G04 #@! TO.C,LR4*
X100402380Y-68548333D02*
X100402380Y-68072142D01*
X99402380Y-68072142D01*
X100402380Y-69453095D02*
X99926190Y-69119761D01*
X100402380Y-68881666D02*
X99402380Y-68881666D01*
X99402380Y-69262619D01*
X99450000Y-69357857D01*
X99497619Y-69405476D01*
X99592857Y-69453095D01*
X99735714Y-69453095D01*
X99830952Y-69405476D01*
X99878571Y-69357857D01*
X99926190Y-69262619D01*
X99926190Y-68881666D01*
X99735714Y-70310238D02*
X100402380Y-70310238D01*
X99354761Y-70072142D02*
X100069047Y-69834047D01*
X100069047Y-70453095D01*
G04 #@! TO.C,LS1*
D16*
X103838828Y-65159345D02*
X103838828Y-64433631D01*
X102314828Y-64433631D01*
X103766257Y-65594774D02*
X103838828Y-65812488D01*
X103838828Y-66175345D01*
X103766257Y-66320488D01*
X103693685Y-66393060D01*
X103548542Y-66465631D01*
X103403400Y-66465631D01*
X103258257Y-66393060D01*
X103185685Y-66320488D01*
X103113114Y-66175345D01*
X103040542Y-65885060D01*
X102967971Y-65739917D01*
X102895400Y-65667345D01*
X102750257Y-65594774D01*
X102605114Y-65594774D01*
X102459971Y-65667345D01*
X102387400Y-65739917D01*
X102314828Y-65885060D01*
X102314828Y-66247917D01*
X102387400Y-66465631D01*
X103838828Y-67917060D02*
X103838828Y-67046202D01*
X103838828Y-67481631D02*
X102314828Y-67481631D01*
X102532542Y-67336488D01*
X102677685Y-67191345D01*
X102750257Y-67046202D01*
X113440028Y-61893631D02*
X111916028Y-61893631D01*
X111916028Y-62256488D01*
X111988600Y-62474202D01*
X112133742Y-62619345D01*
X112278885Y-62691917D01*
X112569171Y-62764488D01*
X112786885Y-62764488D01*
X113077171Y-62691917D01*
X113222314Y-62619345D01*
X113367457Y-62474202D01*
X113440028Y-62256488D01*
X113440028Y-61893631D01*
X111916028Y-63199917D02*
X111916028Y-64070774D01*
X113440028Y-63635345D02*
X111916028Y-63635345D01*
X113367457Y-64506202D02*
X113440028Y-64723917D01*
X113440028Y-65086774D01*
X113367457Y-65231917D01*
X113294885Y-65304488D01*
X113149742Y-65377060D01*
X113004600Y-65377060D01*
X112859457Y-65304488D01*
X112786885Y-65231917D01*
X112714314Y-65086774D01*
X112641742Y-64796488D01*
X112569171Y-64651345D01*
X112496600Y-64578774D01*
X112351457Y-64506202D01*
X112206314Y-64506202D01*
X112061171Y-64578774D01*
X111988600Y-64651345D01*
X111916028Y-64796488D01*
X111916028Y-65159345D01*
X111988600Y-65377060D01*
X113440028Y-66030202D02*
X111916028Y-66030202D01*
X113004600Y-66538202D01*
X111916028Y-67046202D01*
X113440028Y-67046202D01*
X112859457Y-67771917D02*
X112859457Y-68933060D01*
X111916028Y-70311917D02*
X111916028Y-70021631D01*
X111988600Y-69876488D01*
X112061171Y-69803917D01*
X112278885Y-69658774D01*
X112569171Y-69586202D01*
X113149742Y-69586202D01*
X113294885Y-69658774D01*
X113367457Y-69731345D01*
X113440028Y-69876488D01*
X113440028Y-70166774D01*
X113367457Y-70311917D01*
X113294885Y-70384488D01*
X113149742Y-70457060D01*
X112786885Y-70457060D01*
X112641742Y-70384488D01*
X112569171Y-70311917D01*
X112496600Y-70166774D01*
X112496600Y-69876488D01*
X112569171Y-69731345D01*
X112641742Y-69658774D01*
X112786885Y-69586202D01*
G04 #@! TO.C,LY1*
D13*
X109957380Y-50739761D02*
X109957380Y-50263571D01*
X108957380Y-50263571D01*
X109481190Y-51263571D02*
X109957380Y-51263571D01*
X108957380Y-50930238D02*
X109481190Y-51263571D01*
X108957380Y-51596904D01*
X109957380Y-52454047D02*
X109957380Y-51882619D01*
X109957380Y-52168333D02*
X108957380Y-52168333D01*
X109100238Y-52073095D01*
X109195476Y-51977857D01*
X109243095Y-51882619D01*
G04 #@! TO.C,P1*
X63107380Y-90066904D02*
X62107380Y-90066904D01*
X62107380Y-90447857D01*
X62155000Y-90543095D01*
X62202619Y-90590714D01*
X62297857Y-90638333D01*
X62440714Y-90638333D01*
X62535952Y-90590714D01*
X62583571Y-90543095D01*
X62631190Y-90447857D01*
X62631190Y-90066904D01*
X63107380Y-91590714D02*
X63107380Y-91019285D01*
X63107380Y-91305000D02*
X62107380Y-91305000D01*
X62250238Y-91209761D01*
X62345476Y-91114523D01*
X62393095Y-91019285D01*
G04 #@! TO.C,R1*
X62046380Y-25233333D02*
X61570190Y-24900000D01*
X62046380Y-24661904D02*
X61046380Y-24661904D01*
X61046380Y-25042857D01*
X61094000Y-25138095D01*
X61141619Y-25185714D01*
X61236857Y-25233333D01*
X61379714Y-25233333D01*
X61474952Y-25185714D01*
X61522571Y-25138095D01*
X61570190Y-25042857D01*
X61570190Y-24661904D01*
X62046380Y-26185714D02*
X62046380Y-25614285D01*
X62046380Y-25900000D02*
X61046380Y-25900000D01*
X61189238Y-25804761D01*
X61284476Y-25709523D01*
X61332095Y-25614285D01*
G04 #@! TO.C,R2*
X65094380Y-25233333D02*
X64618190Y-24900000D01*
X65094380Y-24661904D02*
X64094380Y-24661904D01*
X64094380Y-25042857D01*
X64142000Y-25138095D01*
X64189619Y-25185714D01*
X64284857Y-25233333D01*
X64427714Y-25233333D01*
X64522952Y-25185714D01*
X64570571Y-25138095D01*
X64618190Y-25042857D01*
X64618190Y-24661904D01*
X64189619Y-25614285D02*
X64142000Y-25661904D01*
X64094380Y-25757142D01*
X64094380Y-25995238D01*
X64142000Y-26090476D01*
X64189619Y-26138095D01*
X64284857Y-26185714D01*
X64380095Y-26185714D01*
X64522952Y-26138095D01*
X65094380Y-25566666D01*
X65094380Y-26185714D01*
G04 #@! TO.C,R3*
X65190666Y-87194380D02*
X65524000Y-86718190D01*
X65762095Y-87194380D02*
X65762095Y-86194380D01*
X65381142Y-86194380D01*
X65285904Y-86242000D01*
X65238285Y-86289619D01*
X65190666Y-86384857D01*
X65190666Y-86527714D01*
X65238285Y-86622952D01*
X65285904Y-86670571D01*
X65381142Y-86718190D01*
X65762095Y-86718190D01*
X64857333Y-86194380D02*
X64238285Y-86194380D01*
X64571619Y-86575333D01*
X64428761Y-86575333D01*
X64333523Y-86622952D01*
X64285904Y-86670571D01*
X64238285Y-86765809D01*
X64238285Y-87003904D01*
X64285904Y-87099142D01*
X64333523Y-87146761D01*
X64428761Y-87194380D01*
X64714476Y-87194380D01*
X64809714Y-87146761D01*
X64857333Y-87099142D01*
G04 #@! TO.C,R6*
X52871666Y-89732380D02*
X53205000Y-89256190D01*
X53443095Y-89732380D02*
X53443095Y-88732380D01*
X53062142Y-88732380D01*
X52966904Y-88780000D01*
X52919285Y-88827619D01*
X52871666Y-88922857D01*
X52871666Y-89065714D01*
X52919285Y-89160952D01*
X52966904Y-89208571D01*
X53062142Y-89256190D01*
X53443095Y-89256190D01*
X52014523Y-88732380D02*
X52205000Y-88732380D01*
X52300238Y-88780000D01*
X52347857Y-88827619D01*
X52443095Y-88970476D01*
X52490714Y-89160952D01*
X52490714Y-89541904D01*
X52443095Y-89637142D01*
X52395476Y-89684761D01*
X52300238Y-89732380D01*
X52109761Y-89732380D01*
X52014523Y-89684761D01*
X51966904Y-89637142D01*
X51919285Y-89541904D01*
X51919285Y-89303809D01*
X51966904Y-89208571D01*
X52014523Y-89160952D01*
X52109761Y-89113333D01*
X52300238Y-89113333D01*
X52395476Y-89160952D01*
X52443095Y-89208571D01*
X52490714Y-89303809D01*
G04 #@! TO.C,S0*
D16*
X60027457Y-78749797D02*
X60100028Y-78967511D01*
X60100028Y-79330368D01*
X60027457Y-79475511D01*
X59954885Y-79548082D01*
X59809742Y-79620654D01*
X59664600Y-79620654D01*
X59519457Y-79548082D01*
X59446885Y-79475511D01*
X59374314Y-79330368D01*
X59301742Y-79040082D01*
X59229171Y-78894940D01*
X59156600Y-78822368D01*
X59011457Y-78749797D01*
X58866314Y-78749797D01*
X58721171Y-78822368D01*
X58648600Y-78894940D01*
X58576028Y-79040082D01*
X58576028Y-79402940D01*
X58648600Y-79620654D01*
X58576028Y-80564082D02*
X58576028Y-80709225D01*
X58648600Y-80854368D01*
X58721171Y-80926940D01*
X58866314Y-80999511D01*
X59156600Y-81072082D01*
X59519457Y-81072082D01*
X59809742Y-80999511D01*
X59954885Y-80926940D01*
X60027457Y-80854368D01*
X60100028Y-80709225D01*
X60100028Y-80564082D01*
X60027457Y-80418940D01*
X59954885Y-80346368D01*
X59809742Y-80273797D01*
X59519457Y-80201225D01*
X59156600Y-80201225D01*
X58866314Y-80273797D01*
X58721171Y-80346368D01*
X58648600Y-80418940D01*
X58576028Y-80564082D01*
G04 #@! TO.C,XR1*
D13*
X62572380Y-31710476D02*
X63572380Y-32377142D01*
X62572380Y-32377142D02*
X63572380Y-31710476D01*
X63572380Y-33329523D02*
X63096190Y-32996190D01*
X63572380Y-32758095D02*
X62572380Y-32758095D01*
X62572380Y-33139047D01*
X62620000Y-33234285D01*
X62667619Y-33281904D01*
X62762857Y-33329523D01*
X62905714Y-33329523D01*
X63000952Y-33281904D01*
X63048571Y-33234285D01*
X63096190Y-33139047D01*
X63096190Y-32758095D01*
X63572380Y-34281904D02*
X63572380Y-33710476D01*
X63572380Y-33996190D02*
X62572380Y-33996190D01*
X62715238Y-33900952D01*
X62810476Y-33805714D01*
X62858095Y-33710476D01*
G04 #@! TO.C,XR2*
X81622380Y-31710476D02*
X82622380Y-32377142D01*
X81622380Y-32377142D02*
X82622380Y-31710476D01*
X82622380Y-33329523D02*
X82146190Y-32996190D01*
X82622380Y-32758095D02*
X81622380Y-32758095D01*
X81622380Y-33139047D01*
X81670000Y-33234285D01*
X81717619Y-33281904D01*
X81812857Y-33329523D01*
X81955714Y-33329523D01*
X82050952Y-33281904D01*
X82098571Y-33234285D01*
X82146190Y-33139047D01*
X82146190Y-32758095D01*
X81717619Y-33710476D02*
X81670000Y-33758095D01*
X81622380Y-33853333D01*
X81622380Y-34091428D01*
X81670000Y-34186666D01*
X81717619Y-34234285D01*
X81812857Y-34281904D01*
X81908095Y-34281904D01*
X82050952Y-34234285D01*
X82622380Y-33662857D01*
X82622380Y-34281904D01*
G04 #@! TO.C,XR3*
X62572380Y-50760476D02*
X63572380Y-51427142D01*
X62572380Y-51427142D02*
X63572380Y-50760476D01*
X63572380Y-52379523D02*
X63096190Y-52046190D01*
X63572380Y-51808095D02*
X62572380Y-51808095D01*
X62572380Y-52189047D01*
X62620000Y-52284285D01*
X62667619Y-52331904D01*
X62762857Y-52379523D01*
X62905714Y-52379523D01*
X63000952Y-52331904D01*
X63048571Y-52284285D01*
X63096190Y-52189047D01*
X63096190Y-51808095D01*
X62572380Y-52712857D02*
X62572380Y-53331904D01*
X62953333Y-52998571D01*
X62953333Y-53141428D01*
X63000952Y-53236666D01*
X63048571Y-53284285D01*
X63143809Y-53331904D01*
X63381904Y-53331904D01*
X63477142Y-53284285D01*
X63524761Y-53236666D01*
X63572380Y-53141428D01*
X63572380Y-52855714D01*
X63524761Y-52760476D01*
X63477142Y-52712857D01*
G04 #@! TO.C,XR4*
X81622380Y-50760476D02*
X82622380Y-51427142D01*
X81622380Y-51427142D02*
X82622380Y-50760476D01*
X82622380Y-52379523D02*
X82146190Y-52046190D01*
X82622380Y-51808095D02*
X81622380Y-51808095D01*
X81622380Y-52189047D01*
X81670000Y-52284285D01*
X81717619Y-52331904D01*
X81812857Y-52379523D01*
X81955714Y-52379523D01*
X82050952Y-52331904D01*
X82098571Y-52284285D01*
X82146190Y-52189047D01*
X82146190Y-51808095D01*
X81955714Y-53236666D02*
X82622380Y-53236666D01*
X81574761Y-52998571D02*
X82289047Y-52760476D01*
X82289047Y-53379523D01*
G04 #@! TO.C,R5*
X77128666Y-92908380D02*
X77462000Y-92432190D01*
X77700095Y-92908380D02*
X77700095Y-91908380D01*
X77319142Y-91908380D01*
X77223904Y-91956000D01*
X77176285Y-92003619D01*
X77128666Y-92098857D01*
X77128666Y-92241714D01*
X77176285Y-92336952D01*
X77223904Y-92384571D01*
X77319142Y-92432190D01*
X77700095Y-92432190D01*
X76223904Y-91908380D02*
X76700095Y-91908380D01*
X76747714Y-92384571D01*
X76700095Y-92336952D01*
X76604857Y-92289333D01*
X76366761Y-92289333D01*
X76271523Y-92336952D01*
X76223904Y-92384571D01*
X76176285Y-92479809D01*
X76176285Y-92717904D01*
X76223904Y-92813142D01*
X76271523Y-92860761D01*
X76366761Y-92908380D01*
X76604857Y-92908380D01*
X76700095Y-92860761D01*
X76747714Y-92813142D01*
G04 #@! TD*
M02*
