M48
;DRILL file {KiCad (5.0.2)-1} date 12/26/2018 10:17:35 PM
;FORMAT={-:-/ absolute / inch / decimal}
FMAT,2
INCH,TZ
T1C0.0157
T2C0.0256
T3C0.0314
T4C0.0315
T5C0.0320
T6C0.0591
T7C0.0591
T8C0.0669
T9C0.1614
%
G90
G05
T1
X2.Y-2.7596
X2.Y-2.8404
X2.0713Y-3.274
X2.15Y-2.7596
X2.15Y-2.8404
X2.2288Y-3.274
X2.3Y-2.7596
X2.3Y-2.8404
X2.33Y-3.39
X2.38Y-3.02
X2.4Y-3.23
X2.46Y-2.84
X2.4904Y-2.725
X2.5Y-1.18
X2.5196Y-3.48
X2.54Y-0.9
X2.55Y-1.2596
X2.55Y-1.3404
X2.55Y-2.0096
X2.55Y-2.0904
X2.5774Y-3.1195
X2.58Y-2.94
X2.59Y-2.65
X2.62Y-0.9596
X2.63Y-3.06
X2.67Y-1.18
X2.68Y-2.75
X2.73Y-2.94
X2.73Y-3.39
X2.74Y-3.01
X2.74Y-3.16
X2.75Y-2.69
X2.79Y-3.44
X2.7996Y-3.5
X2.82Y-2.81
X2.8604Y-2.8756
X2.8604Y-3.3244
X2.98Y-3.29
X2.9896Y-3.44
X3.Y-2.66
X3.04Y-3.26
X3.09Y-2.76
X3.11Y-3.33
X3.3Y-1.2596
X3.3Y-1.3404
X3.3Y-2.0096
X3.3Y-2.0904
X3.32Y-2.75
X3.33Y-3.32
X3.42Y-3.03
X3.49Y-2.32
X3.49Y-3.03
X3.55Y-2.88
X3.56Y-3.57
X3.57Y-1.18
X3.59Y-1.9
X3.59Y-2.82
X3.6Y-2.2
X3.6Y-3.64
X3.65Y-1.5596
X3.65Y-1.6404
X3.67Y-2.47
X3.69Y-2.21
X3.6902Y-1.9002
X3.74Y-0.98
X3.74Y-0.98
X3.76Y-2.52
X3.76Y-2.6796
X3.79Y-2.81
X3.8Y-1.5596
X3.8Y-1.6404
X3.81Y-1.9
X3.85Y-2.32
X3.88Y-2.02
X3.8846Y-2.475
X3.94Y-1.9
X3.95Y-1.56
X3.9654Y-2.475
X4.Y-2.16
X4.0252Y-1.6852
X4.03Y-2.06
X4.04Y-1.64
X4.0772Y-1.6782
X4.08Y-2.63
X4.1096Y-1.57
X4.11Y-1.18
X4.11Y-1.7
X4.11Y-2.69
X4.12Y-0.9996
X4.13Y-1.95
X4.1325Y-2.33
X4.1712Y-2.476
X4.18Y-0.92
X4.18Y-1.63
X4.22Y-1.72
X4.24Y-2.84
X4.27Y-1.9
X4.28Y-3.29
X4.31Y-2.6
X4.3287Y-2.476
X4.35Y-3.26
X4.4Y-2.3
X4.45Y-2.47
X4.58Y-1.89
X4.64Y-3.
X4.6698Y-1.7402
X4.71Y-1.7
X4.71Y-2.84
X4.73Y-3.03
X4.75Y-1.67
T2
X4.14Y-2.93
X4.14Y-2.98
X4.19Y-2.93
X4.19Y-2.98
X4.24Y-2.93
X4.24Y-2.98
X2.3Y-3.55
X2.3Y-3.6
X2.35Y-3.55
X2.35Y-3.6
X2.4Y-3.55
X2.4Y-3.6
T3
X2.3871Y-0.8257
X2.4186Y-0.7785
X2.45Y-0.8257
X2.4814Y-0.7785
X2.5129Y-0.8257
X3.8971Y-0.8407
X3.9286Y-0.7935
X3.96Y-0.8407
X3.9914Y-0.7935
X4.0229Y-0.8407
T4
X3.19Y-2.99
X3.19Y-3.1821
X4.45Y-1.925
X4.45Y-2.1171
T5
X3.Y-1.3
X3.1Y-1.3
X3.Y-2.05
X3.1Y-2.05
X2.25Y-1.3
X2.35Y-1.3
X2.25Y-2.05
X2.35Y-2.05
T6
X2.31Y-0.605
X2.31Y-0.785
X2.59Y-0.605
X2.59Y-0.785
X3.82Y-0.62
X3.82Y-0.8
X4.1Y-0.62
X4.1Y-0.8
T7
X2.2Y-2.45
X2.45Y-2.35
X2.95Y-2.45
X3.2Y-2.35
X2.2Y-1.7
X2.45Y-1.6
X2.95Y-1.7
X3.2Y-1.6
T8
X2.1Y-2.25
X2.5Y-2.25
X2.85Y-2.25
X3.25Y-2.25
X2.1Y-1.5
X2.5Y-1.5
X2.85Y-1.5
X3.25Y-1.5
T9
X2.3Y-2.25
X3.05Y-2.25
X2.3Y-1.5
X3.05Y-1.5
T0
M30
