G04 #@! TF.GenerationSoftware,KiCad,Pcbnew,(5.0.2)-1*
G04 #@! TF.CreationDate,2018-12-26T22:17:43-06:00*
G04 #@! TF.ProjectId,AVR6502Tester,41565236-3530-4325-9465-737465722e6b,rev?*
G04 #@! TF.SameCoordinates,Original*
G04 #@! TF.FileFunction,Soldermask,Bot*
G04 #@! TF.FilePolarity,Negative*
%FSLAX46Y46*%
G04 Gerber Fmt 4.6, Leading zero omitted, Abs format (unit mm)*
G04 Created by KiCad (PCBNEW (5.0.2)-1) date 12/26/2018 10:17:43 PM*
%MOMM*%
%LPD*%
G01*
G04 APERTURE LIST*
%ADD10C,0.100000*%
G04 APERTURE END LIST*
D10*
G36*
X58528015Y-89626973D02*
X58631879Y-89658479D01*
X58727600Y-89709644D01*
X58811501Y-89778499D01*
X58880356Y-89862400D01*
X58931521Y-89958121D01*
X58935383Y-89970854D01*
X58944760Y-89993493D01*
X58958374Y-90013867D01*
X58975701Y-90031194D01*
X58996076Y-90044808D01*
X59018715Y-90054186D01*
X59042748Y-90058966D01*
X59067252Y-90058966D01*
X59091286Y-90054185D01*
X59113925Y-90044808D01*
X59134299Y-90031194D01*
X59151626Y-90013867D01*
X59165240Y-89993492D01*
X59174617Y-89970854D01*
X59178479Y-89958121D01*
X59229644Y-89862400D01*
X59298499Y-89778499D01*
X59382400Y-89709644D01*
X59478121Y-89658479D01*
X59581985Y-89626973D01*
X59662933Y-89619000D01*
X59717067Y-89619000D01*
X59798015Y-89626973D01*
X59901879Y-89658479D01*
X59997600Y-89709644D01*
X60081501Y-89778499D01*
X60150356Y-89862400D01*
X60201521Y-89958121D01*
X60205383Y-89970854D01*
X60214760Y-89993493D01*
X60228374Y-90013867D01*
X60245701Y-90031194D01*
X60266076Y-90044808D01*
X60288715Y-90054186D01*
X60312748Y-90058966D01*
X60337252Y-90058966D01*
X60361286Y-90054185D01*
X60383925Y-90044808D01*
X60404299Y-90031194D01*
X60421626Y-90013867D01*
X60435240Y-89993492D01*
X60444617Y-89970854D01*
X60448479Y-89958121D01*
X60499644Y-89862400D01*
X60568499Y-89778499D01*
X60652400Y-89709644D01*
X60748121Y-89658479D01*
X60851985Y-89626973D01*
X60932933Y-89619000D01*
X60987067Y-89619000D01*
X61068015Y-89626973D01*
X61171879Y-89658479D01*
X61267600Y-89709644D01*
X61351501Y-89778499D01*
X61420356Y-89862400D01*
X61471521Y-89958121D01*
X61503027Y-90061985D01*
X61513666Y-90170000D01*
X61503027Y-90278015D01*
X61471521Y-90381879D01*
X61420356Y-90477600D01*
X61351501Y-90561501D01*
X61267600Y-90630356D01*
X61223805Y-90653766D01*
X61203439Y-90667374D01*
X61186111Y-90684701D01*
X61172498Y-90705076D01*
X61163120Y-90727715D01*
X61158340Y-90751748D01*
X61158340Y-90776252D01*
X61163121Y-90800286D01*
X61172498Y-90822925D01*
X61186112Y-90843299D01*
X61203439Y-90860627D01*
X61223814Y-90874240D01*
X61246453Y-90883618D01*
X61282738Y-90889000D01*
X61511000Y-90889000D01*
X61511000Y-91991000D01*
X60409000Y-91991000D01*
X60409000Y-91762738D01*
X60406598Y-91738352D01*
X60399485Y-91714903D01*
X60387934Y-91693292D01*
X60372388Y-91674350D01*
X60353446Y-91658804D01*
X60331835Y-91647253D01*
X60308386Y-91640140D01*
X60284000Y-91637738D01*
X60259614Y-91640140D01*
X60236165Y-91647253D01*
X60214554Y-91658804D01*
X60195612Y-91674350D01*
X60173764Y-91703808D01*
X60150356Y-91747600D01*
X60081501Y-91831501D01*
X59997600Y-91900356D01*
X59901879Y-91951521D01*
X59798015Y-91983027D01*
X59717067Y-91991000D01*
X59662933Y-91991000D01*
X59581985Y-91983027D01*
X59478121Y-91951521D01*
X59382400Y-91900356D01*
X59298499Y-91831501D01*
X59229644Y-91747600D01*
X59178479Y-91651879D01*
X59174615Y-91639142D01*
X59165240Y-91616507D01*
X59151626Y-91596133D01*
X59134299Y-91578806D01*
X59113924Y-91565192D01*
X59091285Y-91555814D01*
X59067252Y-91551034D01*
X59042748Y-91551034D01*
X59018714Y-91555815D01*
X58996075Y-91565192D01*
X58975701Y-91578806D01*
X58958374Y-91596133D01*
X58944760Y-91616508D01*
X58935385Y-91639142D01*
X58931521Y-91651879D01*
X58880356Y-91747600D01*
X58811501Y-91831501D01*
X58727600Y-91900356D01*
X58631879Y-91951521D01*
X58528015Y-91983027D01*
X58447067Y-91991000D01*
X58392933Y-91991000D01*
X58311985Y-91983027D01*
X58208121Y-91951521D01*
X58112400Y-91900356D01*
X58028499Y-91831501D01*
X57959644Y-91747600D01*
X57908479Y-91651879D01*
X57876973Y-91548015D01*
X57866334Y-91440000D01*
X57876973Y-91331985D01*
X57908479Y-91228121D01*
X57959644Y-91132400D01*
X58028499Y-91048499D01*
X58112400Y-90979644D01*
X58208121Y-90928479D01*
X58220858Y-90924615D01*
X58243493Y-90915240D01*
X58263867Y-90901626D01*
X58281194Y-90884299D01*
X58294808Y-90863924D01*
X58304186Y-90841285D01*
X58308966Y-90817252D01*
X58308966Y-90792748D01*
X58531034Y-90792748D01*
X58531034Y-90817252D01*
X58535815Y-90841286D01*
X58545192Y-90863925D01*
X58558806Y-90884299D01*
X58576133Y-90901626D01*
X58596508Y-90915240D01*
X58619142Y-90924615D01*
X58631879Y-90928479D01*
X58727600Y-90979644D01*
X58811501Y-91048499D01*
X58880356Y-91132400D01*
X58931521Y-91228121D01*
X58935383Y-91240854D01*
X58944760Y-91263493D01*
X58958374Y-91283867D01*
X58975701Y-91301194D01*
X58996076Y-91314808D01*
X59018715Y-91324186D01*
X59042748Y-91328966D01*
X59067252Y-91328966D01*
X59091286Y-91324185D01*
X59113925Y-91314808D01*
X59134299Y-91301194D01*
X59151626Y-91283867D01*
X59165240Y-91263492D01*
X59174617Y-91240854D01*
X59178479Y-91228121D01*
X59229644Y-91132400D01*
X59298499Y-91048499D01*
X59382400Y-90979644D01*
X59478121Y-90928479D01*
X59490858Y-90924615D01*
X59513493Y-90915240D01*
X59533867Y-90901626D01*
X59551194Y-90884299D01*
X59564808Y-90863924D01*
X59574186Y-90841285D01*
X59578966Y-90817252D01*
X59578966Y-90792748D01*
X59801034Y-90792748D01*
X59801034Y-90817252D01*
X59805815Y-90841286D01*
X59815192Y-90863925D01*
X59828806Y-90884299D01*
X59846133Y-90901626D01*
X59866508Y-90915240D01*
X59889142Y-90924615D01*
X59901879Y-90928479D01*
X59997600Y-90979644D01*
X60081501Y-91048499D01*
X60150356Y-91132400D01*
X60173766Y-91176195D01*
X60187374Y-91196561D01*
X60204701Y-91213889D01*
X60225076Y-91227502D01*
X60247715Y-91236880D01*
X60271748Y-91241660D01*
X60296252Y-91241660D01*
X60320286Y-91236879D01*
X60342925Y-91227502D01*
X60363299Y-91213888D01*
X60380627Y-91196561D01*
X60394240Y-91176186D01*
X60403618Y-91153547D01*
X60409000Y-91117262D01*
X60409000Y-90889000D01*
X60637262Y-90889000D01*
X60661648Y-90886598D01*
X60685097Y-90879485D01*
X60706708Y-90867934D01*
X60725650Y-90852388D01*
X60741196Y-90833446D01*
X60752747Y-90811835D01*
X60759860Y-90788386D01*
X60762262Y-90764000D01*
X60759860Y-90739614D01*
X60752747Y-90716165D01*
X60741196Y-90694554D01*
X60725650Y-90675612D01*
X60696192Y-90653764D01*
X60652400Y-90630356D01*
X60568499Y-90561501D01*
X60499644Y-90477600D01*
X60448479Y-90381879D01*
X60444615Y-90369142D01*
X60435240Y-90346507D01*
X60421626Y-90326133D01*
X60404299Y-90308806D01*
X60383924Y-90295192D01*
X60361285Y-90285814D01*
X60337252Y-90281034D01*
X60312748Y-90281034D01*
X60288714Y-90285815D01*
X60266075Y-90295192D01*
X60245701Y-90308806D01*
X60228374Y-90326133D01*
X60214760Y-90346508D01*
X60205385Y-90369142D01*
X60201521Y-90381879D01*
X60150356Y-90477600D01*
X60081501Y-90561501D01*
X59997600Y-90630356D01*
X59901879Y-90681521D01*
X59889142Y-90685385D01*
X59866507Y-90694760D01*
X59846133Y-90708374D01*
X59828806Y-90725701D01*
X59815192Y-90746076D01*
X59805814Y-90768715D01*
X59801034Y-90792748D01*
X59578966Y-90792748D01*
X59574185Y-90768714D01*
X59564808Y-90746075D01*
X59551194Y-90725701D01*
X59533867Y-90708374D01*
X59513492Y-90694760D01*
X59490858Y-90685385D01*
X59478121Y-90681521D01*
X59382400Y-90630356D01*
X59298499Y-90561501D01*
X59229644Y-90477600D01*
X59178479Y-90381879D01*
X59174615Y-90369142D01*
X59165240Y-90346507D01*
X59151626Y-90326133D01*
X59134299Y-90308806D01*
X59113924Y-90295192D01*
X59091285Y-90285814D01*
X59067252Y-90281034D01*
X59042748Y-90281034D01*
X59018714Y-90285815D01*
X58996075Y-90295192D01*
X58975701Y-90308806D01*
X58958374Y-90326133D01*
X58944760Y-90346508D01*
X58935385Y-90369142D01*
X58931521Y-90381879D01*
X58880356Y-90477600D01*
X58811501Y-90561501D01*
X58727600Y-90630356D01*
X58631879Y-90681521D01*
X58619142Y-90685385D01*
X58596507Y-90694760D01*
X58576133Y-90708374D01*
X58558806Y-90725701D01*
X58545192Y-90746076D01*
X58535814Y-90768715D01*
X58531034Y-90792748D01*
X58308966Y-90792748D01*
X58304185Y-90768714D01*
X58294808Y-90746075D01*
X58281194Y-90725701D01*
X58263867Y-90708374D01*
X58243492Y-90694760D01*
X58220858Y-90685385D01*
X58208121Y-90681521D01*
X58112400Y-90630356D01*
X58028499Y-90561501D01*
X57959644Y-90477600D01*
X57908479Y-90381879D01*
X57876973Y-90278015D01*
X57866334Y-90170000D01*
X57876973Y-90061985D01*
X57908479Y-89958121D01*
X57959644Y-89862400D01*
X58028499Y-89778499D01*
X58112400Y-89709644D01*
X58208121Y-89658479D01*
X58311985Y-89626973D01*
X58392933Y-89619000D01*
X58447067Y-89619000D01*
X58528015Y-89626973D01*
X58528015Y-89626973D01*
G37*
G36*
X78450677Y-89931465D02*
X78488364Y-89942898D01*
X78523103Y-89961466D01*
X78553548Y-89986452D01*
X78578534Y-90016897D01*
X78597102Y-90051636D01*
X78608535Y-90089323D01*
X78613000Y-90134661D01*
X78613000Y-91221339D01*
X78608535Y-91266677D01*
X78597102Y-91304364D01*
X78578534Y-91339103D01*
X78553548Y-91369548D01*
X78523103Y-91394534D01*
X78488364Y-91413102D01*
X78450677Y-91424535D01*
X78405339Y-91429000D01*
X77568661Y-91429000D01*
X77523323Y-91424535D01*
X77485636Y-91413102D01*
X77450897Y-91394534D01*
X77420452Y-91369548D01*
X77395466Y-91339103D01*
X77376898Y-91304364D01*
X77365465Y-91266677D01*
X77361000Y-91221339D01*
X77361000Y-90134661D01*
X77365465Y-90089323D01*
X77376898Y-90051636D01*
X77395466Y-90016897D01*
X77420452Y-89986452D01*
X77450897Y-89961466D01*
X77485636Y-89942898D01*
X77523323Y-89931465D01*
X77568661Y-89927000D01*
X78405339Y-89927000D01*
X78450677Y-89931465D01*
X78450677Y-89931465D01*
G37*
G36*
X76400677Y-89931465D02*
X76438364Y-89942898D01*
X76473103Y-89961466D01*
X76503548Y-89986452D01*
X76528534Y-90016897D01*
X76547102Y-90051636D01*
X76558535Y-90089323D01*
X76563000Y-90134661D01*
X76563000Y-91221339D01*
X76558535Y-91266677D01*
X76547102Y-91304364D01*
X76528534Y-91339103D01*
X76503548Y-91369548D01*
X76473103Y-91394534D01*
X76438364Y-91413102D01*
X76400677Y-91424535D01*
X76355339Y-91429000D01*
X75518661Y-91429000D01*
X75473323Y-91424535D01*
X75435636Y-91413102D01*
X75400897Y-91394534D01*
X75370452Y-91369548D01*
X75345466Y-91339103D01*
X75326898Y-91304364D01*
X75315465Y-91266677D01*
X75311000Y-91221339D01*
X75311000Y-90134661D01*
X75315465Y-90089323D01*
X75326898Y-90051636D01*
X75345466Y-90016897D01*
X75370452Y-89986452D01*
X75400897Y-89961466D01*
X75435636Y-89942898D01*
X75473323Y-89931465D01*
X75518661Y-89927000D01*
X76355339Y-89927000D01*
X76400677Y-89931465D01*
X76400677Y-89931465D01*
G37*
G36*
X73624677Y-88153465D02*
X73662364Y-88164898D01*
X73697103Y-88183466D01*
X73727548Y-88208452D01*
X73752534Y-88238897D01*
X73771102Y-88273636D01*
X73782535Y-88311323D01*
X73787000Y-88356661D01*
X73787000Y-89443339D01*
X73782535Y-89488677D01*
X73771102Y-89526364D01*
X73752534Y-89561103D01*
X73727548Y-89591548D01*
X73697103Y-89616534D01*
X73662364Y-89635102D01*
X73624677Y-89646535D01*
X73579339Y-89651000D01*
X72742661Y-89651000D01*
X72697323Y-89646535D01*
X72659636Y-89635102D01*
X72624897Y-89616534D01*
X72594452Y-89591548D01*
X72569466Y-89561103D01*
X72550898Y-89526364D01*
X72539465Y-89488677D01*
X72535000Y-89443339D01*
X72535000Y-88356661D01*
X72539465Y-88311323D01*
X72550898Y-88273636D01*
X72569466Y-88238897D01*
X72594452Y-88208452D01*
X72624897Y-88183466D01*
X72659636Y-88164898D01*
X72697323Y-88153465D01*
X72742661Y-88149000D01*
X73579339Y-88149000D01*
X73624677Y-88153465D01*
X73624677Y-88153465D01*
G37*
G36*
X71574677Y-88153465D02*
X71612364Y-88164898D01*
X71647103Y-88183466D01*
X71677548Y-88208452D01*
X71702534Y-88238897D01*
X71721102Y-88273636D01*
X71732535Y-88311323D01*
X71737000Y-88356661D01*
X71737000Y-89443339D01*
X71732535Y-89488677D01*
X71721102Y-89526364D01*
X71702534Y-89561103D01*
X71677548Y-89591548D01*
X71647103Y-89616534D01*
X71612364Y-89635102D01*
X71574677Y-89646535D01*
X71529339Y-89651000D01*
X70692661Y-89651000D01*
X70647323Y-89646535D01*
X70609636Y-89635102D01*
X70574897Y-89616534D01*
X70544452Y-89591548D01*
X70519466Y-89561103D01*
X70500898Y-89526364D01*
X70489465Y-89488677D01*
X70485000Y-89443339D01*
X70485000Y-88356661D01*
X70489465Y-88311323D01*
X70500898Y-88273636D01*
X70519466Y-88238897D01*
X70544452Y-88208452D01*
X70574897Y-88183466D01*
X70609636Y-88164898D01*
X70647323Y-88153465D01*
X70692661Y-88149000D01*
X71529339Y-88149000D01*
X71574677Y-88153465D01*
X71574677Y-88153465D01*
G37*
G36*
X66512677Y-87645465D02*
X66550364Y-87656898D01*
X66585103Y-87675466D01*
X66615548Y-87700452D01*
X66640534Y-87730897D01*
X66659102Y-87765636D01*
X66670535Y-87803323D01*
X66675000Y-87848661D01*
X66675000Y-88935339D01*
X66670535Y-88980677D01*
X66659102Y-89018364D01*
X66640534Y-89053103D01*
X66615548Y-89083548D01*
X66585103Y-89108534D01*
X66550364Y-89127102D01*
X66512677Y-89138535D01*
X66467339Y-89143000D01*
X65630661Y-89143000D01*
X65585323Y-89138535D01*
X65547636Y-89127102D01*
X65512897Y-89108534D01*
X65482452Y-89083548D01*
X65457466Y-89053103D01*
X65438898Y-89018364D01*
X65427465Y-88980677D01*
X65423000Y-88935339D01*
X65423000Y-87848661D01*
X65427465Y-87803323D01*
X65438898Y-87765636D01*
X65457466Y-87730897D01*
X65482452Y-87700452D01*
X65512897Y-87675466D01*
X65547636Y-87656898D01*
X65585323Y-87645465D01*
X65630661Y-87641000D01*
X66467339Y-87641000D01*
X66512677Y-87645465D01*
X66512677Y-87645465D01*
G37*
G36*
X64462677Y-87645465D02*
X64500364Y-87656898D01*
X64535103Y-87675466D01*
X64565548Y-87700452D01*
X64590534Y-87730897D01*
X64609102Y-87765636D01*
X64620535Y-87803323D01*
X64625000Y-87848661D01*
X64625000Y-88935339D01*
X64620535Y-88980677D01*
X64609102Y-89018364D01*
X64590534Y-89053103D01*
X64565548Y-89083548D01*
X64535103Y-89108534D01*
X64500364Y-89127102D01*
X64462677Y-89138535D01*
X64417339Y-89143000D01*
X63580661Y-89143000D01*
X63535323Y-89138535D01*
X63497636Y-89127102D01*
X63462897Y-89108534D01*
X63432452Y-89083548D01*
X63407466Y-89053103D01*
X63388898Y-89018364D01*
X63377465Y-88980677D01*
X63373000Y-88935339D01*
X63373000Y-87848661D01*
X63377465Y-87803323D01*
X63388898Y-87765636D01*
X63407466Y-87730897D01*
X63432452Y-87700452D01*
X63462897Y-87675466D01*
X63497636Y-87656898D01*
X63535323Y-87645465D01*
X63580661Y-87641000D01*
X64417339Y-87641000D01*
X64462677Y-87645465D01*
X64462677Y-87645465D01*
G37*
G36*
X52143677Y-86883465D02*
X52181364Y-86894898D01*
X52216103Y-86913466D01*
X52246548Y-86938452D01*
X52271534Y-86968897D01*
X52290102Y-87003636D01*
X52301535Y-87041323D01*
X52306000Y-87086661D01*
X52306000Y-88173339D01*
X52301535Y-88218677D01*
X52290102Y-88256364D01*
X52271534Y-88291103D01*
X52246548Y-88321548D01*
X52216103Y-88346534D01*
X52181364Y-88365102D01*
X52143677Y-88376535D01*
X52098339Y-88381000D01*
X51261661Y-88381000D01*
X51216323Y-88376535D01*
X51178636Y-88365102D01*
X51143897Y-88346534D01*
X51113452Y-88321548D01*
X51088466Y-88291103D01*
X51069898Y-88256364D01*
X51058465Y-88218677D01*
X51054000Y-88173339D01*
X51054000Y-87086661D01*
X51058465Y-87041323D01*
X51069898Y-87003636D01*
X51088466Y-86968897D01*
X51113452Y-86938452D01*
X51143897Y-86913466D01*
X51178636Y-86894898D01*
X51216323Y-86883465D01*
X51261661Y-86879000D01*
X52098339Y-86879000D01*
X52143677Y-86883465D01*
X52143677Y-86883465D01*
G37*
G36*
X54193677Y-86883465D02*
X54231364Y-86894898D01*
X54266103Y-86913466D01*
X54296548Y-86938452D01*
X54321534Y-86968897D01*
X54340102Y-87003636D01*
X54351535Y-87041323D01*
X54356000Y-87086661D01*
X54356000Y-88173339D01*
X54351535Y-88218677D01*
X54340102Y-88256364D01*
X54321534Y-88291103D01*
X54296548Y-88321548D01*
X54266103Y-88346534D01*
X54231364Y-88365102D01*
X54193677Y-88376535D01*
X54148339Y-88381000D01*
X53311661Y-88381000D01*
X53266323Y-88376535D01*
X53228636Y-88365102D01*
X53193897Y-88346534D01*
X53163452Y-88321548D01*
X53138466Y-88291103D01*
X53119898Y-88256364D01*
X53108465Y-88218677D01*
X53104000Y-88173339D01*
X53104000Y-87086661D01*
X53108465Y-87041323D01*
X53119898Y-87003636D01*
X53138466Y-86968897D01*
X53163452Y-86938452D01*
X53193897Y-86913466D01*
X53228636Y-86894898D01*
X53266323Y-86883465D01*
X53311661Y-86879000D01*
X54148339Y-86879000D01*
X54193677Y-86883465D01*
X54193677Y-86883465D01*
G37*
G36*
X76400677Y-86629465D02*
X76438364Y-86640898D01*
X76473103Y-86659466D01*
X76503548Y-86684452D01*
X76528534Y-86714897D01*
X76547102Y-86749636D01*
X76558535Y-86787323D01*
X76563000Y-86832661D01*
X76563000Y-87919339D01*
X76558535Y-87964677D01*
X76547102Y-88002364D01*
X76528534Y-88037103D01*
X76503548Y-88067548D01*
X76473103Y-88092534D01*
X76438364Y-88111102D01*
X76400677Y-88122535D01*
X76355339Y-88127000D01*
X75518661Y-88127000D01*
X75473323Y-88122535D01*
X75435636Y-88111102D01*
X75400897Y-88092534D01*
X75370452Y-88067548D01*
X75345466Y-88037103D01*
X75326898Y-88002364D01*
X75315465Y-87964677D01*
X75311000Y-87919339D01*
X75311000Y-86832661D01*
X75315465Y-86787323D01*
X75326898Y-86749636D01*
X75345466Y-86714897D01*
X75370452Y-86684452D01*
X75400897Y-86659466D01*
X75435636Y-86640898D01*
X75473323Y-86629465D01*
X75518661Y-86625000D01*
X76355339Y-86625000D01*
X76400677Y-86629465D01*
X76400677Y-86629465D01*
G37*
G36*
X78450677Y-86629465D02*
X78488364Y-86640898D01*
X78523103Y-86659466D01*
X78553548Y-86684452D01*
X78578534Y-86714897D01*
X78597102Y-86749636D01*
X78608535Y-86787323D01*
X78613000Y-86832661D01*
X78613000Y-87919339D01*
X78608535Y-87964677D01*
X78597102Y-88002364D01*
X78578534Y-88037103D01*
X78553548Y-88067548D01*
X78523103Y-88092534D01*
X78488364Y-88111102D01*
X78450677Y-88122535D01*
X78405339Y-88127000D01*
X77568661Y-88127000D01*
X77523323Y-88122535D01*
X77485636Y-88111102D01*
X77450897Y-88092534D01*
X77420452Y-88067548D01*
X77395466Y-88037103D01*
X77376898Y-88002364D01*
X77365465Y-87964677D01*
X77361000Y-87919339D01*
X77361000Y-86832661D01*
X77365465Y-86787323D01*
X77376898Y-86749636D01*
X77395466Y-86714897D01*
X77420452Y-86684452D01*
X77450897Y-86659466D01*
X77485636Y-86640898D01*
X77523323Y-86629465D01*
X77568661Y-86625000D01*
X78405339Y-86625000D01*
X78450677Y-86629465D01*
X78450677Y-86629465D01*
G37*
G36*
X82260677Y-85359465D02*
X82298364Y-85370898D01*
X82333103Y-85389466D01*
X82363548Y-85414452D01*
X82388534Y-85444897D01*
X82407102Y-85479636D01*
X82418535Y-85517323D01*
X82423000Y-85562661D01*
X82423000Y-86649339D01*
X82418535Y-86694677D01*
X82407102Y-86732364D01*
X82388534Y-86767103D01*
X82363548Y-86797548D01*
X82333103Y-86822534D01*
X82298364Y-86841102D01*
X82260677Y-86852535D01*
X82215339Y-86857000D01*
X81378661Y-86857000D01*
X81333323Y-86852535D01*
X81295636Y-86841102D01*
X81260897Y-86822534D01*
X81230452Y-86797548D01*
X81205466Y-86767103D01*
X81186898Y-86732364D01*
X81175465Y-86694677D01*
X81171000Y-86649339D01*
X81171000Y-85562661D01*
X81175465Y-85517323D01*
X81186898Y-85479636D01*
X81205466Y-85444897D01*
X81230452Y-85414452D01*
X81260897Y-85389466D01*
X81295636Y-85370898D01*
X81333323Y-85359465D01*
X81378661Y-85355000D01*
X82215339Y-85355000D01*
X82260677Y-85359465D01*
X82260677Y-85359465D01*
G37*
G36*
X80210677Y-85359465D02*
X80248364Y-85370898D01*
X80283103Y-85389466D01*
X80313548Y-85414452D01*
X80338534Y-85444897D01*
X80357102Y-85479636D01*
X80368535Y-85517323D01*
X80373000Y-85562661D01*
X80373000Y-86649339D01*
X80368535Y-86694677D01*
X80357102Y-86732364D01*
X80338534Y-86767103D01*
X80313548Y-86797548D01*
X80283103Y-86822534D01*
X80248364Y-86841102D01*
X80210677Y-86852535D01*
X80165339Y-86857000D01*
X79328661Y-86857000D01*
X79283323Y-86852535D01*
X79245636Y-86841102D01*
X79210897Y-86822534D01*
X79180452Y-86797548D01*
X79155466Y-86767103D01*
X79136898Y-86732364D01*
X79125465Y-86694677D01*
X79121000Y-86649339D01*
X79121000Y-85562661D01*
X79125465Y-85517323D01*
X79136898Y-85479636D01*
X79155466Y-85444897D01*
X79180452Y-85414452D01*
X79210897Y-85389466D01*
X79245636Y-85370898D01*
X79283323Y-85359465D01*
X79328661Y-85355000D01*
X80165339Y-85355000D01*
X80210677Y-85359465D01*
X80210677Y-85359465D01*
G37*
G36*
X72906000Y-85241000D02*
X64254000Y-85241000D01*
X64254000Y-83639000D01*
X72906000Y-83639000D01*
X72906000Y-85241000D01*
X72906000Y-85241000D01*
G37*
G36*
X53361790Y-84361220D02*
X51860250Y-84361220D01*
X51860250Y-81957980D01*
X53361790Y-81957980D01*
X53361790Y-84361220D01*
X53361790Y-84361220D01*
G37*
G36*
X57362290Y-84361220D02*
X55860750Y-84361220D01*
X55860750Y-81957980D01*
X57362290Y-81957980D01*
X57362290Y-84361220D01*
X57362290Y-84361220D01*
G37*
G36*
X75081000Y-83066000D02*
X73479000Y-83066000D01*
X73479000Y-74414000D01*
X75081000Y-74414000D01*
X75081000Y-83066000D01*
X75081000Y-83066000D01*
G37*
G36*
X63681000Y-83066000D02*
X62079000Y-83066000D01*
X62079000Y-74414000D01*
X63681000Y-74414000D01*
X63681000Y-83066000D01*
X63681000Y-83066000D01*
G37*
G36*
X81259643Y-80055781D02*
X81405415Y-80116162D01*
X81536611Y-80203824D01*
X81648176Y-80315389D01*
X81735838Y-80446585D01*
X81796219Y-80592357D01*
X81827000Y-80747107D01*
X81827000Y-80904893D01*
X81796219Y-81059643D01*
X81735838Y-81205415D01*
X81648176Y-81336611D01*
X81536611Y-81448176D01*
X81405415Y-81535838D01*
X81259643Y-81596219D01*
X81104893Y-81627000D01*
X80947107Y-81627000D01*
X80792357Y-81596219D01*
X80646585Y-81535838D01*
X80515389Y-81448176D01*
X80403824Y-81336611D01*
X80316162Y-81205415D01*
X80255781Y-81059643D01*
X80225000Y-80904893D01*
X80225000Y-80747107D01*
X80255781Y-80592357D01*
X80316162Y-80446585D01*
X80403824Y-80315389D01*
X80515389Y-80203824D01*
X80646585Y-80116162D01*
X80792357Y-80055781D01*
X80947107Y-80025000D01*
X81104893Y-80025000D01*
X81259643Y-80055781D01*
X81259643Y-80055781D01*
G37*
G36*
X57359750Y-78062020D02*
X55858210Y-78062020D01*
X55858210Y-75658780D01*
X57359750Y-75658780D01*
X57359750Y-78062020D01*
X57359750Y-78062020D01*
G37*
G36*
X53361790Y-78062020D02*
X51860250Y-78062020D01*
X51860250Y-75658780D01*
X53361790Y-75658780D01*
X53361790Y-78062020D01*
X53361790Y-78062020D01*
G37*
G36*
X81259643Y-75175781D02*
X81405415Y-75236162D01*
X81536611Y-75323824D01*
X81648176Y-75435389D01*
X81735838Y-75566585D01*
X81796219Y-75712357D01*
X81827000Y-75867107D01*
X81827000Y-76024893D01*
X81796219Y-76179643D01*
X81735838Y-76325415D01*
X81648176Y-76456611D01*
X81536611Y-76568176D01*
X81405415Y-76655838D01*
X81259643Y-76716219D01*
X81104893Y-76747000D01*
X80947107Y-76747000D01*
X80792357Y-76716219D01*
X80646585Y-76655838D01*
X80515389Y-76568176D01*
X80403824Y-76456611D01*
X80316162Y-76325415D01*
X80255781Y-76179643D01*
X80225000Y-76024893D01*
X80225000Y-75867107D01*
X80255781Y-75712357D01*
X80316162Y-75566585D01*
X80403824Y-75435389D01*
X80515389Y-75323824D01*
X80646585Y-75236162D01*
X80792357Y-75175781D01*
X80947107Y-75145000D01*
X81104893Y-75145000D01*
X81259643Y-75175781D01*
X81259643Y-75175781D01*
G37*
G36*
X105264015Y-73878973D02*
X105367879Y-73910479D01*
X105463600Y-73961644D01*
X105547501Y-74030499D01*
X105616356Y-74114400D01*
X105667521Y-74210121D01*
X105671383Y-74222854D01*
X105680760Y-74245493D01*
X105694374Y-74265867D01*
X105711701Y-74283194D01*
X105732076Y-74296808D01*
X105754715Y-74306186D01*
X105778748Y-74310966D01*
X105803252Y-74310966D01*
X105827286Y-74306185D01*
X105849925Y-74296808D01*
X105870299Y-74283194D01*
X105887626Y-74265867D01*
X105901240Y-74245492D01*
X105910617Y-74222854D01*
X105914479Y-74210121D01*
X105965644Y-74114400D01*
X106034499Y-74030499D01*
X106118400Y-73961644D01*
X106214121Y-73910479D01*
X106317985Y-73878973D01*
X106398933Y-73871000D01*
X106453067Y-73871000D01*
X106534015Y-73878973D01*
X106637879Y-73910479D01*
X106733600Y-73961644D01*
X106817501Y-74030499D01*
X106886356Y-74114400D01*
X106937521Y-74210121D01*
X106941383Y-74222854D01*
X106950760Y-74245493D01*
X106964374Y-74265867D01*
X106981701Y-74283194D01*
X107002076Y-74296808D01*
X107024715Y-74306186D01*
X107048748Y-74310966D01*
X107073252Y-74310966D01*
X107097286Y-74306185D01*
X107119925Y-74296808D01*
X107140299Y-74283194D01*
X107157626Y-74265867D01*
X107171240Y-74245492D01*
X107180617Y-74222854D01*
X107184479Y-74210121D01*
X107235644Y-74114400D01*
X107304499Y-74030499D01*
X107388400Y-73961644D01*
X107484121Y-73910479D01*
X107587985Y-73878973D01*
X107668933Y-73871000D01*
X107723067Y-73871000D01*
X107804015Y-73878973D01*
X107907879Y-73910479D01*
X108003600Y-73961644D01*
X108087501Y-74030499D01*
X108156356Y-74114400D01*
X108207521Y-74210121D01*
X108239027Y-74313985D01*
X108249666Y-74422000D01*
X108239027Y-74530015D01*
X108207521Y-74633879D01*
X108156356Y-74729600D01*
X108087501Y-74813501D01*
X108003600Y-74882356D01*
X107959805Y-74905766D01*
X107939439Y-74919374D01*
X107922111Y-74936701D01*
X107908498Y-74957076D01*
X107899120Y-74979715D01*
X107894340Y-75003748D01*
X107894340Y-75028252D01*
X107899121Y-75052286D01*
X107908498Y-75074925D01*
X107922112Y-75095299D01*
X107939439Y-75112627D01*
X107959814Y-75126240D01*
X107982453Y-75135618D01*
X108018738Y-75141000D01*
X108247000Y-75141000D01*
X108247000Y-76243000D01*
X107145000Y-76243000D01*
X107145000Y-76014738D01*
X107142598Y-75990352D01*
X107135485Y-75966903D01*
X107123934Y-75945292D01*
X107108388Y-75926350D01*
X107089446Y-75910804D01*
X107067835Y-75899253D01*
X107044386Y-75892140D01*
X107020000Y-75889738D01*
X106995614Y-75892140D01*
X106972165Y-75899253D01*
X106950554Y-75910804D01*
X106931612Y-75926350D01*
X106909764Y-75955808D01*
X106886356Y-75999600D01*
X106817501Y-76083501D01*
X106733600Y-76152356D01*
X106637879Y-76203521D01*
X106534015Y-76235027D01*
X106453067Y-76243000D01*
X106398933Y-76243000D01*
X106317985Y-76235027D01*
X106214121Y-76203521D01*
X106118400Y-76152356D01*
X106034499Y-76083501D01*
X105965644Y-75999600D01*
X105914479Y-75903879D01*
X105910615Y-75891142D01*
X105901240Y-75868507D01*
X105887626Y-75848133D01*
X105870299Y-75830806D01*
X105849924Y-75817192D01*
X105827285Y-75807814D01*
X105803252Y-75803034D01*
X105778748Y-75803034D01*
X105754714Y-75807815D01*
X105732075Y-75817192D01*
X105711701Y-75830806D01*
X105694374Y-75848133D01*
X105680760Y-75868508D01*
X105671385Y-75891142D01*
X105667521Y-75903879D01*
X105616356Y-75999600D01*
X105547501Y-76083501D01*
X105463600Y-76152356D01*
X105367879Y-76203521D01*
X105264015Y-76235027D01*
X105183067Y-76243000D01*
X105128933Y-76243000D01*
X105047985Y-76235027D01*
X104944121Y-76203521D01*
X104848400Y-76152356D01*
X104764499Y-76083501D01*
X104695644Y-75999600D01*
X104644479Y-75903879D01*
X104612973Y-75800015D01*
X104602334Y-75692000D01*
X104612973Y-75583985D01*
X104644479Y-75480121D01*
X104695644Y-75384400D01*
X104764499Y-75300499D01*
X104848400Y-75231644D01*
X104944121Y-75180479D01*
X104956858Y-75176615D01*
X104979493Y-75167240D01*
X104999867Y-75153626D01*
X105017194Y-75136299D01*
X105030808Y-75115924D01*
X105040186Y-75093285D01*
X105044966Y-75069252D01*
X105044966Y-75044748D01*
X105267034Y-75044748D01*
X105267034Y-75069252D01*
X105271815Y-75093286D01*
X105281192Y-75115925D01*
X105294806Y-75136299D01*
X105312133Y-75153626D01*
X105332508Y-75167240D01*
X105355142Y-75176615D01*
X105367879Y-75180479D01*
X105463600Y-75231644D01*
X105547501Y-75300499D01*
X105616356Y-75384400D01*
X105667521Y-75480121D01*
X105671383Y-75492854D01*
X105680760Y-75515493D01*
X105694374Y-75535867D01*
X105711701Y-75553194D01*
X105732076Y-75566808D01*
X105754715Y-75576186D01*
X105778748Y-75580966D01*
X105803252Y-75580966D01*
X105827286Y-75576185D01*
X105849925Y-75566808D01*
X105870299Y-75553194D01*
X105887626Y-75535867D01*
X105901240Y-75515492D01*
X105910617Y-75492854D01*
X105914479Y-75480121D01*
X105965644Y-75384400D01*
X106034499Y-75300499D01*
X106118400Y-75231644D01*
X106214121Y-75180479D01*
X106226858Y-75176615D01*
X106249493Y-75167240D01*
X106269867Y-75153626D01*
X106287194Y-75136299D01*
X106300808Y-75115924D01*
X106310186Y-75093285D01*
X106314966Y-75069252D01*
X106314966Y-75044748D01*
X106537034Y-75044748D01*
X106537034Y-75069252D01*
X106541815Y-75093286D01*
X106551192Y-75115925D01*
X106564806Y-75136299D01*
X106582133Y-75153626D01*
X106602508Y-75167240D01*
X106625142Y-75176615D01*
X106637879Y-75180479D01*
X106733600Y-75231644D01*
X106817501Y-75300499D01*
X106886356Y-75384400D01*
X106909766Y-75428195D01*
X106923374Y-75448561D01*
X106940701Y-75465889D01*
X106961076Y-75479502D01*
X106983715Y-75488880D01*
X107007748Y-75493660D01*
X107032252Y-75493660D01*
X107056286Y-75488879D01*
X107078925Y-75479502D01*
X107099299Y-75465888D01*
X107116627Y-75448561D01*
X107130240Y-75428186D01*
X107139618Y-75405547D01*
X107145000Y-75369262D01*
X107145000Y-75141000D01*
X107373262Y-75141000D01*
X107397648Y-75138598D01*
X107421097Y-75131485D01*
X107442708Y-75119934D01*
X107461650Y-75104388D01*
X107477196Y-75085446D01*
X107488747Y-75063835D01*
X107495860Y-75040386D01*
X107498262Y-75016000D01*
X107495860Y-74991614D01*
X107488747Y-74968165D01*
X107477196Y-74946554D01*
X107461650Y-74927612D01*
X107432192Y-74905764D01*
X107388400Y-74882356D01*
X107304499Y-74813501D01*
X107235644Y-74729600D01*
X107184479Y-74633879D01*
X107180615Y-74621142D01*
X107171240Y-74598507D01*
X107157626Y-74578133D01*
X107140299Y-74560806D01*
X107119924Y-74547192D01*
X107097285Y-74537814D01*
X107073252Y-74533034D01*
X107048748Y-74533034D01*
X107024714Y-74537815D01*
X107002075Y-74547192D01*
X106981701Y-74560806D01*
X106964374Y-74578133D01*
X106950760Y-74598508D01*
X106941385Y-74621142D01*
X106937521Y-74633879D01*
X106886356Y-74729600D01*
X106817501Y-74813501D01*
X106733600Y-74882356D01*
X106637879Y-74933521D01*
X106625142Y-74937385D01*
X106602507Y-74946760D01*
X106582133Y-74960374D01*
X106564806Y-74977701D01*
X106551192Y-74998076D01*
X106541814Y-75020715D01*
X106537034Y-75044748D01*
X106314966Y-75044748D01*
X106310185Y-75020714D01*
X106300808Y-74998075D01*
X106287194Y-74977701D01*
X106269867Y-74960374D01*
X106249492Y-74946760D01*
X106226858Y-74937385D01*
X106214121Y-74933521D01*
X106118400Y-74882356D01*
X106034499Y-74813501D01*
X105965644Y-74729600D01*
X105914479Y-74633879D01*
X105910615Y-74621142D01*
X105901240Y-74598507D01*
X105887626Y-74578133D01*
X105870299Y-74560806D01*
X105849924Y-74547192D01*
X105827285Y-74537814D01*
X105803252Y-74533034D01*
X105778748Y-74533034D01*
X105754714Y-74537815D01*
X105732075Y-74547192D01*
X105711701Y-74560806D01*
X105694374Y-74578133D01*
X105680760Y-74598508D01*
X105671385Y-74621142D01*
X105667521Y-74633879D01*
X105616356Y-74729600D01*
X105547501Y-74813501D01*
X105463600Y-74882356D01*
X105367879Y-74933521D01*
X105355142Y-74937385D01*
X105332507Y-74946760D01*
X105312133Y-74960374D01*
X105294806Y-74977701D01*
X105281192Y-74998076D01*
X105271814Y-75020715D01*
X105267034Y-75044748D01*
X105044966Y-75044748D01*
X105040185Y-75020714D01*
X105030808Y-74998075D01*
X105017194Y-74977701D01*
X104999867Y-74960374D01*
X104979492Y-74946760D01*
X104956858Y-74937385D01*
X104944121Y-74933521D01*
X104848400Y-74882356D01*
X104764499Y-74813501D01*
X104695644Y-74729600D01*
X104644479Y-74633879D01*
X104612973Y-74530015D01*
X104602334Y-74422000D01*
X104612973Y-74313985D01*
X104644479Y-74210121D01*
X104695644Y-74114400D01*
X104764499Y-74030499D01*
X104848400Y-73961644D01*
X104944121Y-73910479D01*
X105047985Y-73878973D01*
X105128933Y-73871000D01*
X105183067Y-73871000D01*
X105264015Y-73878973D01*
X105264015Y-73878973D01*
G37*
G36*
X72906000Y-73841000D02*
X64254000Y-73841000D01*
X64254000Y-72239000D01*
X72906000Y-72239000D01*
X72906000Y-73841000D01*
X72906000Y-73841000D01*
G37*
G36*
X55198677Y-71523465D02*
X55236364Y-71534898D01*
X55271103Y-71553466D01*
X55301548Y-71578452D01*
X55326534Y-71608897D01*
X55345102Y-71643636D01*
X55356535Y-71681323D01*
X55361000Y-71726661D01*
X55361000Y-72563339D01*
X55356535Y-72608677D01*
X55345102Y-72646364D01*
X55326534Y-72681103D01*
X55301548Y-72711548D01*
X55271103Y-72736534D01*
X55236364Y-72755102D01*
X55198677Y-72766535D01*
X55153339Y-72771000D01*
X54066661Y-72771000D01*
X54021323Y-72766535D01*
X53983636Y-72755102D01*
X53948897Y-72736534D01*
X53918452Y-72711548D01*
X53893466Y-72681103D01*
X53874898Y-72646364D01*
X53863465Y-72608677D01*
X53859000Y-72563339D01*
X53859000Y-71726661D01*
X53863465Y-71681323D01*
X53874898Y-71643636D01*
X53893466Y-71608897D01*
X53918452Y-71578452D01*
X53948897Y-71553466D01*
X53983636Y-71534898D01*
X54021323Y-71523465D01*
X54066661Y-71519000D01*
X55153339Y-71519000D01*
X55198677Y-71523465D01*
X55198677Y-71523465D01*
G37*
G36*
X51388677Y-71523465D02*
X51426364Y-71534898D01*
X51461103Y-71553466D01*
X51491548Y-71578452D01*
X51516534Y-71608897D01*
X51535102Y-71643636D01*
X51546535Y-71681323D01*
X51551000Y-71726661D01*
X51551000Y-72563339D01*
X51546535Y-72608677D01*
X51535102Y-72646364D01*
X51516534Y-72681103D01*
X51491548Y-72711548D01*
X51461103Y-72736534D01*
X51426364Y-72755102D01*
X51388677Y-72766535D01*
X51343339Y-72771000D01*
X50256661Y-72771000D01*
X50211323Y-72766535D01*
X50173636Y-72755102D01*
X50138897Y-72736534D01*
X50108452Y-72711548D01*
X50083466Y-72681103D01*
X50064898Y-72646364D01*
X50053465Y-72608677D01*
X50049000Y-72563339D01*
X50049000Y-71726661D01*
X50053465Y-71681323D01*
X50064898Y-71643636D01*
X50083466Y-71608897D01*
X50108452Y-71578452D01*
X50138897Y-71553466D01*
X50173636Y-71534898D01*
X50211323Y-71523465D01*
X50256661Y-71519000D01*
X51343339Y-71519000D01*
X51388677Y-71523465D01*
X51388677Y-71523465D01*
G37*
G36*
X59008677Y-71523465D02*
X59046364Y-71534898D01*
X59081103Y-71553466D01*
X59111548Y-71578452D01*
X59136534Y-71608897D01*
X59155102Y-71643636D01*
X59166535Y-71681323D01*
X59171000Y-71726661D01*
X59171000Y-72563339D01*
X59166535Y-72608677D01*
X59155102Y-72646364D01*
X59136534Y-72681103D01*
X59111548Y-72711548D01*
X59081103Y-72736534D01*
X59046364Y-72755102D01*
X59008677Y-72766535D01*
X58963339Y-72771000D01*
X57876661Y-72771000D01*
X57831323Y-72766535D01*
X57793636Y-72755102D01*
X57758897Y-72736534D01*
X57728452Y-72711548D01*
X57703466Y-72681103D01*
X57684898Y-72646364D01*
X57673465Y-72608677D01*
X57669000Y-72563339D01*
X57669000Y-71726661D01*
X57673465Y-71681323D01*
X57684898Y-71643636D01*
X57703466Y-71608897D01*
X57728452Y-71578452D01*
X57758897Y-71553466D01*
X57793636Y-71534898D01*
X57831323Y-71523465D01*
X57876661Y-71519000D01*
X58963339Y-71519000D01*
X59008677Y-71523465D01*
X59008677Y-71523465D01*
G37*
G36*
X82251677Y-70119465D02*
X82289364Y-70130898D01*
X82324103Y-70149466D01*
X82354548Y-70174452D01*
X82379534Y-70204897D01*
X82398102Y-70239636D01*
X82409535Y-70277323D01*
X82414000Y-70322661D01*
X82414000Y-71409339D01*
X82409535Y-71454677D01*
X82398102Y-71492364D01*
X82379534Y-71527103D01*
X82354548Y-71557548D01*
X82324103Y-71582534D01*
X82289364Y-71601102D01*
X82251677Y-71612535D01*
X82206339Y-71617000D01*
X81369661Y-71617000D01*
X81324323Y-71612535D01*
X81286636Y-71601102D01*
X81251897Y-71582534D01*
X81221452Y-71557548D01*
X81196466Y-71527103D01*
X81177898Y-71492364D01*
X81166465Y-71454677D01*
X81162000Y-71409339D01*
X81162000Y-70322661D01*
X81166465Y-70277323D01*
X81177898Y-70239636D01*
X81196466Y-70204897D01*
X81221452Y-70174452D01*
X81251897Y-70149466D01*
X81286636Y-70130898D01*
X81324323Y-70119465D01*
X81369661Y-70115000D01*
X82206339Y-70115000D01*
X82251677Y-70119465D01*
X82251677Y-70119465D01*
G37*
G36*
X80201677Y-70119465D02*
X80239364Y-70130898D01*
X80274103Y-70149466D01*
X80304548Y-70174452D01*
X80329534Y-70204897D01*
X80348102Y-70239636D01*
X80359535Y-70277323D01*
X80364000Y-70322661D01*
X80364000Y-71409339D01*
X80359535Y-71454677D01*
X80348102Y-71492364D01*
X80329534Y-71527103D01*
X80304548Y-71557548D01*
X80274103Y-71582534D01*
X80239364Y-71601102D01*
X80201677Y-71612535D01*
X80156339Y-71617000D01*
X79319661Y-71617000D01*
X79274323Y-71612535D01*
X79236636Y-71601102D01*
X79201897Y-71582534D01*
X79171452Y-71557548D01*
X79146466Y-71527103D01*
X79127898Y-71492364D01*
X79116465Y-71454677D01*
X79112000Y-71409339D01*
X79112000Y-70322661D01*
X79116465Y-70277323D01*
X79127898Y-70239636D01*
X79146466Y-70204897D01*
X79171452Y-70174452D01*
X79201897Y-70149466D01*
X79236636Y-70130898D01*
X79274323Y-70119465D01*
X79319661Y-70115000D01*
X80156339Y-70115000D01*
X80201677Y-70119465D01*
X80201677Y-70119465D01*
G37*
G36*
X102188677Y-69618465D02*
X102226364Y-69629898D01*
X102261103Y-69648466D01*
X102291548Y-69673452D01*
X102316534Y-69703897D01*
X102335102Y-69738636D01*
X102346535Y-69776323D01*
X102351000Y-69821661D01*
X102351000Y-70658339D01*
X102346535Y-70703677D01*
X102335102Y-70741364D01*
X102316534Y-70776103D01*
X102291548Y-70806548D01*
X102261103Y-70831534D01*
X102226364Y-70850102D01*
X102188677Y-70861535D01*
X102143339Y-70866000D01*
X101056661Y-70866000D01*
X101011323Y-70861535D01*
X100973636Y-70850102D01*
X100938897Y-70831534D01*
X100908452Y-70806548D01*
X100883466Y-70776103D01*
X100864898Y-70741364D01*
X100853465Y-70703677D01*
X100849000Y-70658339D01*
X100849000Y-69821661D01*
X100853465Y-69776323D01*
X100864898Y-69738636D01*
X100883466Y-69703897D01*
X100908452Y-69673452D01*
X100938897Y-69648466D01*
X100973636Y-69629898D01*
X101011323Y-69618465D01*
X101056661Y-69614000D01*
X102143339Y-69614000D01*
X102188677Y-69618465D01*
X102188677Y-69618465D01*
G37*
G36*
X96092677Y-69491465D02*
X96130364Y-69502898D01*
X96165103Y-69521466D01*
X96195548Y-69546452D01*
X96220534Y-69576897D01*
X96239102Y-69611636D01*
X96250535Y-69649323D01*
X96255000Y-69694661D01*
X96255000Y-70531339D01*
X96250535Y-70576677D01*
X96239102Y-70614364D01*
X96220534Y-70649103D01*
X96195548Y-70679548D01*
X96165103Y-70704534D01*
X96130364Y-70723102D01*
X96092677Y-70734535D01*
X96047339Y-70739000D01*
X94960661Y-70739000D01*
X94915323Y-70734535D01*
X94877636Y-70723102D01*
X94842897Y-70704534D01*
X94812452Y-70679548D01*
X94787466Y-70649103D01*
X94768898Y-70614364D01*
X94757465Y-70576677D01*
X94753000Y-70531339D01*
X94753000Y-69694661D01*
X94757465Y-69649323D01*
X94768898Y-69611636D01*
X94787466Y-69576897D01*
X94812452Y-69546452D01*
X94842897Y-69521466D01*
X94877636Y-69502898D01*
X94915323Y-69491465D01*
X94960661Y-69487000D01*
X96047339Y-69487000D01*
X96092677Y-69491465D01*
X96092677Y-69491465D01*
G37*
G36*
X55198677Y-69473465D02*
X55236364Y-69484898D01*
X55271103Y-69503466D01*
X55301548Y-69528452D01*
X55326534Y-69558897D01*
X55345102Y-69593636D01*
X55356535Y-69631323D01*
X55361000Y-69676661D01*
X55361000Y-70513339D01*
X55356535Y-70558677D01*
X55345102Y-70596364D01*
X55326534Y-70631103D01*
X55301548Y-70661548D01*
X55271103Y-70686534D01*
X55236364Y-70705102D01*
X55198677Y-70716535D01*
X55153339Y-70721000D01*
X54066661Y-70721000D01*
X54021323Y-70716535D01*
X53983636Y-70705102D01*
X53948897Y-70686534D01*
X53918452Y-70661548D01*
X53893466Y-70631103D01*
X53874898Y-70596364D01*
X53863465Y-70558677D01*
X53859000Y-70513339D01*
X53859000Y-69676661D01*
X53863465Y-69631323D01*
X53874898Y-69593636D01*
X53893466Y-69558897D01*
X53918452Y-69528452D01*
X53948897Y-69503466D01*
X53983636Y-69484898D01*
X54021323Y-69473465D01*
X54066661Y-69469000D01*
X55153339Y-69469000D01*
X55198677Y-69473465D01*
X55198677Y-69473465D01*
G37*
G36*
X51388677Y-69473465D02*
X51426364Y-69484898D01*
X51461103Y-69503466D01*
X51491548Y-69528452D01*
X51516534Y-69558897D01*
X51535102Y-69593636D01*
X51546535Y-69631323D01*
X51551000Y-69676661D01*
X51551000Y-70513339D01*
X51546535Y-70558677D01*
X51535102Y-70596364D01*
X51516534Y-70631103D01*
X51491548Y-70661548D01*
X51461103Y-70686534D01*
X51426364Y-70705102D01*
X51388677Y-70716535D01*
X51343339Y-70721000D01*
X50256661Y-70721000D01*
X50211323Y-70716535D01*
X50173636Y-70705102D01*
X50138897Y-70686534D01*
X50108452Y-70661548D01*
X50083466Y-70631103D01*
X50064898Y-70596364D01*
X50053465Y-70558677D01*
X50049000Y-70513339D01*
X50049000Y-69676661D01*
X50053465Y-69631323D01*
X50064898Y-69593636D01*
X50083466Y-69558897D01*
X50108452Y-69528452D01*
X50138897Y-69503466D01*
X50173636Y-69484898D01*
X50211323Y-69473465D01*
X50256661Y-69469000D01*
X51343339Y-69469000D01*
X51388677Y-69473465D01*
X51388677Y-69473465D01*
G37*
G36*
X59008677Y-69473465D02*
X59046364Y-69484898D01*
X59081103Y-69503466D01*
X59111548Y-69528452D01*
X59136534Y-69558897D01*
X59155102Y-69593636D01*
X59166535Y-69631323D01*
X59171000Y-69676661D01*
X59171000Y-70513339D01*
X59166535Y-70558677D01*
X59155102Y-70596364D01*
X59136534Y-70631103D01*
X59111548Y-70661548D01*
X59081103Y-70686534D01*
X59046364Y-70705102D01*
X59008677Y-70716535D01*
X58963339Y-70721000D01*
X57876661Y-70721000D01*
X57831323Y-70716535D01*
X57793636Y-70705102D01*
X57758897Y-70686534D01*
X57728452Y-70661548D01*
X57703466Y-70631103D01*
X57684898Y-70596364D01*
X57673465Y-70558677D01*
X57669000Y-70513339D01*
X57669000Y-69676661D01*
X57673465Y-69631323D01*
X57684898Y-69593636D01*
X57703466Y-69558897D01*
X57728452Y-69528452D01*
X57758897Y-69503466D01*
X57793636Y-69484898D01*
X57831323Y-69473465D01*
X57876661Y-69469000D01*
X58963339Y-69469000D01*
X59008677Y-69473465D01*
X59008677Y-69473465D01*
G37*
G36*
X110699750Y-70391220D02*
X109198210Y-70391220D01*
X109198210Y-67987980D01*
X110699750Y-67987980D01*
X110699750Y-70391220D01*
X110699750Y-70391220D01*
G37*
G36*
X106701790Y-70391220D02*
X105200250Y-70391220D01*
X105200250Y-67987980D01*
X106701790Y-67987980D01*
X106701790Y-70391220D01*
X106701790Y-70391220D01*
G37*
G36*
X61668677Y-68468465D02*
X61706364Y-68479898D01*
X61741103Y-68498466D01*
X61771548Y-68523452D01*
X61796534Y-68553897D01*
X61815102Y-68588636D01*
X61826535Y-68626323D01*
X61831000Y-68671661D01*
X61831000Y-69758339D01*
X61826535Y-69803677D01*
X61815102Y-69841364D01*
X61796534Y-69876103D01*
X61771548Y-69906548D01*
X61741103Y-69931534D01*
X61706364Y-69950102D01*
X61668677Y-69961535D01*
X61623339Y-69966000D01*
X60786661Y-69966000D01*
X60741323Y-69961535D01*
X60703636Y-69950102D01*
X60668897Y-69931534D01*
X60638452Y-69906548D01*
X60613466Y-69876103D01*
X60594898Y-69841364D01*
X60583465Y-69803677D01*
X60579000Y-69758339D01*
X60579000Y-68671661D01*
X60583465Y-68626323D01*
X60594898Y-68588636D01*
X60613466Y-68553897D01*
X60638452Y-68523452D01*
X60668897Y-68498466D01*
X60703636Y-68479898D01*
X60741323Y-68468465D01*
X60786661Y-68464000D01*
X61623339Y-68464000D01*
X61668677Y-68468465D01*
X61668677Y-68468465D01*
G37*
G36*
X63718677Y-68468465D02*
X63756364Y-68479898D01*
X63791103Y-68498466D01*
X63821548Y-68523452D01*
X63846534Y-68553897D01*
X63865102Y-68588636D01*
X63876535Y-68626323D01*
X63881000Y-68671661D01*
X63881000Y-69758339D01*
X63876535Y-69803677D01*
X63865102Y-69841364D01*
X63846534Y-69876103D01*
X63821548Y-69906548D01*
X63791103Y-69931534D01*
X63756364Y-69950102D01*
X63718677Y-69961535D01*
X63673339Y-69966000D01*
X62836661Y-69966000D01*
X62791323Y-69961535D01*
X62753636Y-69950102D01*
X62718897Y-69931534D01*
X62688452Y-69906548D01*
X62663466Y-69876103D01*
X62644898Y-69841364D01*
X62633465Y-69803677D01*
X62629000Y-69758339D01*
X62629000Y-68671661D01*
X62633465Y-68626323D01*
X62644898Y-68588636D01*
X62663466Y-68553897D01*
X62688452Y-68523452D01*
X62718897Y-68498466D01*
X62753636Y-68479898D01*
X62791323Y-68468465D01*
X62836661Y-68464000D01*
X63673339Y-68464000D01*
X63718677Y-68468465D01*
X63718677Y-68468465D01*
G37*
G36*
X102188677Y-67568465D02*
X102226364Y-67579898D01*
X102261103Y-67598466D01*
X102291548Y-67623452D01*
X102316534Y-67653897D01*
X102335102Y-67688636D01*
X102346535Y-67726323D01*
X102351000Y-67771661D01*
X102351000Y-68608339D01*
X102346535Y-68653677D01*
X102335102Y-68691364D01*
X102316534Y-68726103D01*
X102291548Y-68756548D01*
X102261103Y-68781534D01*
X102226364Y-68800102D01*
X102188677Y-68811535D01*
X102143339Y-68816000D01*
X101056661Y-68816000D01*
X101011323Y-68811535D01*
X100973636Y-68800102D01*
X100938897Y-68781534D01*
X100908452Y-68756548D01*
X100883466Y-68726103D01*
X100864898Y-68691364D01*
X100853465Y-68653677D01*
X100849000Y-68608339D01*
X100849000Y-67771661D01*
X100853465Y-67726323D01*
X100864898Y-67688636D01*
X100883466Y-67653897D01*
X100908452Y-67623452D01*
X100938897Y-67598466D01*
X100973636Y-67579898D01*
X101011323Y-67568465D01*
X101056661Y-67564000D01*
X102143339Y-67564000D01*
X102188677Y-67568465D01*
X102188677Y-67568465D01*
G37*
G36*
X96092677Y-67441465D02*
X96130364Y-67452898D01*
X96165103Y-67471466D01*
X96195548Y-67496452D01*
X96220534Y-67526897D01*
X96239102Y-67561636D01*
X96250535Y-67599323D01*
X96255000Y-67644661D01*
X96255000Y-68481339D01*
X96250535Y-68526677D01*
X96239102Y-68564364D01*
X96220534Y-68599103D01*
X96195548Y-68629548D01*
X96165103Y-68654534D01*
X96130364Y-68673102D01*
X96092677Y-68684535D01*
X96047339Y-68689000D01*
X94960661Y-68689000D01*
X94915323Y-68684535D01*
X94877636Y-68673102D01*
X94842897Y-68654534D01*
X94812452Y-68629548D01*
X94787466Y-68599103D01*
X94768898Y-68564364D01*
X94757465Y-68526677D01*
X94753000Y-68481339D01*
X94753000Y-67644661D01*
X94757465Y-67599323D01*
X94768898Y-67561636D01*
X94787466Y-67526897D01*
X94812452Y-67496452D01*
X94842897Y-67471466D01*
X94877636Y-67452898D01*
X94915323Y-67441465D01*
X94960661Y-67437000D01*
X96047339Y-67437000D01*
X96092677Y-67441465D01*
X96092677Y-67441465D01*
G37*
G36*
X96092677Y-63386465D02*
X96130364Y-63397898D01*
X96165103Y-63416466D01*
X96195548Y-63441452D01*
X96220534Y-63471897D01*
X96239102Y-63506636D01*
X96250535Y-63544323D01*
X96255000Y-63589661D01*
X96255000Y-64426339D01*
X96250535Y-64471677D01*
X96239102Y-64509364D01*
X96220534Y-64544103D01*
X96195548Y-64574548D01*
X96165103Y-64599534D01*
X96130364Y-64618102D01*
X96092677Y-64629535D01*
X96047339Y-64634000D01*
X94960661Y-64634000D01*
X94915323Y-64629535D01*
X94877636Y-64618102D01*
X94842897Y-64599534D01*
X94812452Y-64574548D01*
X94787466Y-64544103D01*
X94768898Y-64509364D01*
X94757465Y-64471677D01*
X94753000Y-64426339D01*
X94753000Y-63589661D01*
X94757465Y-63544323D01*
X94768898Y-63506636D01*
X94787466Y-63471897D01*
X94812452Y-63441452D01*
X94842897Y-63416466D01*
X94877636Y-63397898D01*
X94915323Y-63386465D01*
X94960661Y-63382000D01*
X96047339Y-63382000D01*
X96092677Y-63386465D01*
X96092677Y-63386465D01*
G37*
G36*
X110699750Y-64092020D02*
X109198210Y-64092020D01*
X109198210Y-61688780D01*
X110699750Y-61688780D01*
X110699750Y-64092020D01*
X110699750Y-64092020D01*
G37*
G36*
X106699250Y-64092020D02*
X105197710Y-64092020D01*
X105197710Y-61688780D01*
X106699250Y-61688780D01*
X106699250Y-64092020D01*
X106699250Y-64092020D01*
G37*
G36*
X101183677Y-62118465D02*
X101221364Y-62129898D01*
X101256103Y-62148466D01*
X101286548Y-62173452D01*
X101311534Y-62203897D01*
X101330102Y-62238636D01*
X101341535Y-62276323D01*
X101346000Y-62321661D01*
X101346000Y-63408339D01*
X101341535Y-63453677D01*
X101330102Y-63491364D01*
X101311534Y-63526103D01*
X101286548Y-63556548D01*
X101256103Y-63581534D01*
X101221364Y-63600102D01*
X101183677Y-63611535D01*
X101138339Y-63616000D01*
X100301661Y-63616000D01*
X100256323Y-63611535D01*
X100218636Y-63600102D01*
X100183897Y-63581534D01*
X100153452Y-63556548D01*
X100128466Y-63526103D01*
X100109898Y-63491364D01*
X100098465Y-63453677D01*
X100094000Y-63408339D01*
X100094000Y-62321661D01*
X100098465Y-62276323D01*
X100109898Y-62238636D01*
X100128466Y-62203897D01*
X100153452Y-62173452D01*
X100183897Y-62148466D01*
X100218636Y-62129898D01*
X100256323Y-62118465D01*
X100301661Y-62114000D01*
X101138339Y-62114000D01*
X101183677Y-62118465D01*
X101183677Y-62118465D01*
G37*
G36*
X99133677Y-62118465D02*
X99171364Y-62129898D01*
X99206103Y-62148466D01*
X99236548Y-62173452D01*
X99261534Y-62203897D01*
X99280102Y-62238636D01*
X99291535Y-62276323D01*
X99296000Y-62321661D01*
X99296000Y-63408339D01*
X99291535Y-63453677D01*
X99280102Y-63491364D01*
X99261534Y-63526103D01*
X99236548Y-63556548D01*
X99206103Y-63581534D01*
X99171364Y-63600102D01*
X99133677Y-63611535D01*
X99088339Y-63616000D01*
X98251661Y-63616000D01*
X98206323Y-63611535D01*
X98168636Y-63600102D01*
X98133897Y-63581534D01*
X98103452Y-63556548D01*
X98078466Y-63526103D01*
X98059898Y-63491364D01*
X98048465Y-63453677D01*
X98044000Y-63408339D01*
X98044000Y-62321661D01*
X98048465Y-62276323D01*
X98059898Y-62238636D01*
X98078466Y-62203897D01*
X98103452Y-62173452D01*
X98133897Y-62148466D01*
X98168636Y-62129898D01*
X98206323Y-62118465D01*
X98251661Y-62114000D01*
X99088339Y-62114000D01*
X99133677Y-62118465D01*
X99133677Y-62118465D01*
G37*
G36*
X75324212Y-60930456D02*
X75570165Y-61032333D01*
X75791520Y-61180238D01*
X75979762Y-61368480D01*
X76127667Y-61589835D01*
X76229544Y-61835788D01*
X76281480Y-62096889D01*
X76281480Y-62363111D01*
X76229544Y-62624212D01*
X76127667Y-62870165D01*
X75979762Y-63091520D01*
X75791520Y-63279762D01*
X75570165Y-63427667D01*
X75324212Y-63529544D01*
X75063111Y-63581480D01*
X74796889Y-63581480D01*
X74535788Y-63529544D01*
X74289835Y-63427667D01*
X74068480Y-63279762D01*
X73880238Y-63091520D01*
X73732333Y-62870165D01*
X73630456Y-62624212D01*
X73578520Y-62363111D01*
X73578520Y-62096889D01*
X73630456Y-61835788D01*
X73732333Y-61589835D01*
X73880238Y-61368480D01*
X74068480Y-61180238D01*
X74289835Y-61032333D01*
X74535788Y-60930456D01*
X74796889Y-60878520D01*
X75063111Y-60878520D01*
X75324212Y-60930456D01*
X75324212Y-60930456D01*
G37*
G36*
X56274212Y-60930456D02*
X56520165Y-61032333D01*
X56741520Y-61180238D01*
X56929762Y-61368480D01*
X57077667Y-61589835D01*
X57179544Y-61835788D01*
X57231480Y-62096889D01*
X57231480Y-62363111D01*
X57179544Y-62624212D01*
X57077667Y-62870165D01*
X56929762Y-63091520D01*
X56741520Y-63279762D01*
X56520165Y-63427667D01*
X56274212Y-63529544D01*
X56013111Y-63581480D01*
X55746889Y-63581480D01*
X55485788Y-63529544D01*
X55239835Y-63427667D01*
X55018480Y-63279762D01*
X54830238Y-63091520D01*
X54682333Y-62870165D01*
X54580456Y-62624212D01*
X54528520Y-62363111D01*
X54528520Y-62096889D01*
X54580456Y-61835788D01*
X54682333Y-61589835D01*
X54830238Y-61368480D01*
X55018480Y-61180238D01*
X55239835Y-61032333D01*
X55485788Y-60930456D01*
X55746889Y-60878520D01*
X56013111Y-60878520D01*
X56274212Y-60930456D01*
X56274212Y-60930456D01*
G37*
G36*
X96092677Y-61336465D02*
X96130364Y-61347898D01*
X96165103Y-61366466D01*
X96195548Y-61391452D01*
X96220534Y-61421897D01*
X96239102Y-61456636D01*
X96250535Y-61494323D01*
X96255000Y-61539661D01*
X96255000Y-62376339D01*
X96250535Y-62421677D01*
X96239102Y-62459364D01*
X96220534Y-62494103D01*
X96195548Y-62524548D01*
X96165103Y-62549534D01*
X96130364Y-62568102D01*
X96092677Y-62579535D01*
X96047339Y-62584000D01*
X94960661Y-62584000D01*
X94915323Y-62579535D01*
X94877636Y-62568102D01*
X94842897Y-62549534D01*
X94812452Y-62524548D01*
X94787466Y-62494103D01*
X94768898Y-62459364D01*
X94757465Y-62421677D01*
X94753000Y-62376339D01*
X94753000Y-61539661D01*
X94757465Y-61494323D01*
X94768898Y-61456636D01*
X94787466Y-61421897D01*
X94812452Y-61391452D01*
X94842897Y-61366466D01*
X94877636Y-61347898D01*
X94915323Y-61336465D01*
X94960661Y-61332000D01*
X96047339Y-61332000D01*
X96092677Y-61336465D01*
X96092677Y-61336465D01*
G37*
G36*
X62624212Y-58390456D02*
X62870165Y-58492333D01*
X63091520Y-58640238D01*
X63279762Y-58828480D01*
X63427667Y-59049835D01*
X63529544Y-59295788D01*
X63581480Y-59556889D01*
X63581480Y-59823111D01*
X63529544Y-60084212D01*
X63427667Y-60330165D01*
X63279762Y-60551520D01*
X63091520Y-60739762D01*
X62870165Y-60887667D01*
X62624212Y-60989544D01*
X62363111Y-61041480D01*
X62096889Y-61041480D01*
X61835788Y-60989544D01*
X61589835Y-60887667D01*
X61368480Y-60739762D01*
X61180238Y-60551520D01*
X61032333Y-60330165D01*
X60930456Y-60084212D01*
X60878520Y-59823111D01*
X60878520Y-59556889D01*
X60930456Y-59295788D01*
X61032333Y-59049835D01*
X61180238Y-58828480D01*
X61368480Y-58640238D01*
X61589835Y-58492333D01*
X61835788Y-58390456D01*
X62096889Y-58338520D01*
X62363111Y-58338520D01*
X62624212Y-58390456D01*
X62624212Y-58390456D01*
G37*
G36*
X81674212Y-58390456D02*
X81920165Y-58492333D01*
X82141520Y-58640238D01*
X82329762Y-58828480D01*
X82477667Y-59049835D01*
X82579544Y-59295788D01*
X82631480Y-59556889D01*
X82631480Y-59823111D01*
X82579544Y-60084212D01*
X82477667Y-60330165D01*
X82329762Y-60551520D01*
X82141520Y-60739762D01*
X81920165Y-60887667D01*
X81674212Y-60989544D01*
X81413111Y-61041480D01*
X81146889Y-61041480D01*
X80885788Y-60989544D01*
X80639835Y-60887667D01*
X80418480Y-60739762D01*
X80230238Y-60551520D01*
X80082333Y-60330165D01*
X79980456Y-60084212D01*
X79928520Y-59823111D01*
X79928520Y-59556889D01*
X79980456Y-59295788D01*
X80082333Y-59049835D01*
X80230238Y-58828480D01*
X80418480Y-58640238D01*
X80639835Y-58492333D01*
X80885788Y-58390456D01*
X81146889Y-58338520D01*
X81413111Y-58338520D01*
X81674212Y-58390456D01*
X81674212Y-58390456D01*
G37*
G36*
X59032774Y-55129951D02*
X59415091Y-55288312D01*
X59415093Y-55288313D01*
X59754596Y-55515161D01*
X59759172Y-55518219D01*
X60051781Y-55810828D01*
X60281688Y-56154909D01*
X60440049Y-56537226D01*
X60520780Y-56943090D01*
X60520780Y-57356910D01*
X60440049Y-57762774D01*
X60281688Y-58145091D01*
X60051781Y-58489172D01*
X59759172Y-58781781D01*
X59759169Y-58781783D01*
X59415093Y-59011687D01*
X59415092Y-59011688D01*
X59415091Y-59011688D01*
X59032774Y-59170049D01*
X58626910Y-59250780D01*
X58213090Y-59250780D01*
X57807226Y-59170049D01*
X57424909Y-59011688D01*
X57424908Y-59011688D01*
X57424907Y-59011687D01*
X57080831Y-58781783D01*
X57080828Y-58781781D01*
X56788219Y-58489172D01*
X56558312Y-58145091D01*
X56399951Y-57762774D01*
X56319220Y-57356910D01*
X56319220Y-56943090D01*
X56399951Y-56537226D01*
X56558312Y-56154909D01*
X56788219Y-55810828D01*
X57080828Y-55518219D01*
X57085404Y-55515161D01*
X57424907Y-55288313D01*
X57424909Y-55288312D01*
X57807226Y-55129951D01*
X58213090Y-55049220D01*
X58626910Y-55049220D01*
X59032774Y-55129951D01*
X59032774Y-55129951D01*
G37*
G36*
X78082774Y-55129951D02*
X78465091Y-55288312D01*
X78465093Y-55288313D01*
X78804596Y-55515161D01*
X78809172Y-55518219D01*
X79101781Y-55810828D01*
X79331688Y-56154909D01*
X79490049Y-56537226D01*
X79570780Y-56943090D01*
X79570780Y-57356910D01*
X79490049Y-57762774D01*
X79331688Y-58145091D01*
X79101781Y-58489172D01*
X78809172Y-58781781D01*
X78809169Y-58781783D01*
X78465093Y-59011687D01*
X78465092Y-59011688D01*
X78465091Y-59011688D01*
X78082774Y-59170049D01*
X77676910Y-59250780D01*
X77263090Y-59250780D01*
X76857226Y-59170049D01*
X76474909Y-59011688D01*
X76474908Y-59011688D01*
X76474907Y-59011687D01*
X76130831Y-58781783D01*
X76130828Y-58781781D01*
X75838219Y-58489172D01*
X75608312Y-58145091D01*
X75449951Y-57762774D01*
X75369220Y-57356910D01*
X75369220Y-56943090D01*
X75449951Y-56537226D01*
X75608312Y-56154909D01*
X75838219Y-55810828D01*
X76130828Y-55518219D01*
X76135404Y-55515161D01*
X76474907Y-55288313D01*
X76474909Y-55288312D01*
X76857226Y-55129951D01*
X77263090Y-55049220D01*
X77676910Y-55049220D01*
X78082774Y-55129951D01*
X78082774Y-55129951D01*
G37*
G36*
X112223677Y-57673465D02*
X112261364Y-57684898D01*
X112296103Y-57703466D01*
X112326548Y-57728452D01*
X112351534Y-57758897D01*
X112370102Y-57793636D01*
X112381535Y-57831323D01*
X112386000Y-57876661D01*
X112386000Y-58963339D01*
X112381535Y-59008677D01*
X112370102Y-59046364D01*
X112351534Y-59081103D01*
X112326548Y-59111548D01*
X112296103Y-59136534D01*
X112261364Y-59155102D01*
X112223677Y-59166535D01*
X112178339Y-59171000D01*
X111341661Y-59171000D01*
X111296323Y-59166535D01*
X111258636Y-59155102D01*
X111223897Y-59136534D01*
X111193452Y-59111548D01*
X111168466Y-59081103D01*
X111149898Y-59046364D01*
X111138465Y-59008677D01*
X111134000Y-58963339D01*
X111134000Y-57876661D01*
X111138465Y-57831323D01*
X111149898Y-57793636D01*
X111168466Y-57758897D01*
X111193452Y-57728452D01*
X111223897Y-57703466D01*
X111258636Y-57684898D01*
X111296323Y-57673465D01*
X111341661Y-57669000D01*
X112178339Y-57669000D01*
X112223677Y-57673465D01*
X112223677Y-57673465D01*
G37*
G36*
X114273677Y-57673465D02*
X114311364Y-57684898D01*
X114346103Y-57703466D01*
X114376548Y-57728452D01*
X114401534Y-57758897D01*
X114420102Y-57793636D01*
X114431535Y-57831323D01*
X114436000Y-57876661D01*
X114436000Y-58963339D01*
X114431535Y-59008677D01*
X114420102Y-59046364D01*
X114401534Y-59081103D01*
X114376548Y-59111548D01*
X114346103Y-59136534D01*
X114311364Y-59155102D01*
X114273677Y-59166535D01*
X114228339Y-59171000D01*
X113391661Y-59171000D01*
X113346323Y-59166535D01*
X113308636Y-59155102D01*
X113273897Y-59136534D01*
X113243452Y-59111548D01*
X113218466Y-59081103D01*
X113199898Y-59046364D01*
X113188465Y-59008677D01*
X113184000Y-58963339D01*
X113184000Y-57876661D01*
X113188465Y-57831323D01*
X113199898Y-57793636D01*
X113218466Y-57758897D01*
X113243452Y-57728452D01*
X113273897Y-57703466D01*
X113308636Y-57684898D01*
X113346323Y-57673465D01*
X113391661Y-57669000D01*
X114228339Y-57669000D01*
X114273677Y-57673465D01*
X114273677Y-57673465D01*
G37*
G36*
X82812704Y-56283980D02*
X82976607Y-56351871D01*
X83124121Y-56450437D01*
X83249563Y-56575879D01*
X83348129Y-56723393D01*
X83416020Y-56887296D01*
X83450630Y-57061294D01*
X83450630Y-57238706D01*
X83416020Y-57412704D01*
X83348129Y-57576607D01*
X83249563Y-57724121D01*
X83124121Y-57849563D01*
X82976607Y-57948129D01*
X82812704Y-58016020D01*
X82638706Y-58050630D01*
X82461294Y-58050630D01*
X82287296Y-58016020D01*
X82123393Y-57948129D01*
X81975879Y-57849563D01*
X81850437Y-57724121D01*
X81751871Y-57576607D01*
X81683980Y-57412704D01*
X81649370Y-57238706D01*
X81649370Y-57061294D01*
X81683980Y-56887296D01*
X81751871Y-56723393D01*
X81850437Y-56575879D01*
X81975879Y-56450437D01*
X82123393Y-56351871D01*
X82287296Y-56283980D01*
X82461294Y-56249370D01*
X82638706Y-56249370D01*
X82812704Y-56283980D01*
X82812704Y-56283980D01*
G37*
G36*
X53602704Y-56283980D02*
X53766607Y-56351871D01*
X53914121Y-56450437D01*
X54039563Y-56575879D01*
X54138129Y-56723393D01*
X54206020Y-56887296D01*
X54240630Y-57061294D01*
X54240630Y-57238706D01*
X54206020Y-57412704D01*
X54138129Y-57576607D01*
X54039563Y-57724121D01*
X53914121Y-57849563D01*
X53766607Y-57948129D01*
X53602704Y-58016020D01*
X53428706Y-58050630D01*
X53251294Y-58050630D01*
X53077296Y-58016020D01*
X52913393Y-57948129D01*
X52765879Y-57849563D01*
X52640437Y-57724121D01*
X52541871Y-57576607D01*
X52473980Y-57412704D01*
X52439370Y-57238706D01*
X52439370Y-57061294D01*
X52473980Y-56887296D01*
X52541871Y-56723393D01*
X52640437Y-56575879D01*
X52765879Y-56450437D01*
X52913393Y-56351871D01*
X53077296Y-56283980D01*
X53251294Y-56249370D01*
X53428706Y-56249370D01*
X53602704Y-56283980D01*
X53602704Y-56283980D01*
G37*
G36*
X63762704Y-56283980D02*
X63926607Y-56351871D01*
X64074121Y-56450437D01*
X64199563Y-56575879D01*
X64298129Y-56723393D01*
X64366020Y-56887296D01*
X64400630Y-57061294D01*
X64400630Y-57238706D01*
X64366020Y-57412704D01*
X64298129Y-57576607D01*
X64199563Y-57724121D01*
X64074121Y-57849563D01*
X63926607Y-57948129D01*
X63762704Y-58016020D01*
X63588706Y-58050630D01*
X63411294Y-58050630D01*
X63237296Y-58016020D01*
X63073393Y-57948129D01*
X62925879Y-57849563D01*
X62800437Y-57724121D01*
X62701871Y-57576607D01*
X62633980Y-57412704D01*
X62599370Y-57238706D01*
X62599370Y-57061294D01*
X62633980Y-56887296D01*
X62701871Y-56723393D01*
X62800437Y-56575879D01*
X62925879Y-56450437D01*
X63073393Y-56351871D01*
X63237296Y-56283980D01*
X63411294Y-56249370D01*
X63588706Y-56249370D01*
X63762704Y-56283980D01*
X63762704Y-56283980D01*
G37*
G36*
X72652704Y-56283980D02*
X72816607Y-56351871D01*
X72964121Y-56450437D01*
X73089563Y-56575879D01*
X73188129Y-56723393D01*
X73256020Y-56887296D01*
X73290630Y-57061294D01*
X73290630Y-57238706D01*
X73256020Y-57412704D01*
X73188129Y-57576607D01*
X73089563Y-57724121D01*
X72964121Y-57849563D01*
X72816607Y-57948129D01*
X72652704Y-58016020D01*
X72478706Y-58050630D01*
X72301294Y-58050630D01*
X72127296Y-58016020D01*
X71963393Y-57948129D01*
X71815879Y-57849563D01*
X71690437Y-57724121D01*
X71591871Y-57576607D01*
X71523980Y-57412704D01*
X71489370Y-57238706D01*
X71489370Y-57061294D01*
X71523980Y-56887296D01*
X71591871Y-56723393D01*
X71690437Y-56575879D01*
X71815879Y-56450437D01*
X71963393Y-56351871D01*
X72127296Y-56283980D01*
X72301294Y-56249370D01*
X72478706Y-56249370D01*
X72652704Y-56283980D01*
X72652704Y-56283980D01*
G37*
G36*
X105291000Y-57936000D02*
X96639000Y-57936000D01*
X96639000Y-56334000D01*
X105291000Y-56334000D01*
X105291000Y-57936000D01*
X105291000Y-57936000D01*
G37*
G36*
X107466000Y-55761000D02*
X105864000Y-55761000D01*
X105864000Y-47109000D01*
X107466000Y-47109000D01*
X107466000Y-55761000D01*
X107466000Y-55761000D01*
G37*
G36*
X96066000Y-55761000D02*
X94464000Y-55761000D01*
X94464000Y-47109000D01*
X96066000Y-47109000D01*
X96066000Y-55761000D01*
X96066000Y-55761000D01*
G37*
G36*
X113263643Y-53004781D02*
X113409415Y-53065162D01*
X113540611Y-53152824D01*
X113652176Y-53264389D01*
X113739838Y-53395585D01*
X113800219Y-53541357D01*
X113831000Y-53696107D01*
X113831000Y-53853893D01*
X113800219Y-54008643D01*
X113739838Y-54154415D01*
X113652176Y-54285611D01*
X113540611Y-54397176D01*
X113409415Y-54484838D01*
X113263643Y-54545219D01*
X113108893Y-54576000D01*
X112951107Y-54576000D01*
X112796357Y-54545219D01*
X112650585Y-54484838D01*
X112519389Y-54397176D01*
X112407824Y-54285611D01*
X112320162Y-54154415D01*
X112259781Y-54008643D01*
X112229000Y-53853893D01*
X112229000Y-53696107D01*
X112259781Y-53541357D01*
X112320162Y-53395585D01*
X112407824Y-53264389D01*
X112519389Y-53152824D01*
X112650585Y-53065162D01*
X112796357Y-53004781D01*
X112951107Y-52974000D01*
X113108893Y-52974000D01*
X113263643Y-53004781D01*
X113263643Y-53004781D01*
G37*
G36*
X65358677Y-52473465D02*
X65396364Y-52484898D01*
X65431103Y-52503466D01*
X65461548Y-52528452D01*
X65486534Y-52558897D01*
X65505102Y-52593636D01*
X65516535Y-52631323D01*
X65521000Y-52676661D01*
X65521000Y-53513339D01*
X65516535Y-53558677D01*
X65505102Y-53596364D01*
X65486534Y-53631103D01*
X65461548Y-53661548D01*
X65431103Y-53686534D01*
X65396364Y-53705102D01*
X65358677Y-53716535D01*
X65313339Y-53721000D01*
X64226661Y-53721000D01*
X64181323Y-53716535D01*
X64143636Y-53705102D01*
X64108897Y-53686534D01*
X64078452Y-53661548D01*
X64053466Y-53631103D01*
X64034898Y-53596364D01*
X64023465Y-53558677D01*
X64019000Y-53513339D01*
X64019000Y-52676661D01*
X64023465Y-52631323D01*
X64034898Y-52593636D01*
X64053466Y-52558897D01*
X64078452Y-52528452D01*
X64108897Y-52503466D01*
X64143636Y-52484898D01*
X64181323Y-52473465D01*
X64226661Y-52469000D01*
X65313339Y-52469000D01*
X65358677Y-52473465D01*
X65358677Y-52473465D01*
G37*
G36*
X84408677Y-52473465D02*
X84446364Y-52484898D01*
X84481103Y-52503466D01*
X84511548Y-52528452D01*
X84536534Y-52558897D01*
X84555102Y-52593636D01*
X84566535Y-52631323D01*
X84571000Y-52676661D01*
X84571000Y-53513339D01*
X84566535Y-53558677D01*
X84555102Y-53596364D01*
X84536534Y-53631103D01*
X84511548Y-53661548D01*
X84481103Y-53686534D01*
X84446364Y-53705102D01*
X84408677Y-53716535D01*
X84363339Y-53721000D01*
X83276661Y-53721000D01*
X83231323Y-53716535D01*
X83193636Y-53705102D01*
X83158897Y-53686534D01*
X83128452Y-53661548D01*
X83103466Y-53631103D01*
X83084898Y-53596364D01*
X83073465Y-53558677D01*
X83069000Y-53513339D01*
X83069000Y-52676661D01*
X83073465Y-52631323D01*
X83084898Y-52593636D01*
X83103466Y-52558897D01*
X83128452Y-52528452D01*
X83158897Y-52503466D01*
X83193636Y-52484898D01*
X83231323Y-52473465D01*
X83276661Y-52469000D01*
X84363339Y-52469000D01*
X84408677Y-52473465D01*
X84408677Y-52473465D01*
G37*
G36*
X52658677Y-52473465D02*
X52696364Y-52484898D01*
X52731103Y-52503466D01*
X52761548Y-52528452D01*
X52786534Y-52558897D01*
X52805102Y-52593636D01*
X52816535Y-52631323D01*
X52821000Y-52676661D01*
X52821000Y-53513339D01*
X52816535Y-53558677D01*
X52805102Y-53596364D01*
X52786534Y-53631103D01*
X52761548Y-53661548D01*
X52731103Y-53686534D01*
X52696364Y-53705102D01*
X52658677Y-53716535D01*
X52613339Y-53721000D01*
X51526661Y-53721000D01*
X51481323Y-53716535D01*
X51443636Y-53705102D01*
X51408897Y-53686534D01*
X51378452Y-53661548D01*
X51353466Y-53631103D01*
X51334898Y-53596364D01*
X51323465Y-53558677D01*
X51319000Y-53513339D01*
X51319000Y-52676661D01*
X51323465Y-52631323D01*
X51334898Y-52593636D01*
X51353466Y-52558897D01*
X51378452Y-52528452D01*
X51408897Y-52503466D01*
X51443636Y-52484898D01*
X51481323Y-52473465D01*
X51526661Y-52469000D01*
X52613339Y-52469000D01*
X52658677Y-52473465D01*
X52658677Y-52473465D01*
G37*
G36*
X71708677Y-52473465D02*
X71746364Y-52484898D01*
X71781103Y-52503466D01*
X71811548Y-52528452D01*
X71836534Y-52558897D01*
X71855102Y-52593636D01*
X71866535Y-52631323D01*
X71871000Y-52676661D01*
X71871000Y-53513339D01*
X71866535Y-53558677D01*
X71855102Y-53596364D01*
X71836534Y-53631103D01*
X71811548Y-53661548D01*
X71781103Y-53686534D01*
X71746364Y-53705102D01*
X71708677Y-53716535D01*
X71663339Y-53721000D01*
X70576661Y-53721000D01*
X70531323Y-53716535D01*
X70493636Y-53705102D01*
X70458897Y-53686534D01*
X70428452Y-53661548D01*
X70403466Y-53631103D01*
X70384898Y-53596364D01*
X70373465Y-53558677D01*
X70369000Y-53513339D01*
X70369000Y-52676661D01*
X70373465Y-52631323D01*
X70384898Y-52593636D01*
X70403466Y-52558897D01*
X70428452Y-52528452D01*
X70458897Y-52503466D01*
X70493636Y-52484898D01*
X70531323Y-52473465D01*
X70576661Y-52469000D01*
X71663339Y-52469000D01*
X71708677Y-52473465D01*
X71708677Y-52473465D01*
G37*
G36*
X57398257Y-51251607D02*
X57553144Y-51315763D01*
X57553147Y-51315765D01*
X57677458Y-51398827D01*
X57692549Y-51408911D01*
X57811089Y-51527451D01*
X57811091Y-51527454D01*
X57811092Y-51527455D01*
X57853740Y-51591282D01*
X57904237Y-51666856D01*
X57968393Y-51821743D01*
X58001100Y-51986173D01*
X58001100Y-52153827D01*
X57968393Y-52318257D01*
X57904237Y-52473144D01*
X57904235Y-52473147D01*
X57823727Y-52593636D01*
X57811089Y-52612549D01*
X57692549Y-52731089D01*
X57692546Y-52731091D01*
X57692545Y-52731092D01*
X57553147Y-52824235D01*
X57553144Y-52824237D01*
X57398257Y-52888393D01*
X57233827Y-52921100D01*
X57066173Y-52921100D01*
X56901743Y-52888393D01*
X56746856Y-52824237D01*
X56746853Y-52824235D01*
X56607455Y-52731092D01*
X56607454Y-52731091D01*
X56607451Y-52731089D01*
X56488911Y-52612549D01*
X56476274Y-52593636D01*
X56395765Y-52473147D01*
X56395763Y-52473144D01*
X56331607Y-52318257D01*
X56298900Y-52153827D01*
X56298900Y-51986173D01*
X56331607Y-51821743D01*
X56395763Y-51666856D01*
X56446260Y-51591282D01*
X56488908Y-51527455D01*
X56488909Y-51527454D01*
X56488911Y-51527451D01*
X56607451Y-51408911D01*
X56622543Y-51398827D01*
X56746853Y-51315765D01*
X56746856Y-51315763D01*
X56901743Y-51251607D01*
X57066173Y-51218900D01*
X57233827Y-51218900D01*
X57398257Y-51251607D01*
X57398257Y-51251607D01*
G37*
G36*
X59938257Y-51251607D02*
X60093144Y-51315763D01*
X60093147Y-51315765D01*
X60217458Y-51398827D01*
X60232549Y-51408911D01*
X60351089Y-51527451D01*
X60351091Y-51527454D01*
X60351092Y-51527455D01*
X60393740Y-51591282D01*
X60444237Y-51666856D01*
X60508393Y-51821743D01*
X60541100Y-51986173D01*
X60541100Y-52153827D01*
X60508393Y-52318257D01*
X60444237Y-52473144D01*
X60444235Y-52473147D01*
X60363727Y-52593636D01*
X60351089Y-52612549D01*
X60232549Y-52731089D01*
X60232546Y-52731091D01*
X60232545Y-52731092D01*
X60093147Y-52824235D01*
X60093144Y-52824237D01*
X59938257Y-52888393D01*
X59773827Y-52921100D01*
X59606173Y-52921100D01*
X59441743Y-52888393D01*
X59286856Y-52824237D01*
X59286853Y-52824235D01*
X59147455Y-52731092D01*
X59147454Y-52731091D01*
X59147451Y-52731089D01*
X59028911Y-52612549D01*
X59016274Y-52593636D01*
X58935765Y-52473147D01*
X58935763Y-52473144D01*
X58871607Y-52318257D01*
X58838900Y-52153827D01*
X58838900Y-51986173D01*
X58871607Y-51821743D01*
X58935763Y-51666856D01*
X58986260Y-51591282D01*
X59028908Y-51527455D01*
X59028909Y-51527454D01*
X59028911Y-51527451D01*
X59147451Y-51408911D01*
X59162543Y-51398827D01*
X59286853Y-51315765D01*
X59286856Y-51315763D01*
X59441743Y-51251607D01*
X59606173Y-51218900D01*
X59773827Y-51218900D01*
X59938257Y-51251607D01*
X59938257Y-51251607D01*
G37*
G36*
X76448257Y-51251607D02*
X76603144Y-51315763D01*
X76603147Y-51315765D01*
X76727458Y-51398827D01*
X76742549Y-51408911D01*
X76861089Y-51527451D01*
X76861091Y-51527454D01*
X76861092Y-51527455D01*
X76903740Y-51591282D01*
X76954237Y-51666856D01*
X77018393Y-51821743D01*
X77051100Y-51986173D01*
X77051100Y-52153827D01*
X77018393Y-52318257D01*
X76954237Y-52473144D01*
X76954235Y-52473147D01*
X76873727Y-52593636D01*
X76861089Y-52612549D01*
X76742549Y-52731089D01*
X76742546Y-52731091D01*
X76742545Y-52731092D01*
X76603147Y-52824235D01*
X76603144Y-52824237D01*
X76448257Y-52888393D01*
X76283827Y-52921100D01*
X76116173Y-52921100D01*
X75951743Y-52888393D01*
X75796856Y-52824237D01*
X75796853Y-52824235D01*
X75657455Y-52731092D01*
X75657454Y-52731091D01*
X75657451Y-52731089D01*
X75538911Y-52612549D01*
X75526274Y-52593636D01*
X75445765Y-52473147D01*
X75445763Y-52473144D01*
X75381607Y-52318257D01*
X75348900Y-52153827D01*
X75348900Y-51986173D01*
X75381607Y-51821743D01*
X75445763Y-51666856D01*
X75496260Y-51591282D01*
X75538908Y-51527455D01*
X75538909Y-51527454D01*
X75538911Y-51527451D01*
X75657451Y-51408911D01*
X75672543Y-51398827D01*
X75796853Y-51315765D01*
X75796856Y-51315763D01*
X75951743Y-51251607D01*
X76116173Y-51218900D01*
X76283827Y-51218900D01*
X76448257Y-51251607D01*
X76448257Y-51251607D01*
G37*
G36*
X78988257Y-51251607D02*
X79143144Y-51315763D01*
X79143147Y-51315765D01*
X79267458Y-51398827D01*
X79282549Y-51408911D01*
X79401089Y-51527451D01*
X79401091Y-51527454D01*
X79401092Y-51527455D01*
X79443740Y-51591282D01*
X79494237Y-51666856D01*
X79558393Y-51821743D01*
X79591100Y-51986173D01*
X79591100Y-52153827D01*
X79558393Y-52318257D01*
X79494237Y-52473144D01*
X79494235Y-52473147D01*
X79413727Y-52593636D01*
X79401089Y-52612549D01*
X79282549Y-52731089D01*
X79282546Y-52731091D01*
X79282545Y-52731092D01*
X79143147Y-52824235D01*
X79143144Y-52824237D01*
X78988257Y-52888393D01*
X78823827Y-52921100D01*
X78656173Y-52921100D01*
X78491743Y-52888393D01*
X78336856Y-52824237D01*
X78336853Y-52824235D01*
X78197455Y-52731092D01*
X78197454Y-52731091D01*
X78197451Y-52731089D01*
X78078911Y-52612549D01*
X78066274Y-52593636D01*
X77985765Y-52473147D01*
X77985763Y-52473144D01*
X77921607Y-52318257D01*
X77888900Y-52153827D01*
X77888900Y-51986173D01*
X77921607Y-51821743D01*
X77985763Y-51666856D01*
X78036260Y-51591282D01*
X78078908Y-51527455D01*
X78078909Y-51527454D01*
X78078911Y-51527451D01*
X78197451Y-51408911D01*
X78212543Y-51398827D01*
X78336853Y-51315765D01*
X78336856Y-51315763D01*
X78491743Y-51251607D01*
X78656173Y-51218900D01*
X78823827Y-51218900D01*
X78988257Y-51251607D01*
X78988257Y-51251607D01*
G37*
G36*
X71708677Y-50423465D02*
X71746364Y-50434898D01*
X71781103Y-50453466D01*
X71811548Y-50478452D01*
X71836534Y-50508897D01*
X71855102Y-50543636D01*
X71866535Y-50581323D01*
X71871000Y-50626661D01*
X71871000Y-51463339D01*
X71866535Y-51508677D01*
X71855102Y-51546364D01*
X71836534Y-51581103D01*
X71811548Y-51611548D01*
X71781103Y-51636534D01*
X71746364Y-51655102D01*
X71708677Y-51666535D01*
X71663339Y-51671000D01*
X70576661Y-51671000D01*
X70531323Y-51666535D01*
X70493636Y-51655102D01*
X70458897Y-51636534D01*
X70428452Y-51611548D01*
X70403466Y-51581103D01*
X70384898Y-51546364D01*
X70373465Y-51508677D01*
X70369000Y-51463339D01*
X70369000Y-50626661D01*
X70373465Y-50581323D01*
X70384898Y-50543636D01*
X70403466Y-50508897D01*
X70428452Y-50478452D01*
X70458897Y-50453466D01*
X70493636Y-50434898D01*
X70531323Y-50423465D01*
X70576661Y-50419000D01*
X71663339Y-50419000D01*
X71708677Y-50423465D01*
X71708677Y-50423465D01*
G37*
G36*
X65358677Y-50423465D02*
X65396364Y-50434898D01*
X65431103Y-50453466D01*
X65461548Y-50478452D01*
X65486534Y-50508897D01*
X65505102Y-50543636D01*
X65516535Y-50581323D01*
X65521000Y-50626661D01*
X65521000Y-51463339D01*
X65516535Y-51508677D01*
X65505102Y-51546364D01*
X65486534Y-51581103D01*
X65461548Y-51611548D01*
X65431103Y-51636534D01*
X65396364Y-51655102D01*
X65358677Y-51666535D01*
X65313339Y-51671000D01*
X64226661Y-51671000D01*
X64181323Y-51666535D01*
X64143636Y-51655102D01*
X64108897Y-51636534D01*
X64078452Y-51611548D01*
X64053466Y-51581103D01*
X64034898Y-51546364D01*
X64023465Y-51508677D01*
X64019000Y-51463339D01*
X64019000Y-50626661D01*
X64023465Y-50581323D01*
X64034898Y-50543636D01*
X64053466Y-50508897D01*
X64078452Y-50478452D01*
X64108897Y-50453466D01*
X64143636Y-50434898D01*
X64181323Y-50423465D01*
X64226661Y-50419000D01*
X65313339Y-50419000D01*
X65358677Y-50423465D01*
X65358677Y-50423465D01*
G37*
G36*
X84408677Y-50423465D02*
X84446364Y-50434898D01*
X84481103Y-50453466D01*
X84511548Y-50478452D01*
X84536534Y-50508897D01*
X84555102Y-50543636D01*
X84566535Y-50581323D01*
X84571000Y-50626661D01*
X84571000Y-51463339D01*
X84566535Y-51508677D01*
X84555102Y-51546364D01*
X84536534Y-51581103D01*
X84511548Y-51611548D01*
X84481103Y-51636534D01*
X84446364Y-51655102D01*
X84408677Y-51666535D01*
X84363339Y-51671000D01*
X83276661Y-51671000D01*
X83231323Y-51666535D01*
X83193636Y-51655102D01*
X83158897Y-51636534D01*
X83128452Y-51611548D01*
X83103466Y-51581103D01*
X83084898Y-51546364D01*
X83073465Y-51508677D01*
X83069000Y-51463339D01*
X83069000Y-50626661D01*
X83073465Y-50581323D01*
X83084898Y-50543636D01*
X83103466Y-50508897D01*
X83128452Y-50478452D01*
X83158897Y-50453466D01*
X83193636Y-50434898D01*
X83231323Y-50423465D01*
X83276661Y-50419000D01*
X84363339Y-50419000D01*
X84408677Y-50423465D01*
X84408677Y-50423465D01*
G37*
G36*
X52658677Y-50423465D02*
X52696364Y-50434898D01*
X52731103Y-50453466D01*
X52761548Y-50478452D01*
X52786534Y-50508897D01*
X52805102Y-50543636D01*
X52816535Y-50581323D01*
X52821000Y-50626661D01*
X52821000Y-51463339D01*
X52816535Y-51508677D01*
X52805102Y-51546364D01*
X52786534Y-51581103D01*
X52761548Y-51611548D01*
X52731103Y-51636534D01*
X52696364Y-51655102D01*
X52658677Y-51666535D01*
X52613339Y-51671000D01*
X51526661Y-51671000D01*
X51481323Y-51666535D01*
X51443636Y-51655102D01*
X51408897Y-51636534D01*
X51378452Y-51611548D01*
X51353466Y-51581103D01*
X51334898Y-51546364D01*
X51323465Y-51508677D01*
X51319000Y-51463339D01*
X51319000Y-50626661D01*
X51323465Y-50581323D01*
X51334898Y-50543636D01*
X51353466Y-50508897D01*
X51378452Y-50478452D01*
X51408897Y-50453466D01*
X51443636Y-50434898D01*
X51481323Y-50423465D01*
X51526661Y-50419000D01*
X52613339Y-50419000D01*
X52658677Y-50423465D01*
X52658677Y-50423465D01*
G37*
G36*
X113263643Y-48124781D02*
X113409415Y-48185162D01*
X113540611Y-48272824D01*
X113652176Y-48384389D01*
X113739838Y-48515585D01*
X113800219Y-48661357D01*
X113831000Y-48816107D01*
X113831000Y-48973893D01*
X113800219Y-49128643D01*
X113739838Y-49274415D01*
X113652176Y-49405611D01*
X113540611Y-49517176D01*
X113409415Y-49604838D01*
X113263643Y-49665219D01*
X113108893Y-49696000D01*
X112951107Y-49696000D01*
X112796357Y-49665219D01*
X112650585Y-49604838D01*
X112519389Y-49517176D01*
X112407824Y-49405611D01*
X112320162Y-49274415D01*
X112259781Y-49128643D01*
X112229000Y-48973893D01*
X112229000Y-48816107D01*
X112259781Y-48661357D01*
X112320162Y-48515585D01*
X112407824Y-48384389D01*
X112519389Y-48272824D01*
X112650585Y-48185162D01*
X112796357Y-48124781D01*
X112951107Y-48094000D01*
X113108893Y-48094000D01*
X113263643Y-48124781D01*
X113263643Y-48124781D01*
G37*
G36*
X105291000Y-46536000D02*
X96639000Y-46536000D01*
X96639000Y-44934000D01*
X105291000Y-44934000D01*
X105291000Y-46536000D01*
X105291000Y-46536000D01*
G37*
G36*
X114518677Y-43068465D02*
X114556364Y-43079898D01*
X114591103Y-43098466D01*
X114621548Y-43123452D01*
X114646534Y-43153897D01*
X114665102Y-43188636D01*
X114676535Y-43226323D01*
X114681000Y-43271661D01*
X114681000Y-44358339D01*
X114676535Y-44403677D01*
X114665102Y-44441364D01*
X114646534Y-44476103D01*
X114621548Y-44506548D01*
X114591103Y-44531534D01*
X114556364Y-44550102D01*
X114518677Y-44561535D01*
X114473339Y-44566000D01*
X113636661Y-44566000D01*
X113591323Y-44561535D01*
X113553636Y-44550102D01*
X113518897Y-44531534D01*
X113488452Y-44506548D01*
X113463466Y-44476103D01*
X113444898Y-44441364D01*
X113433465Y-44403677D01*
X113429000Y-44358339D01*
X113429000Y-43271661D01*
X113433465Y-43226323D01*
X113444898Y-43188636D01*
X113463466Y-43153897D01*
X113488452Y-43123452D01*
X113518897Y-43098466D01*
X113553636Y-43079898D01*
X113591323Y-43068465D01*
X113636661Y-43064000D01*
X114473339Y-43064000D01*
X114518677Y-43068465D01*
X114518677Y-43068465D01*
G37*
G36*
X112468677Y-43068465D02*
X112506364Y-43079898D01*
X112541103Y-43098466D01*
X112571548Y-43123452D01*
X112596534Y-43153897D01*
X112615102Y-43188636D01*
X112626535Y-43226323D01*
X112631000Y-43271661D01*
X112631000Y-44358339D01*
X112626535Y-44403677D01*
X112615102Y-44441364D01*
X112596534Y-44476103D01*
X112571548Y-44506548D01*
X112541103Y-44531534D01*
X112506364Y-44550102D01*
X112468677Y-44561535D01*
X112423339Y-44566000D01*
X111586661Y-44566000D01*
X111541323Y-44561535D01*
X111503636Y-44550102D01*
X111468897Y-44531534D01*
X111438452Y-44506548D01*
X111413466Y-44476103D01*
X111394898Y-44441364D01*
X111383465Y-44403677D01*
X111379000Y-44358339D01*
X111379000Y-43271661D01*
X111383465Y-43226323D01*
X111394898Y-43188636D01*
X111413466Y-43153897D01*
X111438452Y-43123452D01*
X111468897Y-43098466D01*
X111503636Y-43079898D01*
X111541323Y-43068465D01*
X111586661Y-43064000D01*
X112423339Y-43064000D01*
X112468677Y-43068465D01*
X112468677Y-43068465D01*
G37*
G36*
X75324212Y-41880456D02*
X75570165Y-41982333D01*
X75791520Y-42130238D01*
X75979762Y-42318480D01*
X76127667Y-42539835D01*
X76229544Y-42785788D01*
X76281480Y-43046889D01*
X76281480Y-43313111D01*
X76229544Y-43574212D01*
X76127667Y-43820165D01*
X75979762Y-44041520D01*
X75791520Y-44229762D01*
X75570165Y-44377667D01*
X75324212Y-44479544D01*
X75063111Y-44531480D01*
X74796889Y-44531480D01*
X74535788Y-44479544D01*
X74289835Y-44377667D01*
X74068480Y-44229762D01*
X73880238Y-44041520D01*
X73732333Y-43820165D01*
X73630456Y-43574212D01*
X73578520Y-43313111D01*
X73578520Y-43046889D01*
X73630456Y-42785788D01*
X73732333Y-42539835D01*
X73880238Y-42318480D01*
X74068480Y-42130238D01*
X74289835Y-41982333D01*
X74535788Y-41880456D01*
X74796889Y-41828520D01*
X75063111Y-41828520D01*
X75324212Y-41880456D01*
X75324212Y-41880456D01*
G37*
G36*
X56274212Y-41880456D02*
X56520165Y-41982333D01*
X56741520Y-42130238D01*
X56929762Y-42318480D01*
X57077667Y-42539835D01*
X57179544Y-42785788D01*
X57231480Y-43046889D01*
X57231480Y-43313111D01*
X57179544Y-43574212D01*
X57077667Y-43820165D01*
X56929762Y-44041520D01*
X56741520Y-44229762D01*
X56520165Y-44377667D01*
X56274212Y-44479544D01*
X56013111Y-44531480D01*
X55746889Y-44531480D01*
X55485788Y-44479544D01*
X55239835Y-44377667D01*
X55018480Y-44229762D01*
X54830238Y-44041520D01*
X54682333Y-43820165D01*
X54580456Y-43574212D01*
X54528520Y-43313111D01*
X54528520Y-43046889D01*
X54580456Y-42785788D01*
X54682333Y-42539835D01*
X54830238Y-42318480D01*
X55018480Y-42130238D01*
X55239835Y-41982333D01*
X55485788Y-41880456D01*
X55746889Y-41828520D01*
X56013111Y-41828520D01*
X56274212Y-41880456D01*
X56274212Y-41880456D01*
G37*
G36*
X97108677Y-41043465D02*
X97146364Y-41054898D01*
X97181103Y-41073466D01*
X97211548Y-41098452D01*
X97236534Y-41128897D01*
X97255102Y-41163636D01*
X97266535Y-41201323D01*
X97271000Y-41246661D01*
X97271000Y-42083339D01*
X97266535Y-42128677D01*
X97255102Y-42166364D01*
X97236534Y-42201103D01*
X97211548Y-42231548D01*
X97181103Y-42256534D01*
X97146364Y-42275102D01*
X97108677Y-42286535D01*
X97063339Y-42291000D01*
X95976661Y-42291000D01*
X95931323Y-42286535D01*
X95893636Y-42275102D01*
X95858897Y-42256534D01*
X95828452Y-42231548D01*
X95803466Y-42201103D01*
X95784898Y-42166364D01*
X95773465Y-42128677D01*
X95769000Y-42083339D01*
X95769000Y-41246661D01*
X95773465Y-41201323D01*
X95784898Y-41163636D01*
X95803466Y-41128897D01*
X95828452Y-41098452D01*
X95858897Y-41073466D01*
X95893636Y-41054898D01*
X95931323Y-41043465D01*
X95976661Y-41039000D01*
X97063339Y-41039000D01*
X97108677Y-41043465D01*
X97108677Y-41043465D01*
G37*
G36*
X93298677Y-41043465D02*
X93336364Y-41054898D01*
X93371103Y-41073466D01*
X93401548Y-41098452D01*
X93426534Y-41128897D01*
X93445102Y-41163636D01*
X93456535Y-41201323D01*
X93461000Y-41246661D01*
X93461000Y-42083339D01*
X93456535Y-42128677D01*
X93445102Y-42166364D01*
X93426534Y-42201103D01*
X93401548Y-42231548D01*
X93371103Y-42256534D01*
X93336364Y-42275102D01*
X93298677Y-42286535D01*
X93253339Y-42291000D01*
X92166661Y-42291000D01*
X92121323Y-42286535D01*
X92083636Y-42275102D01*
X92048897Y-42256534D01*
X92018452Y-42231548D01*
X91993466Y-42201103D01*
X91974898Y-42166364D01*
X91963465Y-42128677D01*
X91959000Y-42083339D01*
X91959000Y-41246661D01*
X91963465Y-41201323D01*
X91974898Y-41163636D01*
X91993466Y-41128897D01*
X92018452Y-41098452D01*
X92048897Y-41073466D01*
X92083636Y-41054898D01*
X92121323Y-41043465D01*
X92166661Y-41039000D01*
X93253339Y-41039000D01*
X93298677Y-41043465D01*
X93298677Y-41043465D01*
G37*
G36*
X81674212Y-39340456D02*
X81920165Y-39442333D01*
X82141520Y-39590238D01*
X82329762Y-39778480D01*
X82477667Y-39999835D01*
X82579544Y-40245788D01*
X82631480Y-40506889D01*
X82631480Y-40773111D01*
X82579544Y-41034212D01*
X82477667Y-41280165D01*
X82329762Y-41501520D01*
X82141520Y-41689762D01*
X81920165Y-41837667D01*
X81674212Y-41939544D01*
X81413111Y-41991480D01*
X81146889Y-41991480D01*
X80885788Y-41939544D01*
X80639835Y-41837667D01*
X80418480Y-41689762D01*
X80230238Y-41501520D01*
X80082333Y-41280165D01*
X79980456Y-41034212D01*
X79928520Y-40773111D01*
X79928520Y-40506889D01*
X79980456Y-40245788D01*
X80082333Y-39999835D01*
X80230238Y-39778480D01*
X80418480Y-39590238D01*
X80639835Y-39442333D01*
X80885788Y-39340456D01*
X81146889Y-39288520D01*
X81413111Y-39288520D01*
X81674212Y-39340456D01*
X81674212Y-39340456D01*
G37*
G36*
X62624212Y-39340456D02*
X62870165Y-39442333D01*
X63091520Y-39590238D01*
X63279762Y-39778480D01*
X63427667Y-39999835D01*
X63529544Y-40245788D01*
X63581480Y-40506889D01*
X63581480Y-40773111D01*
X63529544Y-41034212D01*
X63427667Y-41280165D01*
X63279762Y-41501520D01*
X63091520Y-41689762D01*
X62870165Y-41837667D01*
X62624212Y-41939544D01*
X62363111Y-41991480D01*
X62096889Y-41991480D01*
X61835788Y-41939544D01*
X61589835Y-41837667D01*
X61368480Y-41689762D01*
X61180238Y-41501520D01*
X61032333Y-41280165D01*
X60930456Y-41034212D01*
X60878520Y-40773111D01*
X60878520Y-40506889D01*
X60930456Y-40245788D01*
X61032333Y-39999835D01*
X61180238Y-39778480D01*
X61368480Y-39590238D01*
X61589835Y-39442333D01*
X61835788Y-39340456D01*
X62096889Y-39288520D01*
X62363111Y-39288520D01*
X62624212Y-39340456D01*
X62624212Y-39340456D01*
G37*
G36*
X106898677Y-39131465D02*
X106936364Y-39142898D01*
X106971103Y-39161466D01*
X107001548Y-39186452D01*
X107026534Y-39216897D01*
X107045102Y-39251636D01*
X107056535Y-39289323D01*
X107061000Y-39334661D01*
X107061000Y-40421339D01*
X107056535Y-40466677D01*
X107045102Y-40504364D01*
X107026534Y-40539103D01*
X107001548Y-40569548D01*
X106971103Y-40594534D01*
X106936364Y-40613102D01*
X106898677Y-40624535D01*
X106853339Y-40629000D01*
X106016661Y-40629000D01*
X105971323Y-40624535D01*
X105933636Y-40613102D01*
X105898897Y-40594534D01*
X105868452Y-40569548D01*
X105843466Y-40539103D01*
X105824898Y-40504364D01*
X105813465Y-40466677D01*
X105809000Y-40421339D01*
X105809000Y-39334661D01*
X105813465Y-39289323D01*
X105824898Y-39251636D01*
X105843466Y-39216897D01*
X105868452Y-39186452D01*
X105898897Y-39161466D01*
X105933636Y-39142898D01*
X105971323Y-39131465D01*
X106016661Y-39127000D01*
X106853339Y-39127000D01*
X106898677Y-39131465D01*
X106898677Y-39131465D01*
G37*
G36*
X104848677Y-39131465D02*
X104886364Y-39142898D01*
X104921103Y-39161466D01*
X104951548Y-39186452D01*
X104976534Y-39216897D01*
X104995102Y-39251636D01*
X105006535Y-39289323D01*
X105011000Y-39334661D01*
X105011000Y-40421339D01*
X105006535Y-40466677D01*
X104995102Y-40504364D01*
X104976534Y-40539103D01*
X104951548Y-40569548D01*
X104921103Y-40594534D01*
X104886364Y-40613102D01*
X104848677Y-40624535D01*
X104803339Y-40629000D01*
X103966661Y-40629000D01*
X103921323Y-40624535D01*
X103883636Y-40613102D01*
X103848897Y-40594534D01*
X103818452Y-40569548D01*
X103793466Y-40539103D01*
X103774898Y-40504364D01*
X103763465Y-40466677D01*
X103759000Y-40421339D01*
X103759000Y-39334661D01*
X103763465Y-39289323D01*
X103774898Y-39251636D01*
X103793466Y-39216897D01*
X103818452Y-39186452D01*
X103848897Y-39161466D01*
X103883636Y-39142898D01*
X103921323Y-39131465D01*
X103966661Y-39127000D01*
X104803339Y-39127000D01*
X104848677Y-39131465D01*
X104848677Y-39131465D01*
G37*
G36*
X97108677Y-38993465D02*
X97146364Y-39004898D01*
X97181103Y-39023466D01*
X97211548Y-39048452D01*
X97236534Y-39078897D01*
X97255102Y-39113636D01*
X97266535Y-39151323D01*
X97271000Y-39196661D01*
X97271000Y-40033339D01*
X97266535Y-40078677D01*
X97255102Y-40116364D01*
X97236534Y-40151103D01*
X97211548Y-40181548D01*
X97181103Y-40206534D01*
X97146364Y-40225102D01*
X97108677Y-40236535D01*
X97063339Y-40241000D01*
X95976661Y-40241000D01*
X95931323Y-40236535D01*
X95893636Y-40225102D01*
X95858897Y-40206534D01*
X95828452Y-40181548D01*
X95803466Y-40151103D01*
X95784898Y-40116364D01*
X95773465Y-40078677D01*
X95769000Y-40033339D01*
X95769000Y-39196661D01*
X95773465Y-39151323D01*
X95784898Y-39113636D01*
X95803466Y-39078897D01*
X95828452Y-39048452D01*
X95858897Y-39023466D01*
X95893636Y-39004898D01*
X95931323Y-38993465D01*
X95976661Y-38989000D01*
X97063339Y-38989000D01*
X97108677Y-38993465D01*
X97108677Y-38993465D01*
G37*
G36*
X93298677Y-38993465D02*
X93336364Y-39004898D01*
X93371103Y-39023466D01*
X93401548Y-39048452D01*
X93426534Y-39078897D01*
X93445102Y-39113636D01*
X93456535Y-39151323D01*
X93461000Y-39196661D01*
X93461000Y-40033339D01*
X93456535Y-40078677D01*
X93445102Y-40116364D01*
X93426534Y-40151103D01*
X93401548Y-40181548D01*
X93371103Y-40206534D01*
X93336364Y-40225102D01*
X93298677Y-40236535D01*
X93253339Y-40241000D01*
X92166661Y-40241000D01*
X92121323Y-40236535D01*
X92083636Y-40225102D01*
X92048897Y-40206534D01*
X92018452Y-40181548D01*
X91993466Y-40151103D01*
X91974898Y-40116364D01*
X91963465Y-40078677D01*
X91959000Y-40033339D01*
X91959000Y-39196661D01*
X91963465Y-39151323D01*
X91974898Y-39113636D01*
X91993466Y-39078897D01*
X92018452Y-39048452D01*
X92048897Y-39023466D01*
X92083636Y-39004898D01*
X92121323Y-38993465D01*
X92166661Y-38989000D01*
X93253339Y-38989000D01*
X93298677Y-38993465D01*
X93298677Y-38993465D01*
G37*
G36*
X78082774Y-36079951D02*
X78465091Y-36238312D01*
X78465093Y-36238313D01*
X78804596Y-36465161D01*
X78809172Y-36468219D01*
X79101781Y-36760828D01*
X79331688Y-37104909D01*
X79490049Y-37487226D01*
X79570780Y-37893090D01*
X79570780Y-38306910D01*
X79490049Y-38712774D01*
X79342612Y-39068718D01*
X79331687Y-39095093D01*
X79256195Y-39208075D01*
X79101781Y-39439172D01*
X78809172Y-39731781D01*
X78809169Y-39731783D01*
X78465093Y-39961687D01*
X78465092Y-39961688D01*
X78465091Y-39961688D01*
X78082774Y-40120049D01*
X77676910Y-40200780D01*
X77263090Y-40200780D01*
X76857226Y-40120049D01*
X76474909Y-39961688D01*
X76474908Y-39961688D01*
X76474907Y-39961687D01*
X76130831Y-39731783D01*
X76130828Y-39731781D01*
X75838219Y-39439172D01*
X75683805Y-39208075D01*
X75608313Y-39095093D01*
X75597388Y-39068718D01*
X75449951Y-38712774D01*
X75369220Y-38306910D01*
X75369220Y-37893090D01*
X75449951Y-37487226D01*
X75608312Y-37104909D01*
X75838219Y-36760828D01*
X76130828Y-36468219D01*
X76135404Y-36465161D01*
X76474907Y-36238313D01*
X76474909Y-36238312D01*
X76857226Y-36079951D01*
X77263090Y-35999220D01*
X77676910Y-35999220D01*
X78082774Y-36079951D01*
X78082774Y-36079951D01*
G37*
G36*
X59032774Y-36079951D02*
X59415091Y-36238312D01*
X59415093Y-36238313D01*
X59754596Y-36465161D01*
X59759172Y-36468219D01*
X60051781Y-36760828D01*
X60281688Y-37104909D01*
X60440049Y-37487226D01*
X60520780Y-37893090D01*
X60520780Y-38306910D01*
X60440049Y-38712774D01*
X60292612Y-39068718D01*
X60281687Y-39095093D01*
X60206195Y-39208075D01*
X60051781Y-39439172D01*
X59759172Y-39731781D01*
X59759169Y-39731783D01*
X59415093Y-39961687D01*
X59415092Y-39961688D01*
X59415091Y-39961688D01*
X59032774Y-40120049D01*
X58626910Y-40200780D01*
X58213090Y-40200780D01*
X57807226Y-40120049D01*
X57424909Y-39961688D01*
X57424908Y-39961688D01*
X57424907Y-39961687D01*
X57080831Y-39731783D01*
X57080828Y-39731781D01*
X56788219Y-39439172D01*
X56633805Y-39208075D01*
X56558313Y-39095093D01*
X56547388Y-39068718D01*
X56399951Y-38712774D01*
X56319220Y-38306910D01*
X56319220Y-37893090D01*
X56399951Y-37487226D01*
X56558312Y-37104909D01*
X56788219Y-36760828D01*
X57080828Y-36468219D01*
X57085404Y-36465161D01*
X57424907Y-36238313D01*
X57424909Y-36238312D01*
X57807226Y-36079951D01*
X58213090Y-35999220D01*
X58626910Y-35999220D01*
X59032774Y-36079951D01*
X59032774Y-36079951D01*
G37*
G36*
X63762704Y-37233980D02*
X63926607Y-37301871D01*
X64074121Y-37400437D01*
X64199563Y-37525879D01*
X64298129Y-37673393D01*
X64366020Y-37837296D01*
X64400630Y-38011294D01*
X64400630Y-38188706D01*
X64366020Y-38362704D01*
X64298129Y-38526607D01*
X64199563Y-38674121D01*
X64074121Y-38799563D01*
X63926607Y-38898129D01*
X63762704Y-38966020D01*
X63588706Y-39000630D01*
X63411294Y-39000630D01*
X63237296Y-38966020D01*
X63073393Y-38898129D01*
X62925879Y-38799563D01*
X62800437Y-38674121D01*
X62701871Y-38526607D01*
X62633980Y-38362704D01*
X62599370Y-38188706D01*
X62599370Y-38011294D01*
X62633980Y-37837296D01*
X62701871Y-37673393D01*
X62800437Y-37525879D01*
X62925879Y-37400437D01*
X63073393Y-37301871D01*
X63237296Y-37233980D01*
X63411294Y-37199370D01*
X63588706Y-37199370D01*
X63762704Y-37233980D01*
X63762704Y-37233980D01*
G37*
G36*
X82812704Y-37233980D02*
X82976607Y-37301871D01*
X83124121Y-37400437D01*
X83249563Y-37525879D01*
X83348129Y-37673393D01*
X83416020Y-37837296D01*
X83450630Y-38011294D01*
X83450630Y-38188706D01*
X83416020Y-38362704D01*
X83348129Y-38526607D01*
X83249563Y-38674121D01*
X83124121Y-38799563D01*
X82976607Y-38898129D01*
X82812704Y-38966020D01*
X82638706Y-39000630D01*
X82461294Y-39000630D01*
X82287296Y-38966020D01*
X82123393Y-38898129D01*
X81975879Y-38799563D01*
X81850437Y-38674121D01*
X81751871Y-38526607D01*
X81683980Y-38362704D01*
X81649370Y-38188706D01*
X81649370Y-38011294D01*
X81683980Y-37837296D01*
X81751871Y-37673393D01*
X81850437Y-37525879D01*
X81975879Y-37400437D01*
X82123393Y-37301871D01*
X82287296Y-37233980D01*
X82461294Y-37199370D01*
X82638706Y-37199370D01*
X82812704Y-37233980D01*
X82812704Y-37233980D01*
G37*
G36*
X72652704Y-37233980D02*
X72816607Y-37301871D01*
X72964121Y-37400437D01*
X73089563Y-37525879D01*
X73188129Y-37673393D01*
X73256020Y-37837296D01*
X73290630Y-38011294D01*
X73290630Y-38188706D01*
X73256020Y-38362704D01*
X73188129Y-38526607D01*
X73089563Y-38674121D01*
X72964121Y-38799563D01*
X72816607Y-38898129D01*
X72652704Y-38966020D01*
X72478706Y-39000630D01*
X72301294Y-39000630D01*
X72127296Y-38966020D01*
X71963393Y-38898129D01*
X71815879Y-38799563D01*
X71690437Y-38674121D01*
X71591871Y-38526607D01*
X71523980Y-38362704D01*
X71489370Y-38188706D01*
X71489370Y-38011294D01*
X71523980Y-37837296D01*
X71591871Y-37673393D01*
X71690437Y-37525879D01*
X71815879Y-37400437D01*
X71963393Y-37301871D01*
X72127296Y-37233980D01*
X72301294Y-37199370D01*
X72478706Y-37199370D01*
X72652704Y-37233980D01*
X72652704Y-37233980D01*
G37*
G36*
X53602704Y-37233980D02*
X53766607Y-37301871D01*
X53914121Y-37400437D01*
X54039563Y-37525879D01*
X54138129Y-37673393D01*
X54206020Y-37837296D01*
X54240630Y-38011294D01*
X54240630Y-38188706D01*
X54206020Y-38362704D01*
X54138129Y-38526607D01*
X54039563Y-38674121D01*
X53914121Y-38799563D01*
X53766607Y-38898129D01*
X53602704Y-38966020D01*
X53428706Y-39000630D01*
X53251294Y-39000630D01*
X53077296Y-38966020D01*
X52913393Y-38898129D01*
X52765879Y-38799563D01*
X52640437Y-38674121D01*
X52541871Y-38526607D01*
X52473980Y-38362704D01*
X52439370Y-38188706D01*
X52439370Y-38011294D01*
X52473980Y-37837296D01*
X52541871Y-37673393D01*
X52640437Y-37525879D01*
X52765879Y-37400437D01*
X52913393Y-37301871D01*
X53077296Y-37233980D01*
X53251294Y-37199370D01*
X53428706Y-37199370D01*
X53602704Y-37233980D01*
X53602704Y-37233980D01*
G37*
G36*
X71708677Y-33423465D02*
X71746364Y-33434898D01*
X71781103Y-33453466D01*
X71811548Y-33478452D01*
X71836534Y-33508897D01*
X71855102Y-33543636D01*
X71866535Y-33581323D01*
X71871000Y-33626661D01*
X71871000Y-34463339D01*
X71866535Y-34508677D01*
X71855102Y-34546364D01*
X71836534Y-34581103D01*
X71811548Y-34611548D01*
X71781103Y-34636534D01*
X71746364Y-34655102D01*
X71708677Y-34666535D01*
X71663339Y-34671000D01*
X70576661Y-34671000D01*
X70531323Y-34666535D01*
X70493636Y-34655102D01*
X70458897Y-34636534D01*
X70428452Y-34611548D01*
X70403466Y-34581103D01*
X70384898Y-34546364D01*
X70373465Y-34508677D01*
X70369000Y-34463339D01*
X70369000Y-33626661D01*
X70373465Y-33581323D01*
X70384898Y-33543636D01*
X70403466Y-33508897D01*
X70428452Y-33478452D01*
X70458897Y-33453466D01*
X70493636Y-33434898D01*
X70531323Y-33423465D01*
X70576661Y-33419000D01*
X71663339Y-33419000D01*
X71708677Y-33423465D01*
X71708677Y-33423465D01*
G37*
G36*
X52658677Y-33423465D02*
X52696364Y-33434898D01*
X52731103Y-33453466D01*
X52761548Y-33478452D01*
X52786534Y-33508897D01*
X52805102Y-33543636D01*
X52816535Y-33581323D01*
X52821000Y-33626661D01*
X52821000Y-34463339D01*
X52816535Y-34508677D01*
X52805102Y-34546364D01*
X52786534Y-34581103D01*
X52761548Y-34611548D01*
X52731103Y-34636534D01*
X52696364Y-34655102D01*
X52658677Y-34666535D01*
X52613339Y-34671000D01*
X51526661Y-34671000D01*
X51481323Y-34666535D01*
X51443636Y-34655102D01*
X51408897Y-34636534D01*
X51378452Y-34611548D01*
X51353466Y-34581103D01*
X51334898Y-34546364D01*
X51323465Y-34508677D01*
X51319000Y-34463339D01*
X51319000Y-33626661D01*
X51323465Y-33581323D01*
X51334898Y-33543636D01*
X51353466Y-33508897D01*
X51378452Y-33478452D01*
X51408897Y-33453466D01*
X51443636Y-33434898D01*
X51481323Y-33423465D01*
X51526661Y-33419000D01*
X52613339Y-33419000D01*
X52658677Y-33423465D01*
X52658677Y-33423465D01*
G37*
G36*
X65358677Y-33423465D02*
X65396364Y-33434898D01*
X65431103Y-33453466D01*
X65461548Y-33478452D01*
X65486534Y-33508897D01*
X65505102Y-33543636D01*
X65516535Y-33581323D01*
X65521000Y-33626661D01*
X65521000Y-34463339D01*
X65516535Y-34508677D01*
X65505102Y-34546364D01*
X65486534Y-34581103D01*
X65461548Y-34611548D01*
X65431103Y-34636534D01*
X65396364Y-34655102D01*
X65358677Y-34666535D01*
X65313339Y-34671000D01*
X64226661Y-34671000D01*
X64181323Y-34666535D01*
X64143636Y-34655102D01*
X64108897Y-34636534D01*
X64078452Y-34611548D01*
X64053466Y-34581103D01*
X64034898Y-34546364D01*
X64023465Y-34508677D01*
X64019000Y-34463339D01*
X64019000Y-33626661D01*
X64023465Y-33581323D01*
X64034898Y-33543636D01*
X64053466Y-33508897D01*
X64078452Y-33478452D01*
X64108897Y-33453466D01*
X64143636Y-33434898D01*
X64181323Y-33423465D01*
X64226661Y-33419000D01*
X65313339Y-33419000D01*
X65358677Y-33423465D01*
X65358677Y-33423465D01*
G37*
G36*
X84408677Y-33423465D02*
X84446364Y-33434898D01*
X84481103Y-33453466D01*
X84511548Y-33478452D01*
X84536534Y-33508897D01*
X84555102Y-33543636D01*
X84566535Y-33581323D01*
X84571000Y-33626661D01*
X84571000Y-34463339D01*
X84566535Y-34508677D01*
X84555102Y-34546364D01*
X84536534Y-34581103D01*
X84511548Y-34611548D01*
X84481103Y-34636534D01*
X84446364Y-34655102D01*
X84408677Y-34666535D01*
X84363339Y-34671000D01*
X83276661Y-34671000D01*
X83231323Y-34666535D01*
X83193636Y-34655102D01*
X83158897Y-34636534D01*
X83128452Y-34611548D01*
X83103466Y-34581103D01*
X83084898Y-34546364D01*
X83073465Y-34508677D01*
X83069000Y-34463339D01*
X83069000Y-33626661D01*
X83073465Y-33581323D01*
X83084898Y-33543636D01*
X83103466Y-33508897D01*
X83128452Y-33478452D01*
X83158897Y-33453466D01*
X83193636Y-33434898D01*
X83231323Y-33423465D01*
X83276661Y-33419000D01*
X84363339Y-33419000D01*
X84408677Y-33423465D01*
X84408677Y-33423465D01*
G37*
G36*
X59938257Y-32201607D02*
X60093144Y-32265763D01*
X60093147Y-32265765D01*
X60217458Y-32348827D01*
X60232549Y-32358911D01*
X60351089Y-32477451D01*
X60351091Y-32477454D01*
X60351092Y-32477455D01*
X60393740Y-32541282D01*
X60444237Y-32616856D01*
X60508393Y-32771743D01*
X60541100Y-32936173D01*
X60541100Y-33103827D01*
X60508393Y-33268257D01*
X60444237Y-33423144D01*
X60444235Y-33423147D01*
X60363727Y-33543636D01*
X60351089Y-33562549D01*
X60232549Y-33681089D01*
X60232546Y-33681091D01*
X60232545Y-33681092D01*
X60093147Y-33774235D01*
X60093144Y-33774237D01*
X59938257Y-33838393D01*
X59773827Y-33871100D01*
X59606173Y-33871100D01*
X59441743Y-33838393D01*
X59286856Y-33774237D01*
X59286853Y-33774235D01*
X59147455Y-33681092D01*
X59147454Y-33681091D01*
X59147451Y-33681089D01*
X59028911Y-33562549D01*
X59016274Y-33543636D01*
X58935765Y-33423147D01*
X58935763Y-33423144D01*
X58871607Y-33268257D01*
X58838900Y-33103827D01*
X58838900Y-32936173D01*
X58871607Y-32771743D01*
X58935763Y-32616856D01*
X58986260Y-32541282D01*
X59028908Y-32477455D01*
X59028909Y-32477454D01*
X59028911Y-32477451D01*
X59147451Y-32358911D01*
X59162543Y-32348827D01*
X59286853Y-32265765D01*
X59286856Y-32265763D01*
X59441743Y-32201607D01*
X59606173Y-32168900D01*
X59773827Y-32168900D01*
X59938257Y-32201607D01*
X59938257Y-32201607D01*
G37*
G36*
X78988257Y-32201607D02*
X79143144Y-32265763D01*
X79143147Y-32265765D01*
X79267458Y-32348827D01*
X79282549Y-32358911D01*
X79401089Y-32477451D01*
X79401091Y-32477454D01*
X79401092Y-32477455D01*
X79443740Y-32541282D01*
X79494237Y-32616856D01*
X79558393Y-32771743D01*
X79591100Y-32936173D01*
X79591100Y-33103827D01*
X79558393Y-33268257D01*
X79494237Y-33423144D01*
X79494235Y-33423147D01*
X79413727Y-33543636D01*
X79401089Y-33562549D01*
X79282549Y-33681089D01*
X79282546Y-33681091D01*
X79282545Y-33681092D01*
X79143147Y-33774235D01*
X79143144Y-33774237D01*
X78988257Y-33838393D01*
X78823827Y-33871100D01*
X78656173Y-33871100D01*
X78491743Y-33838393D01*
X78336856Y-33774237D01*
X78336853Y-33774235D01*
X78197455Y-33681092D01*
X78197454Y-33681091D01*
X78197451Y-33681089D01*
X78078911Y-33562549D01*
X78066274Y-33543636D01*
X77985765Y-33423147D01*
X77985763Y-33423144D01*
X77921607Y-33268257D01*
X77888900Y-33103827D01*
X77888900Y-32936173D01*
X77921607Y-32771743D01*
X77985763Y-32616856D01*
X78036260Y-32541282D01*
X78078908Y-32477455D01*
X78078909Y-32477454D01*
X78078911Y-32477451D01*
X78197451Y-32358911D01*
X78212543Y-32348827D01*
X78336853Y-32265765D01*
X78336856Y-32265763D01*
X78491743Y-32201607D01*
X78656173Y-32168900D01*
X78823827Y-32168900D01*
X78988257Y-32201607D01*
X78988257Y-32201607D01*
G37*
G36*
X57398257Y-32201607D02*
X57553144Y-32265763D01*
X57553147Y-32265765D01*
X57677458Y-32348827D01*
X57692549Y-32358911D01*
X57811089Y-32477451D01*
X57811091Y-32477454D01*
X57811092Y-32477455D01*
X57853740Y-32541282D01*
X57904237Y-32616856D01*
X57968393Y-32771743D01*
X58001100Y-32936173D01*
X58001100Y-33103827D01*
X57968393Y-33268257D01*
X57904237Y-33423144D01*
X57904235Y-33423147D01*
X57823727Y-33543636D01*
X57811089Y-33562549D01*
X57692549Y-33681089D01*
X57692546Y-33681091D01*
X57692545Y-33681092D01*
X57553147Y-33774235D01*
X57553144Y-33774237D01*
X57398257Y-33838393D01*
X57233827Y-33871100D01*
X57066173Y-33871100D01*
X56901743Y-33838393D01*
X56746856Y-33774237D01*
X56746853Y-33774235D01*
X56607455Y-33681092D01*
X56607454Y-33681091D01*
X56607451Y-33681089D01*
X56488911Y-33562549D01*
X56476274Y-33543636D01*
X56395765Y-33423147D01*
X56395763Y-33423144D01*
X56331607Y-33268257D01*
X56298900Y-33103827D01*
X56298900Y-32936173D01*
X56331607Y-32771743D01*
X56395763Y-32616856D01*
X56446260Y-32541282D01*
X56488908Y-32477455D01*
X56488909Y-32477454D01*
X56488911Y-32477451D01*
X56607451Y-32358911D01*
X56622543Y-32348827D01*
X56746853Y-32265765D01*
X56746856Y-32265763D01*
X56901743Y-32201607D01*
X57066173Y-32168900D01*
X57233827Y-32168900D01*
X57398257Y-32201607D01*
X57398257Y-32201607D01*
G37*
G36*
X76448257Y-32201607D02*
X76603144Y-32265763D01*
X76603147Y-32265765D01*
X76727458Y-32348827D01*
X76742549Y-32358911D01*
X76861089Y-32477451D01*
X76861091Y-32477454D01*
X76861092Y-32477455D01*
X76903740Y-32541282D01*
X76954237Y-32616856D01*
X77018393Y-32771743D01*
X77051100Y-32936173D01*
X77051100Y-33103827D01*
X77018393Y-33268257D01*
X76954237Y-33423144D01*
X76954235Y-33423147D01*
X76873727Y-33543636D01*
X76861089Y-33562549D01*
X76742549Y-33681089D01*
X76742546Y-33681091D01*
X76742545Y-33681092D01*
X76603147Y-33774235D01*
X76603144Y-33774237D01*
X76448257Y-33838393D01*
X76283827Y-33871100D01*
X76116173Y-33871100D01*
X75951743Y-33838393D01*
X75796856Y-33774237D01*
X75796853Y-33774235D01*
X75657455Y-33681092D01*
X75657454Y-33681091D01*
X75657451Y-33681089D01*
X75538911Y-33562549D01*
X75526274Y-33543636D01*
X75445765Y-33423147D01*
X75445763Y-33423144D01*
X75381607Y-33268257D01*
X75348900Y-33103827D01*
X75348900Y-32936173D01*
X75381607Y-32771743D01*
X75445763Y-32616856D01*
X75496260Y-32541282D01*
X75538908Y-32477455D01*
X75538909Y-32477454D01*
X75538911Y-32477451D01*
X75657451Y-32358911D01*
X75672543Y-32348827D01*
X75796853Y-32265765D01*
X75796856Y-32265763D01*
X75951743Y-32201607D01*
X76116173Y-32168900D01*
X76283827Y-32168900D01*
X76448257Y-32201607D01*
X76448257Y-32201607D01*
G37*
G36*
X84408677Y-31373465D02*
X84446364Y-31384898D01*
X84481103Y-31403466D01*
X84511548Y-31428452D01*
X84536534Y-31458897D01*
X84555102Y-31493636D01*
X84566535Y-31531323D01*
X84571000Y-31576661D01*
X84571000Y-32413339D01*
X84566535Y-32458677D01*
X84555102Y-32496364D01*
X84536534Y-32531103D01*
X84511548Y-32561548D01*
X84481103Y-32586534D01*
X84446364Y-32605102D01*
X84408677Y-32616535D01*
X84363339Y-32621000D01*
X83276661Y-32621000D01*
X83231323Y-32616535D01*
X83193636Y-32605102D01*
X83158897Y-32586534D01*
X83128452Y-32561548D01*
X83103466Y-32531103D01*
X83084898Y-32496364D01*
X83073465Y-32458677D01*
X83069000Y-32413339D01*
X83069000Y-31576661D01*
X83073465Y-31531323D01*
X83084898Y-31493636D01*
X83103466Y-31458897D01*
X83128452Y-31428452D01*
X83158897Y-31403466D01*
X83193636Y-31384898D01*
X83231323Y-31373465D01*
X83276661Y-31369000D01*
X84363339Y-31369000D01*
X84408677Y-31373465D01*
X84408677Y-31373465D01*
G37*
G36*
X65358677Y-31373465D02*
X65396364Y-31384898D01*
X65431103Y-31403466D01*
X65461548Y-31428452D01*
X65486534Y-31458897D01*
X65505102Y-31493636D01*
X65516535Y-31531323D01*
X65521000Y-31576661D01*
X65521000Y-32413339D01*
X65516535Y-32458677D01*
X65505102Y-32496364D01*
X65486534Y-32531103D01*
X65461548Y-32561548D01*
X65431103Y-32586534D01*
X65396364Y-32605102D01*
X65358677Y-32616535D01*
X65313339Y-32621000D01*
X64226661Y-32621000D01*
X64181323Y-32616535D01*
X64143636Y-32605102D01*
X64108897Y-32586534D01*
X64078452Y-32561548D01*
X64053466Y-32531103D01*
X64034898Y-32496364D01*
X64023465Y-32458677D01*
X64019000Y-32413339D01*
X64019000Y-31576661D01*
X64023465Y-31531323D01*
X64034898Y-31493636D01*
X64053466Y-31458897D01*
X64078452Y-31428452D01*
X64108897Y-31403466D01*
X64143636Y-31384898D01*
X64181323Y-31373465D01*
X64226661Y-31369000D01*
X65313339Y-31369000D01*
X65358677Y-31373465D01*
X65358677Y-31373465D01*
G37*
G36*
X71708677Y-31373465D02*
X71746364Y-31384898D01*
X71781103Y-31403466D01*
X71811548Y-31428452D01*
X71836534Y-31458897D01*
X71855102Y-31493636D01*
X71866535Y-31531323D01*
X71871000Y-31576661D01*
X71871000Y-32413339D01*
X71866535Y-32458677D01*
X71855102Y-32496364D01*
X71836534Y-32531103D01*
X71811548Y-32561548D01*
X71781103Y-32586534D01*
X71746364Y-32605102D01*
X71708677Y-32616535D01*
X71663339Y-32621000D01*
X70576661Y-32621000D01*
X70531323Y-32616535D01*
X70493636Y-32605102D01*
X70458897Y-32586534D01*
X70428452Y-32561548D01*
X70403466Y-32531103D01*
X70384898Y-32496364D01*
X70373465Y-32458677D01*
X70369000Y-32413339D01*
X70369000Y-31576661D01*
X70373465Y-31531323D01*
X70384898Y-31493636D01*
X70403466Y-31458897D01*
X70428452Y-31428452D01*
X70458897Y-31403466D01*
X70493636Y-31384898D01*
X70531323Y-31373465D01*
X70576661Y-31369000D01*
X71663339Y-31369000D01*
X71708677Y-31373465D01*
X71708677Y-31373465D01*
G37*
G36*
X52658677Y-31373465D02*
X52696364Y-31384898D01*
X52731103Y-31403466D01*
X52761548Y-31428452D01*
X52786534Y-31458897D01*
X52805102Y-31493636D01*
X52816535Y-31531323D01*
X52821000Y-31576661D01*
X52821000Y-32413339D01*
X52816535Y-32458677D01*
X52805102Y-32496364D01*
X52786534Y-32531103D01*
X52761548Y-32561548D01*
X52731103Y-32586534D01*
X52696364Y-32605102D01*
X52658677Y-32616535D01*
X52613339Y-32621000D01*
X51526661Y-32621000D01*
X51481323Y-32616535D01*
X51443636Y-32605102D01*
X51408897Y-32586534D01*
X51378452Y-32561548D01*
X51353466Y-32531103D01*
X51334898Y-32496364D01*
X51323465Y-32458677D01*
X51319000Y-32413339D01*
X51319000Y-31576661D01*
X51323465Y-31531323D01*
X51334898Y-31493636D01*
X51353466Y-31458897D01*
X51378452Y-31428452D01*
X51408897Y-31403466D01*
X51443636Y-31384898D01*
X51481323Y-31373465D01*
X51526661Y-31369000D01*
X52613339Y-31369000D01*
X52658677Y-31373465D01*
X52658677Y-31373465D01*
G37*
G36*
X98378677Y-26819465D02*
X98416364Y-26830898D01*
X98451103Y-26849466D01*
X98481548Y-26874452D01*
X98506534Y-26904897D01*
X98525102Y-26939636D01*
X98536535Y-26977323D01*
X98541000Y-27022661D01*
X98541000Y-27859339D01*
X98536535Y-27904677D01*
X98525102Y-27942364D01*
X98506534Y-27977103D01*
X98481548Y-28007548D01*
X98451103Y-28032534D01*
X98416364Y-28051102D01*
X98378677Y-28062535D01*
X98333339Y-28067000D01*
X97246661Y-28067000D01*
X97201323Y-28062535D01*
X97163636Y-28051102D01*
X97128897Y-28032534D01*
X97098452Y-28007548D01*
X97073466Y-27977103D01*
X97054898Y-27942364D01*
X97043465Y-27904677D01*
X97039000Y-27859339D01*
X97039000Y-27022661D01*
X97043465Y-26977323D01*
X97054898Y-26939636D01*
X97073466Y-26904897D01*
X97098452Y-26874452D01*
X97128897Y-26849466D01*
X97163636Y-26830898D01*
X97201323Y-26819465D01*
X97246661Y-26815000D01*
X98333339Y-26815000D01*
X98378677Y-26819465D01*
X98378677Y-26819465D01*
G37*
G36*
X101680677Y-26819465D02*
X101718364Y-26830898D01*
X101753103Y-26849466D01*
X101783548Y-26874452D01*
X101808534Y-26904897D01*
X101827102Y-26939636D01*
X101838535Y-26977323D01*
X101843000Y-27022661D01*
X101843000Y-27859339D01*
X101838535Y-27904677D01*
X101827102Y-27942364D01*
X101808534Y-27977103D01*
X101783548Y-28007548D01*
X101753103Y-28032534D01*
X101718364Y-28051102D01*
X101680677Y-28062535D01*
X101635339Y-28067000D01*
X100548661Y-28067000D01*
X100503323Y-28062535D01*
X100465636Y-28051102D01*
X100430897Y-28032534D01*
X100400452Y-28007548D01*
X100375466Y-27977103D01*
X100356898Y-27942364D01*
X100345465Y-27904677D01*
X100341000Y-27859339D01*
X100341000Y-27022661D01*
X100345465Y-26977323D01*
X100356898Y-26939636D01*
X100375466Y-26904897D01*
X100400452Y-26874452D01*
X100430897Y-26849466D01*
X100465636Y-26830898D01*
X100503323Y-26819465D01*
X100548661Y-26815000D01*
X101635339Y-26815000D01*
X101680677Y-26819465D01*
X101680677Y-26819465D01*
G37*
G36*
X105236677Y-26819465D02*
X105274364Y-26830898D01*
X105309103Y-26849466D01*
X105339548Y-26874452D01*
X105364534Y-26904897D01*
X105383102Y-26939636D01*
X105394535Y-26977323D01*
X105399000Y-27022661D01*
X105399000Y-27859339D01*
X105394535Y-27904677D01*
X105383102Y-27942364D01*
X105364534Y-27977103D01*
X105339548Y-28007548D01*
X105309103Y-28032534D01*
X105274364Y-28051102D01*
X105236677Y-28062535D01*
X105191339Y-28067000D01*
X104104661Y-28067000D01*
X104059323Y-28062535D01*
X104021636Y-28051102D01*
X103986897Y-28032534D01*
X103956452Y-28007548D01*
X103931466Y-27977103D01*
X103912898Y-27942364D01*
X103901465Y-27904677D01*
X103897000Y-27859339D01*
X103897000Y-27022661D01*
X103901465Y-26977323D01*
X103912898Y-26939636D01*
X103931466Y-26904897D01*
X103956452Y-26874452D01*
X103986897Y-26849466D01*
X104021636Y-26830898D01*
X104059323Y-26819465D01*
X104104661Y-26815000D01*
X105191339Y-26815000D01*
X105236677Y-26819465D01*
X105236677Y-26819465D01*
G37*
G36*
X60532677Y-25803465D02*
X60570364Y-25814898D01*
X60605103Y-25833466D01*
X60635548Y-25858452D01*
X60660534Y-25888897D01*
X60679102Y-25923636D01*
X60690535Y-25961323D01*
X60695000Y-26006661D01*
X60695000Y-26843339D01*
X60690535Y-26888677D01*
X60679102Y-26926364D01*
X60660534Y-26961103D01*
X60635548Y-26991548D01*
X60605103Y-27016534D01*
X60570364Y-27035102D01*
X60532677Y-27046535D01*
X60487339Y-27051000D01*
X59400661Y-27051000D01*
X59355323Y-27046535D01*
X59317636Y-27035102D01*
X59282897Y-27016534D01*
X59252452Y-26991548D01*
X59227466Y-26961103D01*
X59208898Y-26926364D01*
X59197465Y-26888677D01*
X59193000Y-26843339D01*
X59193000Y-26006661D01*
X59197465Y-25961323D01*
X59208898Y-25923636D01*
X59227466Y-25888897D01*
X59252452Y-25858452D01*
X59282897Y-25833466D01*
X59317636Y-25814898D01*
X59355323Y-25803465D01*
X59400661Y-25799000D01*
X60487339Y-25799000D01*
X60532677Y-25803465D01*
X60532677Y-25803465D01*
G37*
G36*
X67136677Y-25803465D02*
X67174364Y-25814898D01*
X67209103Y-25833466D01*
X67239548Y-25858452D01*
X67264534Y-25888897D01*
X67283102Y-25923636D01*
X67294535Y-25961323D01*
X67299000Y-26006661D01*
X67299000Y-26843339D01*
X67294535Y-26888677D01*
X67283102Y-26926364D01*
X67264534Y-26961103D01*
X67239548Y-26991548D01*
X67209103Y-27016534D01*
X67174364Y-27035102D01*
X67136677Y-27046535D01*
X67091339Y-27051000D01*
X66004661Y-27051000D01*
X65959323Y-27046535D01*
X65921636Y-27035102D01*
X65886897Y-27016534D01*
X65856452Y-26991548D01*
X65831466Y-26961103D01*
X65812898Y-26926364D01*
X65801465Y-26888677D01*
X65797000Y-26843339D01*
X65797000Y-26006661D01*
X65801465Y-25961323D01*
X65812898Y-25923636D01*
X65831466Y-25888897D01*
X65856452Y-25858452D01*
X65886897Y-25833466D01*
X65921636Y-25814898D01*
X65959323Y-25803465D01*
X66004661Y-25799000D01*
X67091339Y-25799000D01*
X67136677Y-25803465D01*
X67136677Y-25803465D01*
G37*
G36*
X63580677Y-25803465D02*
X63618364Y-25814898D01*
X63653103Y-25833466D01*
X63683548Y-25858452D01*
X63708534Y-25888897D01*
X63727102Y-25923636D01*
X63738535Y-25961323D01*
X63743000Y-26006661D01*
X63743000Y-26843339D01*
X63738535Y-26888677D01*
X63727102Y-26926364D01*
X63708534Y-26961103D01*
X63683548Y-26991548D01*
X63653103Y-27016534D01*
X63618364Y-27035102D01*
X63580677Y-27046535D01*
X63535339Y-27051000D01*
X62448661Y-27051000D01*
X62403323Y-27046535D01*
X62365636Y-27035102D01*
X62330897Y-27016534D01*
X62300452Y-26991548D01*
X62275466Y-26961103D01*
X62256898Y-26926364D01*
X62245465Y-26888677D01*
X62241000Y-26843339D01*
X62241000Y-26006661D01*
X62245465Y-25961323D01*
X62256898Y-25923636D01*
X62275466Y-25888897D01*
X62300452Y-25858452D01*
X62330897Y-25833466D01*
X62365636Y-25814898D01*
X62403323Y-25803465D01*
X62448661Y-25799000D01*
X63535339Y-25799000D01*
X63580677Y-25803465D01*
X63580677Y-25803465D01*
G37*
G36*
X98378677Y-24769465D02*
X98416364Y-24780898D01*
X98451103Y-24799466D01*
X98481548Y-24824452D01*
X98506534Y-24854897D01*
X98525102Y-24889636D01*
X98536535Y-24927323D01*
X98541000Y-24972661D01*
X98541000Y-25809339D01*
X98536535Y-25854677D01*
X98525102Y-25892364D01*
X98506534Y-25927103D01*
X98481548Y-25957548D01*
X98451103Y-25982534D01*
X98416364Y-26001102D01*
X98378677Y-26012535D01*
X98333339Y-26017000D01*
X97246661Y-26017000D01*
X97201323Y-26012535D01*
X97163636Y-26001102D01*
X97128897Y-25982534D01*
X97098452Y-25957548D01*
X97073466Y-25927103D01*
X97054898Y-25892364D01*
X97043465Y-25854677D01*
X97039000Y-25809339D01*
X97039000Y-24972661D01*
X97043465Y-24927323D01*
X97054898Y-24889636D01*
X97073466Y-24854897D01*
X97098452Y-24824452D01*
X97128897Y-24799466D01*
X97163636Y-24780898D01*
X97201323Y-24769465D01*
X97246661Y-24765000D01*
X98333339Y-24765000D01*
X98378677Y-24769465D01*
X98378677Y-24769465D01*
G37*
G36*
X105236677Y-24769465D02*
X105274364Y-24780898D01*
X105309103Y-24799466D01*
X105339548Y-24824452D01*
X105364534Y-24854897D01*
X105383102Y-24889636D01*
X105394535Y-24927323D01*
X105399000Y-24972661D01*
X105399000Y-25809339D01*
X105394535Y-25854677D01*
X105383102Y-25892364D01*
X105364534Y-25927103D01*
X105339548Y-25957548D01*
X105309103Y-25982534D01*
X105274364Y-26001102D01*
X105236677Y-26012535D01*
X105191339Y-26017000D01*
X104104661Y-26017000D01*
X104059323Y-26012535D01*
X104021636Y-26001102D01*
X103986897Y-25982534D01*
X103956452Y-25957548D01*
X103931466Y-25927103D01*
X103912898Y-25892364D01*
X103901465Y-25854677D01*
X103897000Y-25809339D01*
X103897000Y-24972661D01*
X103901465Y-24927323D01*
X103912898Y-24889636D01*
X103931466Y-24854897D01*
X103956452Y-24824452D01*
X103986897Y-24799466D01*
X104021636Y-24780898D01*
X104059323Y-24769465D01*
X104104661Y-24765000D01*
X105191339Y-24765000D01*
X105236677Y-24769465D01*
X105236677Y-24769465D01*
G37*
G36*
X101680677Y-24769465D02*
X101718364Y-24780898D01*
X101753103Y-24799466D01*
X101783548Y-24824452D01*
X101808534Y-24854897D01*
X101827102Y-24889636D01*
X101838535Y-24927323D01*
X101843000Y-24972661D01*
X101843000Y-25809339D01*
X101838535Y-25854677D01*
X101827102Y-25892364D01*
X101808534Y-25927103D01*
X101783548Y-25957548D01*
X101753103Y-25982534D01*
X101718364Y-26001102D01*
X101680677Y-26012535D01*
X101635339Y-26017000D01*
X100548661Y-26017000D01*
X100503323Y-26012535D01*
X100465636Y-26001102D01*
X100430897Y-25982534D01*
X100400452Y-25957548D01*
X100375466Y-25927103D01*
X100356898Y-25892364D01*
X100345465Y-25854677D01*
X100341000Y-25809339D01*
X100341000Y-24972661D01*
X100345465Y-24927323D01*
X100356898Y-24889636D01*
X100375466Y-24854897D01*
X100400452Y-24824452D01*
X100430897Y-24799466D01*
X100465636Y-24780898D01*
X100503323Y-24769465D01*
X100548661Y-24765000D01*
X101635339Y-24765000D01*
X101680677Y-24769465D01*
X101680677Y-24769465D01*
G37*
G36*
X63580677Y-23753465D02*
X63618364Y-23764898D01*
X63653103Y-23783466D01*
X63683548Y-23808452D01*
X63708534Y-23838897D01*
X63727102Y-23873636D01*
X63738535Y-23911323D01*
X63743000Y-23956661D01*
X63743000Y-24793339D01*
X63738535Y-24838677D01*
X63727102Y-24876364D01*
X63708534Y-24911103D01*
X63683548Y-24941548D01*
X63653103Y-24966534D01*
X63618364Y-24985102D01*
X63580677Y-24996535D01*
X63535339Y-25001000D01*
X62448661Y-25001000D01*
X62403323Y-24996535D01*
X62365636Y-24985102D01*
X62330897Y-24966534D01*
X62300452Y-24941548D01*
X62275466Y-24911103D01*
X62256898Y-24876364D01*
X62245465Y-24838677D01*
X62241000Y-24793339D01*
X62241000Y-23956661D01*
X62245465Y-23911323D01*
X62256898Y-23873636D01*
X62275466Y-23838897D01*
X62300452Y-23808452D01*
X62330897Y-23783466D01*
X62365636Y-23764898D01*
X62403323Y-23753465D01*
X62448661Y-23749000D01*
X63535339Y-23749000D01*
X63580677Y-23753465D01*
X63580677Y-23753465D01*
G37*
G36*
X60532677Y-23753465D02*
X60570364Y-23764898D01*
X60605103Y-23783466D01*
X60635548Y-23808452D01*
X60660534Y-23838897D01*
X60679102Y-23873636D01*
X60690535Y-23911323D01*
X60695000Y-23956661D01*
X60695000Y-24793339D01*
X60690535Y-24838677D01*
X60679102Y-24876364D01*
X60660534Y-24911103D01*
X60635548Y-24941548D01*
X60605103Y-24966534D01*
X60570364Y-24985102D01*
X60532677Y-24996535D01*
X60487339Y-25001000D01*
X59400661Y-25001000D01*
X59355323Y-24996535D01*
X59317636Y-24985102D01*
X59282897Y-24966534D01*
X59252452Y-24941548D01*
X59227466Y-24911103D01*
X59208898Y-24876364D01*
X59197465Y-24838677D01*
X59193000Y-24793339D01*
X59193000Y-23956661D01*
X59197465Y-23911323D01*
X59208898Y-23873636D01*
X59227466Y-23838897D01*
X59252452Y-23808452D01*
X59282897Y-23783466D01*
X59317636Y-23764898D01*
X59355323Y-23753465D01*
X59400661Y-23749000D01*
X60487339Y-23749000D01*
X60532677Y-23753465D01*
X60532677Y-23753465D01*
G37*
G36*
X67136677Y-23753465D02*
X67174364Y-23764898D01*
X67209103Y-23783466D01*
X67239548Y-23808452D01*
X67264534Y-23838897D01*
X67283102Y-23873636D01*
X67294535Y-23911323D01*
X67299000Y-23956661D01*
X67299000Y-24793339D01*
X67294535Y-24838677D01*
X67283102Y-24876364D01*
X67264534Y-24911103D01*
X67239548Y-24941548D01*
X67209103Y-24966534D01*
X67174364Y-24985102D01*
X67136677Y-24996535D01*
X67091339Y-25001000D01*
X66004661Y-25001000D01*
X65959323Y-24996535D01*
X65921636Y-24985102D01*
X65886897Y-24966534D01*
X65856452Y-24941548D01*
X65831466Y-24911103D01*
X65812898Y-24876364D01*
X65801465Y-24838677D01*
X65797000Y-24793339D01*
X65797000Y-23956661D01*
X65801465Y-23911323D01*
X65812898Y-23873636D01*
X65831466Y-23838897D01*
X65856452Y-23808452D01*
X65886897Y-23783466D01*
X65921636Y-23764898D01*
X65959323Y-23753465D01*
X66004661Y-23749000D01*
X67091339Y-23749000D01*
X67136677Y-23753465D01*
X67136677Y-23753465D01*
G37*
G36*
X99991725Y-19478166D02*
X100119805Y-19531219D01*
X100175772Y-19568615D01*
X100235076Y-19608241D01*
X100333099Y-19706264D01*
X100410122Y-19821537D01*
X100415899Y-19835484D01*
X100460447Y-19943031D01*
X100466650Y-19958008D01*
X100468516Y-19964158D01*
X100480067Y-19985769D01*
X100495613Y-20004711D01*
X100514555Y-20020256D01*
X100536166Y-20031807D01*
X100559615Y-20038919D01*
X100584002Y-20041321D01*
X100608388Y-20038919D01*
X100631837Y-20031805D01*
X100653448Y-20020254D01*
X100672390Y-20004708D01*
X100687935Y-19985766D01*
X100699486Y-19964155D01*
X100701353Y-19958000D01*
X100757878Y-19821537D01*
X100834901Y-19706264D01*
X100932924Y-19608241D01*
X100992228Y-19568615D01*
X101048195Y-19531219D01*
X101176275Y-19478166D01*
X101312244Y-19451120D01*
X101450876Y-19451120D01*
X101586845Y-19478166D01*
X101714925Y-19531219D01*
X101770892Y-19568615D01*
X101830196Y-19608241D01*
X101928219Y-19706264D01*
X102005242Y-19821537D01*
X102058294Y-19949615D01*
X102085340Y-20085584D01*
X102085340Y-20224216D01*
X102058294Y-20360185D01*
X102009839Y-20477165D01*
X102002726Y-20500614D01*
X102000324Y-20525000D01*
X102002726Y-20549386D01*
X102009839Y-20572835D01*
X102021390Y-20594446D01*
X102036936Y-20613388D01*
X102055878Y-20628934D01*
X102077489Y-20640485D01*
X102100938Y-20647598D01*
X102125324Y-20650000D01*
X102250976Y-20650000D01*
X102386945Y-20677046D01*
X102515025Y-20730099D01*
X102602311Y-20788422D01*
X102630296Y-20807121D01*
X102728319Y-20905144D01*
X102728321Y-20905147D01*
X102797090Y-21008066D01*
X102805342Y-21020417D01*
X102858394Y-21148495D01*
X102885440Y-21284464D01*
X102885440Y-21423096D01*
X102858394Y-21559065D01*
X102805342Y-21687143D01*
X102728319Y-21802416D01*
X102630296Y-21900439D01*
X102630293Y-21900441D01*
X102515025Y-21977461D01*
X102386945Y-22030514D01*
X102250976Y-22057560D01*
X102112344Y-22057560D01*
X101976375Y-22030514D01*
X101848295Y-21977461D01*
X101733027Y-21900441D01*
X101733024Y-21900439D01*
X101635001Y-21802416D01*
X101557978Y-21687143D01*
X101542392Y-21649514D01*
X101504926Y-21559065D01*
X101504925Y-21559062D01*
X101503942Y-21556688D01*
X101498315Y-21538139D01*
X101486764Y-21516528D01*
X101471218Y-21497586D01*
X101452276Y-21482040D01*
X101430666Y-21470489D01*
X101407216Y-21463376D01*
X101382830Y-21460974D01*
X101358444Y-21463376D01*
X101334995Y-21470489D01*
X101313384Y-21482040D01*
X101294442Y-21497586D01*
X101278896Y-21516528D01*
X101267345Y-21538138D01*
X101261718Y-21556688D01*
X101260735Y-21559062D01*
X101260734Y-21559065D01*
X101223268Y-21649514D01*
X101207682Y-21687143D01*
X101130659Y-21802416D01*
X101032636Y-21900439D01*
X101032633Y-21900441D01*
X100917365Y-21977461D01*
X100789285Y-22030514D01*
X100653316Y-22057560D01*
X100514684Y-22057560D01*
X100378715Y-22030514D01*
X100250635Y-21977461D01*
X100135367Y-21900441D01*
X100135364Y-21900439D01*
X100037341Y-21802416D01*
X99960318Y-21687143D01*
X99944732Y-21649514D01*
X99907266Y-21559065D01*
X99907265Y-21559062D01*
X99906282Y-21556688D01*
X99900655Y-21538139D01*
X99889104Y-21516528D01*
X99873558Y-21497586D01*
X99854616Y-21482040D01*
X99833006Y-21470489D01*
X99809556Y-21463376D01*
X99785170Y-21460974D01*
X99760784Y-21463376D01*
X99737335Y-21470489D01*
X99715724Y-21482040D01*
X99696782Y-21497586D01*
X99681236Y-21516528D01*
X99669685Y-21538138D01*
X99664058Y-21556688D01*
X99663075Y-21559062D01*
X99663074Y-21559065D01*
X99625608Y-21649514D01*
X99610022Y-21687143D01*
X99532999Y-21802416D01*
X99434976Y-21900439D01*
X99434973Y-21900441D01*
X99319705Y-21977461D01*
X99191625Y-22030514D01*
X99055656Y-22057560D01*
X98917024Y-22057560D01*
X98781055Y-22030514D01*
X98652975Y-21977461D01*
X98537707Y-21900441D01*
X98537704Y-21900439D01*
X98439681Y-21802416D01*
X98362658Y-21687143D01*
X98309606Y-21559065D01*
X98282560Y-21423096D01*
X98282560Y-21284464D01*
X98309606Y-21148495D01*
X98362658Y-21020417D01*
X98370911Y-21008066D01*
X98387205Y-20983680D01*
X99605104Y-20983680D01*
X99607506Y-21008066D01*
X99614619Y-21031515D01*
X99663074Y-21148495D01*
X99663075Y-21148498D01*
X99664058Y-21150872D01*
X99669685Y-21169421D01*
X99681236Y-21191032D01*
X99696782Y-21209974D01*
X99715724Y-21225520D01*
X99737334Y-21237071D01*
X99760784Y-21244184D01*
X99785170Y-21246586D01*
X99809556Y-21244184D01*
X99833005Y-21237071D01*
X99854616Y-21225520D01*
X99873558Y-21209974D01*
X99889104Y-21191032D01*
X99900655Y-21169422D01*
X99906282Y-21150872D01*
X99907265Y-21148498D01*
X99907266Y-21148495D01*
X99955721Y-21031515D01*
X99962834Y-21008066D01*
X99965236Y-20983680D01*
X101202764Y-20983680D01*
X101205166Y-21008066D01*
X101212279Y-21031515D01*
X101260734Y-21148495D01*
X101260735Y-21148498D01*
X101261718Y-21150872D01*
X101267345Y-21169421D01*
X101278896Y-21191032D01*
X101294442Y-21209974D01*
X101313384Y-21225520D01*
X101334994Y-21237071D01*
X101358444Y-21244184D01*
X101382830Y-21246586D01*
X101407216Y-21244184D01*
X101430665Y-21237071D01*
X101452276Y-21225520D01*
X101471218Y-21209974D01*
X101486764Y-21191032D01*
X101498315Y-21169422D01*
X101503942Y-21150872D01*
X101504925Y-21148498D01*
X101504926Y-21148495D01*
X101553381Y-21031515D01*
X101560494Y-21008066D01*
X101562896Y-20983680D01*
X101560494Y-20959294D01*
X101553381Y-20935845D01*
X101541830Y-20914234D01*
X101526284Y-20895292D01*
X101507342Y-20879746D01*
X101485731Y-20868195D01*
X101462282Y-20861082D01*
X101437896Y-20858680D01*
X101327764Y-20858680D01*
X101303378Y-20861082D01*
X101279929Y-20868195D01*
X101258318Y-20879746D01*
X101239376Y-20895292D01*
X101223830Y-20914234D01*
X101212279Y-20935845D01*
X101205166Y-20959294D01*
X101202764Y-20983680D01*
X99965236Y-20983680D01*
X99962834Y-20959294D01*
X99955721Y-20935845D01*
X99944170Y-20914234D01*
X99928624Y-20895292D01*
X99909682Y-20879746D01*
X99888071Y-20868195D01*
X99864622Y-20861082D01*
X99840236Y-20858680D01*
X99730104Y-20858680D01*
X99705718Y-20861082D01*
X99682269Y-20868195D01*
X99660658Y-20879746D01*
X99641716Y-20895292D01*
X99626170Y-20914234D01*
X99614619Y-20935845D01*
X99607506Y-20959294D01*
X99605104Y-20983680D01*
X98387205Y-20983680D01*
X98439679Y-20905147D01*
X98439681Y-20905144D01*
X98537704Y-20807121D01*
X98565689Y-20788422D01*
X98652975Y-20730099D01*
X98781055Y-20677046D01*
X98917024Y-20650000D01*
X99042676Y-20650000D01*
X99067062Y-20647598D01*
X99090511Y-20640485D01*
X99112122Y-20628934D01*
X99131064Y-20613388D01*
X99146610Y-20594446D01*
X99158161Y-20572835D01*
X99165274Y-20549386D01*
X99167676Y-20525000D01*
X100405204Y-20525000D01*
X100407606Y-20549386D01*
X100414719Y-20572835D01*
X100426270Y-20594446D01*
X100441816Y-20613388D01*
X100460758Y-20628934D01*
X100482369Y-20640485D01*
X100505818Y-20647598D01*
X100530204Y-20650000D01*
X100637796Y-20650000D01*
X100662182Y-20647598D01*
X100685631Y-20640485D01*
X100707242Y-20628934D01*
X100726184Y-20613388D01*
X100741730Y-20594446D01*
X100753281Y-20572835D01*
X100760394Y-20549386D01*
X100762796Y-20525000D01*
X100760394Y-20500614D01*
X100753281Y-20477165D01*
X100701350Y-20351792D01*
X100699484Y-20345642D01*
X100687933Y-20324031D01*
X100672387Y-20305089D01*
X100653445Y-20289544D01*
X100631834Y-20277993D01*
X100608385Y-20270881D01*
X100583998Y-20268479D01*
X100559612Y-20270881D01*
X100536163Y-20277995D01*
X100514552Y-20289546D01*
X100495610Y-20305092D01*
X100480065Y-20324034D01*
X100468514Y-20345645D01*
X100466647Y-20351799D01*
X100463175Y-20360182D01*
X100463174Y-20360185D01*
X100447684Y-20397581D01*
X100414719Y-20477165D01*
X100407606Y-20500614D01*
X100405204Y-20525000D01*
X99167676Y-20525000D01*
X99165274Y-20500614D01*
X99158161Y-20477165D01*
X99109706Y-20360185D01*
X99082660Y-20224216D01*
X99082660Y-20085584D01*
X99109706Y-19949615D01*
X99162758Y-19821537D01*
X99239781Y-19706264D01*
X99337804Y-19608241D01*
X99397108Y-19568615D01*
X99453075Y-19531219D01*
X99581155Y-19478166D01*
X99717124Y-19451120D01*
X99855756Y-19451120D01*
X99991725Y-19478166D01*
X99991725Y-19478166D01*
G37*
G36*
X61637725Y-19097166D02*
X61765805Y-19150219D01*
X61879539Y-19226214D01*
X61881076Y-19227241D01*
X61979099Y-19325264D01*
X61979101Y-19325267D01*
X62021430Y-19388616D01*
X62056122Y-19440537D01*
X62069966Y-19473960D01*
X62093684Y-19531218D01*
X62112650Y-19577008D01*
X62114516Y-19583158D01*
X62126067Y-19604769D01*
X62141613Y-19623711D01*
X62160555Y-19639256D01*
X62182166Y-19650807D01*
X62205615Y-19657919D01*
X62230002Y-19660321D01*
X62254388Y-19657919D01*
X62277837Y-19650805D01*
X62299448Y-19639254D01*
X62318390Y-19623708D01*
X62333935Y-19604766D01*
X62345486Y-19583155D01*
X62347353Y-19577000D01*
X62366317Y-19531218D01*
X62388292Y-19478166D01*
X62403878Y-19440537D01*
X62438571Y-19388616D01*
X62480899Y-19325267D01*
X62480901Y-19325264D01*
X62578924Y-19227241D01*
X62580461Y-19226214D01*
X62694195Y-19150219D01*
X62822275Y-19097166D01*
X62958244Y-19070120D01*
X63096876Y-19070120D01*
X63232845Y-19097166D01*
X63360925Y-19150219D01*
X63474659Y-19226214D01*
X63476196Y-19227241D01*
X63574219Y-19325264D01*
X63574221Y-19325267D01*
X63616550Y-19388616D01*
X63651242Y-19440537D01*
X63704294Y-19568615D01*
X63731340Y-19704584D01*
X63731340Y-19843216D01*
X63704294Y-19979185D01*
X63655839Y-20096165D01*
X63648726Y-20119614D01*
X63646324Y-20144000D01*
X63648726Y-20168386D01*
X63655839Y-20191835D01*
X63667390Y-20213446D01*
X63682936Y-20232388D01*
X63701878Y-20247934D01*
X63723489Y-20259485D01*
X63746938Y-20266598D01*
X63771324Y-20269000D01*
X63896976Y-20269000D01*
X64032945Y-20296046D01*
X64152687Y-20345645D01*
X64161025Y-20349099D01*
X64177616Y-20360185D01*
X64276296Y-20426121D01*
X64374319Y-20524144D01*
X64374321Y-20524147D01*
X64444338Y-20628934D01*
X64451342Y-20639417D01*
X64504394Y-20767495D01*
X64531440Y-20903464D01*
X64531440Y-21042096D01*
X64504394Y-21178065D01*
X64451342Y-21306143D01*
X64374319Y-21421416D01*
X64276296Y-21519439D01*
X64276293Y-21519441D01*
X64161025Y-21596461D01*
X64161024Y-21596462D01*
X64161023Y-21596462D01*
X64032945Y-21649514D01*
X63896976Y-21676560D01*
X63758344Y-21676560D01*
X63622375Y-21649514D01*
X63494297Y-21596462D01*
X63494296Y-21596462D01*
X63494295Y-21596461D01*
X63379027Y-21519441D01*
X63379024Y-21519439D01*
X63281001Y-21421416D01*
X63203978Y-21306143D01*
X63191891Y-21276962D01*
X63150926Y-21178065D01*
X63150925Y-21178062D01*
X63149942Y-21175688D01*
X63144315Y-21157139D01*
X63132764Y-21135528D01*
X63117218Y-21116586D01*
X63098276Y-21101040D01*
X63076666Y-21089489D01*
X63053216Y-21082376D01*
X63028830Y-21079974D01*
X63004444Y-21082376D01*
X62980995Y-21089489D01*
X62959384Y-21101040D01*
X62940442Y-21116586D01*
X62924896Y-21135528D01*
X62913345Y-21157138D01*
X62907718Y-21175688D01*
X62906735Y-21178062D01*
X62906734Y-21178065D01*
X62865769Y-21276962D01*
X62853682Y-21306143D01*
X62776659Y-21421416D01*
X62678636Y-21519439D01*
X62678633Y-21519441D01*
X62563365Y-21596461D01*
X62563364Y-21596462D01*
X62563363Y-21596462D01*
X62435285Y-21649514D01*
X62299316Y-21676560D01*
X62160684Y-21676560D01*
X62024715Y-21649514D01*
X61896637Y-21596462D01*
X61896636Y-21596462D01*
X61896635Y-21596461D01*
X61781367Y-21519441D01*
X61781364Y-21519439D01*
X61683341Y-21421416D01*
X61606318Y-21306143D01*
X61594231Y-21276962D01*
X61553266Y-21178065D01*
X61553265Y-21178062D01*
X61552282Y-21175688D01*
X61546655Y-21157139D01*
X61535104Y-21135528D01*
X61519558Y-21116586D01*
X61500616Y-21101040D01*
X61479006Y-21089489D01*
X61455556Y-21082376D01*
X61431170Y-21079974D01*
X61406784Y-21082376D01*
X61383335Y-21089489D01*
X61361724Y-21101040D01*
X61342782Y-21116586D01*
X61327236Y-21135528D01*
X61315685Y-21157138D01*
X61310058Y-21175688D01*
X61309075Y-21178062D01*
X61309074Y-21178065D01*
X61268109Y-21276962D01*
X61256022Y-21306143D01*
X61178999Y-21421416D01*
X61080976Y-21519439D01*
X61080973Y-21519441D01*
X60965705Y-21596461D01*
X60965704Y-21596462D01*
X60965703Y-21596462D01*
X60837625Y-21649514D01*
X60701656Y-21676560D01*
X60563024Y-21676560D01*
X60427055Y-21649514D01*
X60298977Y-21596462D01*
X60298976Y-21596462D01*
X60298975Y-21596461D01*
X60183707Y-21519441D01*
X60183704Y-21519439D01*
X60085681Y-21421416D01*
X60008658Y-21306143D01*
X59955606Y-21178065D01*
X59928560Y-21042096D01*
X59928560Y-20903464D01*
X59955606Y-20767495D01*
X60008658Y-20639417D01*
X60015663Y-20628934D01*
X60033205Y-20602680D01*
X61251104Y-20602680D01*
X61253506Y-20627066D01*
X61260619Y-20650515D01*
X61309074Y-20767495D01*
X61309075Y-20767498D01*
X61310058Y-20769872D01*
X61315685Y-20788421D01*
X61327236Y-20810032D01*
X61342782Y-20828974D01*
X61361724Y-20844520D01*
X61383334Y-20856071D01*
X61406784Y-20863184D01*
X61431170Y-20865586D01*
X61455556Y-20863184D01*
X61479005Y-20856071D01*
X61500616Y-20844520D01*
X61519558Y-20828974D01*
X61535104Y-20810032D01*
X61546655Y-20788422D01*
X61552282Y-20769872D01*
X61553265Y-20767498D01*
X61553266Y-20767495D01*
X61601721Y-20650515D01*
X61608834Y-20627066D01*
X61611236Y-20602680D01*
X62848764Y-20602680D01*
X62851166Y-20627066D01*
X62858279Y-20650515D01*
X62906734Y-20767495D01*
X62906735Y-20767498D01*
X62907718Y-20769872D01*
X62913345Y-20788421D01*
X62924896Y-20810032D01*
X62940442Y-20828974D01*
X62959384Y-20844520D01*
X62980994Y-20856071D01*
X63004444Y-20863184D01*
X63028830Y-20865586D01*
X63053216Y-20863184D01*
X63076665Y-20856071D01*
X63098276Y-20844520D01*
X63117218Y-20828974D01*
X63132764Y-20810032D01*
X63144315Y-20788422D01*
X63149942Y-20769872D01*
X63150925Y-20767498D01*
X63150926Y-20767495D01*
X63199381Y-20650515D01*
X63206494Y-20627066D01*
X63208896Y-20602680D01*
X63206494Y-20578294D01*
X63199381Y-20554845D01*
X63187830Y-20533234D01*
X63172284Y-20514292D01*
X63153342Y-20498746D01*
X63131731Y-20487195D01*
X63108282Y-20480082D01*
X63083896Y-20477680D01*
X62973764Y-20477680D01*
X62949378Y-20480082D01*
X62925929Y-20487195D01*
X62904318Y-20498746D01*
X62885376Y-20514292D01*
X62869830Y-20533234D01*
X62858279Y-20554845D01*
X62851166Y-20578294D01*
X62848764Y-20602680D01*
X61611236Y-20602680D01*
X61608834Y-20578294D01*
X61601721Y-20554845D01*
X61590170Y-20533234D01*
X61574624Y-20514292D01*
X61555682Y-20498746D01*
X61534071Y-20487195D01*
X61510622Y-20480082D01*
X61486236Y-20477680D01*
X61376104Y-20477680D01*
X61351718Y-20480082D01*
X61328269Y-20487195D01*
X61306658Y-20498746D01*
X61287716Y-20514292D01*
X61272170Y-20533234D01*
X61260619Y-20554845D01*
X61253506Y-20578294D01*
X61251104Y-20602680D01*
X60033205Y-20602680D01*
X60085679Y-20524147D01*
X60085681Y-20524144D01*
X60183704Y-20426121D01*
X60282384Y-20360185D01*
X60298975Y-20349099D01*
X60307314Y-20345645D01*
X60427055Y-20296046D01*
X60563024Y-20269000D01*
X60688676Y-20269000D01*
X60713062Y-20266598D01*
X60736511Y-20259485D01*
X60758122Y-20247934D01*
X60777064Y-20232388D01*
X60792610Y-20213446D01*
X60804161Y-20191835D01*
X60811274Y-20168386D01*
X60813676Y-20144000D01*
X62051204Y-20144000D01*
X62053606Y-20168386D01*
X62060719Y-20191835D01*
X62072270Y-20213446D01*
X62087816Y-20232388D01*
X62106758Y-20247934D01*
X62128369Y-20259485D01*
X62151818Y-20266598D01*
X62176204Y-20269000D01*
X62283796Y-20269000D01*
X62308182Y-20266598D01*
X62331631Y-20259485D01*
X62353242Y-20247934D01*
X62372184Y-20232388D01*
X62387730Y-20213446D01*
X62399281Y-20191835D01*
X62406394Y-20168386D01*
X62408796Y-20144000D01*
X62406394Y-20119614D01*
X62399281Y-20096165D01*
X62372622Y-20031805D01*
X62350826Y-19979185D01*
X62350826Y-19979183D01*
X62347350Y-19970792D01*
X62345484Y-19964642D01*
X62333933Y-19943031D01*
X62318387Y-19924089D01*
X62299445Y-19908544D01*
X62277834Y-19896993D01*
X62254385Y-19889881D01*
X62229998Y-19887479D01*
X62205612Y-19889881D01*
X62182163Y-19896995D01*
X62160552Y-19908546D01*
X62141610Y-19924092D01*
X62126065Y-19943034D01*
X62114514Y-19964645D01*
X62112647Y-19970799D01*
X62109175Y-19979182D01*
X62109174Y-19979185D01*
X62087378Y-20031805D01*
X62060719Y-20096165D01*
X62053606Y-20119614D01*
X62051204Y-20144000D01*
X60813676Y-20144000D01*
X60811274Y-20119614D01*
X60804161Y-20096165D01*
X60755706Y-19979185D01*
X60728660Y-19843216D01*
X60728660Y-19704584D01*
X60755706Y-19568615D01*
X60808758Y-19440537D01*
X60843451Y-19388616D01*
X60885779Y-19325267D01*
X60885781Y-19325264D01*
X60983804Y-19227241D01*
X60985341Y-19226214D01*
X61099075Y-19150219D01*
X61227155Y-19097166D01*
X61363124Y-19070120D01*
X61501756Y-19070120D01*
X61637725Y-19097166D01*
X61637725Y-19097166D01*
G37*
G36*
X97334565Y-19309389D02*
X97525834Y-19388615D01*
X97697976Y-19503637D01*
X97844363Y-19650024D01*
X97959385Y-19822166D01*
X98038611Y-20013435D01*
X98079000Y-20216484D01*
X98079000Y-20423516D01*
X98038611Y-20626565D01*
X97959385Y-20817834D01*
X97844363Y-20989976D01*
X97697976Y-21136363D01*
X97525834Y-21251385D01*
X97334565Y-21330611D01*
X97131516Y-21371000D01*
X96924484Y-21371000D01*
X96721435Y-21330611D01*
X96530166Y-21251385D01*
X96358024Y-21136363D01*
X96211637Y-20989976D01*
X96096615Y-20817834D01*
X96017389Y-20626565D01*
X95977000Y-20423516D01*
X95977000Y-20216484D01*
X96017389Y-20013435D01*
X96096615Y-19822166D01*
X96211637Y-19650024D01*
X96358024Y-19503637D01*
X96530166Y-19388615D01*
X96721435Y-19309389D01*
X96924484Y-19269000D01*
X97131516Y-19269000D01*
X97334565Y-19309389D01*
X97334565Y-19309389D01*
G37*
G36*
X104446565Y-19309389D02*
X104637834Y-19388615D01*
X104809976Y-19503637D01*
X104956363Y-19650024D01*
X105071385Y-19822166D01*
X105150611Y-20013435D01*
X105191000Y-20216484D01*
X105191000Y-20423516D01*
X105150611Y-20626565D01*
X105071385Y-20817834D01*
X104956363Y-20989976D01*
X104809976Y-21136363D01*
X104637834Y-21251385D01*
X104446565Y-21330611D01*
X104243516Y-21371000D01*
X104036484Y-21371000D01*
X103833435Y-21330611D01*
X103642166Y-21251385D01*
X103470024Y-21136363D01*
X103323637Y-20989976D01*
X103208615Y-20817834D01*
X103129389Y-20626565D01*
X103089000Y-20423516D01*
X103089000Y-20216484D01*
X103129389Y-20013435D01*
X103208615Y-19822166D01*
X103323637Y-19650024D01*
X103470024Y-19503637D01*
X103642166Y-19388615D01*
X103833435Y-19309389D01*
X104036484Y-19269000D01*
X104243516Y-19269000D01*
X104446565Y-19309389D01*
X104446565Y-19309389D01*
G37*
G36*
X66092565Y-18928389D02*
X66283834Y-19007615D01*
X66455976Y-19122637D01*
X66602363Y-19269024D01*
X66717385Y-19441166D01*
X66796611Y-19632435D01*
X66837000Y-19835484D01*
X66837000Y-20042516D01*
X66796611Y-20245565D01*
X66717385Y-20436834D01*
X66602363Y-20608976D01*
X66455976Y-20755363D01*
X66283834Y-20870385D01*
X66092565Y-20949611D01*
X65889516Y-20990000D01*
X65682484Y-20990000D01*
X65479435Y-20949611D01*
X65288166Y-20870385D01*
X65116024Y-20755363D01*
X64969637Y-20608976D01*
X64854615Y-20436834D01*
X64775389Y-20245565D01*
X64735000Y-20042516D01*
X64735000Y-19835484D01*
X64775389Y-19632435D01*
X64854615Y-19441166D01*
X64969637Y-19269024D01*
X65116024Y-19122637D01*
X65288166Y-19007615D01*
X65479435Y-18928389D01*
X65682484Y-18888000D01*
X65889516Y-18888000D01*
X66092565Y-18928389D01*
X66092565Y-18928389D01*
G37*
G36*
X58980565Y-18928389D02*
X59171834Y-19007615D01*
X59343976Y-19122637D01*
X59490363Y-19269024D01*
X59605385Y-19441166D01*
X59684611Y-19632435D01*
X59725000Y-19835484D01*
X59725000Y-20042516D01*
X59684611Y-20245565D01*
X59605385Y-20436834D01*
X59490363Y-20608976D01*
X59343976Y-20755363D01*
X59171834Y-20870385D01*
X58980565Y-20949611D01*
X58777516Y-20990000D01*
X58570484Y-20990000D01*
X58367435Y-20949611D01*
X58176166Y-20870385D01*
X58004024Y-20755363D01*
X57857637Y-20608976D01*
X57742615Y-20436834D01*
X57663389Y-20245565D01*
X57623000Y-20042516D01*
X57623000Y-19835484D01*
X57663389Y-19632435D01*
X57742615Y-19441166D01*
X57857637Y-19269024D01*
X58004024Y-19122637D01*
X58176166Y-19007615D01*
X58367435Y-18928389D01*
X58570484Y-18888000D01*
X58777516Y-18888000D01*
X58980565Y-18928389D01*
X58980565Y-18928389D01*
G37*
G36*
X104446565Y-14737389D02*
X104637834Y-14816615D01*
X104809976Y-14931637D01*
X104956363Y-15078024D01*
X105071385Y-15250166D01*
X105150611Y-15441435D01*
X105191000Y-15644484D01*
X105191000Y-15851516D01*
X105150611Y-16054565D01*
X105071385Y-16245834D01*
X104956363Y-16417976D01*
X104809976Y-16564363D01*
X104637834Y-16679385D01*
X104446565Y-16758611D01*
X104243516Y-16799000D01*
X104036484Y-16799000D01*
X103833435Y-16758611D01*
X103642166Y-16679385D01*
X103470024Y-16564363D01*
X103323637Y-16417976D01*
X103208615Y-16245834D01*
X103129389Y-16054565D01*
X103089000Y-15851516D01*
X103089000Y-15644484D01*
X103129389Y-15441435D01*
X103208615Y-15250166D01*
X103323637Y-15078024D01*
X103470024Y-14931637D01*
X103642166Y-14816615D01*
X103833435Y-14737389D01*
X104036484Y-14697000D01*
X104243516Y-14697000D01*
X104446565Y-14737389D01*
X104446565Y-14737389D01*
G37*
G36*
X97334565Y-14737389D02*
X97525834Y-14816615D01*
X97697976Y-14931637D01*
X97844363Y-15078024D01*
X97959385Y-15250166D01*
X98038611Y-15441435D01*
X98079000Y-15644484D01*
X98079000Y-15851516D01*
X98038611Y-16054565D01*
X97959385Y-16245834D01*
X97844363Y-16417976D01*
X97697976Y-16564363D01*
X97525834Y-16679385D01*
X97334565Y-16758611D01*
X97131516Y-16799000D01*
X96924484Y-16799000D01*
X96721435Y-16758611D01*
X96530166Y-16679385D01*
X96358024Y-16564363D01*
X96211637Y-16417976D01*
X96096615Y-16245834D01*
X96017389Y-16054565D01*
X95977000Y-15851516D01*
X95977000Y-15644484D01*
X96017389Y-15441435D01*
X96096615Y-15250166D01*
X96211637Y-15078024D01*
X96358024Y-14931637D01*
X96530166Y-14816615D01*
X96721435Y-14737389D01*
X96924484Y-14697000D01*
X97131516Y-14697000D01*
X97334565Y-14737389D01*
X97334565Y-14737389D01*
G37*
G36*
X66092565Y-14356389D02*
X66283834Y-14435615D01*
X66455976Y-14550637D01*
X66602363Y-14697024D01*
X66717385Y-14869166D01*
X66796611Y-15060435D01*
X66837000Y-15263484D01*
X66837000Y-15470516D01*
X66796611Y-15673565D01*
X66717385Y-15864834D01*
X66602363Y-16036976D01*
X66455976Y-16183363D01*
X66283834Y-16298385D01*
X66092565Y-16377611D01*
X65889516Y-16418000D01*
X65682484Y-16418000D01*
X65479435Y-16377611D01*
X65288166Y-16298385D01*
X65116024Y-16183363D01*
X64969637Y-16036976D01*
X64854615Y-15864834D01*
X64775389Y-15673565D01*
X64735000Y-15470516D01*
X64735000Y-15263484D01*
X64775389Y-15060435D01*
X64854615Y-14869166D01*
X64969637Y-14697024D01*
X65116024Y-14550637D01*
X65288166Y-14435615D01*
X65479435Y-14356389D01*
X65682484Y-14316000D01*
X65889516Y-14316000D01*
X66092565Y-14356389D01*
X66092565Y-14356389D01*
G37*
G36*
X58980565Y-14356389D02*
X59171834Y-14435615D01*
X59343976Y-14550637D01*
X59490363Y-14697024D01*
X59605385Y-14869166D01*
X59684611Y-15060435D01*
X59725000Y-15263484D01*
X59725000Y-15470516D01*
X59684611Y-15673565D01*
X59605385Y-15864834D01*
X59490363Y-16036976D01*
X59343976Y-16183363D01*
X59171834Y-16298385D01*
X58980565Y-16377611D01*
X58777516Y-16418000D01*
X58570484Y-16418000D01*
X58367435Y-16377611D01*
X58176166Y-16298385D01*
X58004024Y-16183363D01*
X57857637Y-16036976D01*
X57742615Y-15864834D01*
X57663389Y-15673565D01*
X57623000Y-15470516D01*
X57623000Y-15263484D01*
X57663389Y-15060435D01*
X57742615Y-14869166D01*
X57857637Y-14697024D01*
X58004024Y-14550637D01*
X58176166Y-14435615D01*
X58367435Y-14356389D01*
X58570484Y-14316000D01*
X58777516Y-14316000D01*
X58980565Y-14356389D01*
X58980565Y-14356389D01*
G37*
M02*
